<svg id="Layer_8" data-name="Layer 8" xmlns="http://www.w3.org/2000/svg" viewBox="0 0 308.54 108.8"><title>desert_birds</title><g id="Layer_12" data-name="Layer 12"><path d="M354.63,601s44.6-13.56,47.41,22.18c0,0,20.28-41.72,32.6-28.11,0,0-16.73-25.63-32.58,6C402.06,601,378.37,574.13,354.63,601Z" transform="translate(-232.25 -514.37)"/><path d="M232.25,552.67s33.68-11,42.27,18.79c0,0,9.17-38.38,33.27-26.37,0,0-10.33-20.92-35.62,6.11C272.17,551.2,247.89,529.14,232.25,552.67Z" transform="translate(-232.25 -514.37)"/><path d="M465.25,529.67s33.68-11,42.27,18.79c0,0,9.17-38.38,33.27-26.37,0,0-10.33-20.92-35.62,6.11C505.17,528.2,480.89,506.14,465.25,529.67Z" transform="translate(-232.25 -514.37)"/></g></svg>