<svg id="Layer_8" data-name="Layer 8" xmlns="http://www.w3.org/2000/svg" viewBox="0 0 1919 428"><title>desert_back_2</title><g id="Layer_4" data-name="Layer 4"><path d="M2,1113,0,905l6-8,2-34,2-4,6-81s46-25,58-26,24-14,24-14,117-10,132-9,18,3,19,16,1,2,1,2,45,18,54,29,17,22,20,80,55,69,55,69,68,41,96,58,125,34,166,34,234,0,244-4,107-16,135-15,504-27,504-27l97-1s0-19,8-21,22-1,26-5,23-29,35-32,61-13,70-20,26-19,31-29c0,0,11-133,18-140,0,0,17-5,25-4s8-5,8-5l1-27h75l1,428Z" transform="translate(0 -687)" style="fill:#9c4327"/></g><g id="Layer_3" data-name="Layer 3"><path d="M678,1092s49-19,139-23,2-1,2-1,27,0,41-4,53-34,56-38c0,0,29-2,70-3,0,0,30-21,45-25s40-33,48-35,12-1,12-1,7-32,13-33,4-20,4-20,42-2,51-11l2-92-5-5,1-18s12-1,18-5l1-28s23-2,29-6,10-13,16-13,19,6,19,15v81s18,23,19,32,1,46,6,54,6,4,22,23,33,27,39,28,20,1,40,16c0,0,37-1,43,3s11,21,12,35c0,0,11-1,31,16s73,48,129,59,83,16,83,16l-989-7Z" transform="translate(0 -687)" style="fill:#3d0d0a"/></g></svg>