<svg xmlns="http://www.w3.org/2000/svg" viewBox="0 0 1918 1158.06"><title>hills_2</title><g id="Back_hills" data-name="Back hills"><path d="M1837.45,928.05c-.43.84-.87,1.68-1.31,2.52l1.54-.54C1837.62,929.37,1837.55,928.71,1837.45,928.05Z" transform="translate(-1 44.06)" style="fill:#166888"/><path d="M1397.47,1096.91a20.76,20.76,0,0,1,3.57-3,11.22,11.22,0,0,1,4.12-2.54l1.6-.56c2.86-1.31,5.82-2.44,8.42-3.64,7.18-3.29,14.53-6.18,21.7-9.48,14.4-6.64,29-12.75,43.93-18.14,24-8.65,51.45-15.79,70.34-33.87,5.11-4.89,9-10.79,14-15.79a190,190,0,0,1,16.87-15.07c12.66-10,27.63-16.8,41.92-24,6.65-3.36,13.72-6.3,19.38-11.24,3.93-3.44,9.21-8.94,6.83-14.64a9,9,0,0,0-.48-1,28.33,28.33,0,0,1-6.64-5.64,20.58,20.58,0,0,1-1.26-1.73c-1.13-.79-2.23-1.58-3.2-2.4-4.5-3.8-7.63-8.68-8.11-14.66-1-13.21,9.37-22.8,19.68-29,12.27-7.38,23.63-14.69,33.52-25.21a123,123,0,0,0,13.07-16.49c3.69-5.59,9.88-13.65,8.47-20.7-.81-4.09-3.8-7.76-6.06-11.16q-3.14-4.73-6.4-9.35-7-9.93-14.72-19.36c-1.41-1.73-2-4.77,0-6.41,5.47-4.4-8.67-13.47-11.48-15.87-5.68-4.84-11.07-10.92-13.34-18.17a20.28,20.28,0,0,1,3.79-19.19c4.57-5.43,11.3-8.07,17.66-10.77,5.79-2.46,17-8,13.49-16.08-1.45-3.29-5.07-5.8-7.78-8a115.9,115.9,0,0,0-11-8A124.22,124.22,0,0,0,1647,674.18c-8.25-3.19-16.28-6.88-24.73-9.56a2.05,2.05,0,0,1-.71-.4c-46.75-6.11-92-3.92-134.53,2.78-108,17-260,165-260,165s-135,111-223,127c-36.92,6.71-92,3.21-146.62-4.58l-.66.07c-23.28,2.57-46.59,4.84-70,5.47-40.85,1.08-82.05-3-120-19-34.15-14.5-64.65-37.29-91.19-63a380.5,380.5,0,0,1-38.21-42.35c-12.62-16.57-20.41-35.33-29.41-54-8.6-17.78-19.5-34.38-31.46-50.06-6-7.82-12.31-15.33-18.63-22.85l-2.69-1.7-2-1.25-2.73-1.7-2-1.24-2.81-1.71-2-1.21-2.92-1.75L438.74,697l-3.22-1.89-1.69-1-4.41-2.53-.57-.33-5-2.85-1.59-.88-3.5-1.94-2-1.09-3.17-1.72-2.14-1.15L408.36,680l-2.22-1.17c-1-.54-2-1.07-3.05-1.6l-1.87-1c-2.57-1.32-5.15-2.64-7.76-4l-1.28-.64q-4-2-8.12-4l-.61-.29q-4.06-2-8.16-3.89l-.8-.37q-4.1-1.92-8.23-3.79l-1.38-.62c-2.7-1.22-5.4-2.41-8.12-3.6l-1.46-.63c-2.75-1.2-5.52-2.38-8.29-3.54l-1.1-.45q-4.34-1.82-8.7-3.57l-.11,0q-4.38-1.75-8.78-3.44l-1.18-.46c-2.8-1.07-5.61-2.13-8.41-3.16l-1.53-.56c-2.78-1-5.58-2-8.38-3l-1.4-.49q-4.32-1.5-8.66-2.94l-.71-.23c-2.88-1-5.76-1.88-8.65-2.79l-.78-.24c-2.88-.9-5.77-1.77-8.65-2.63l-1.43-.42c-2.8-.82-5.61-1.61-8.42-2.39l-1.53-.41c-2.83-.78-5.67-1.53-8.5-2.25l-1.16-.29c-3-.75-6-1.48-8.93-2.17C134,592,1,696,1,696v409l1396.29,6.55A10.88,10.88,0,0,1,1397.47,1096.91Z" transform="translate(-1 44.06)" style="fill:#166888"/><path d="M507.93,781.63c9,18.62,16.79,37.38,29.41,54a380.5,380.5,0,0,0,38.21,42.35c26.54,25.7,57,48.49,91.19,63,37.92,16.09,79.12,20.12,120,19,23.42-.63,46.73-2.9,70-5.47l.66-.07C781.78,943.63,707,924.61,682,913c-43-20-93-86-143-140-18.45-19.93-46.85-42.44-81.16-64.28,6.32,7.52,12.67,15,18.63,22.85C488.43,747.25,499.33,763.85,507.93,781.63Z" transform="translate(-1 44.06)" style="fill:#0a4f6e"/><path d="M1647,674.18a124.22,124.22,0,0,1,22.38,11.51,115.9,115.9,0,0,1,11,8c2.71,2.25,6.33,4.76,7.78,8,3.55,8-7.7,13.62-13.49,16.08-6.36,2.7-13.09,5.34-17.66,10.77a20.28,20.28,0,0,0-3.79,19.19c2.27,7.25,7.66,13.33,13.34,18.17,2.81,2.4,17,11.47,11.48,15.87-2,1.64-1.41,4.68,0,6.41q7.67,9.45,14.72,19.36,3.27,4.62,6.4,9.35c2.26,3.4,5.25,7.07,6.06,11.16,1.41,7-4.78,15.11-8.47,20.7a123,123,0,0,1-13.07,16.49c-9.89,10.52-21.25,17.83-33.52,25.21-10.31,6.2-20.73,15.79-19.68,29,.48,6,3.61,10.86,8.11,14.66,1,.82,2.07,1.61,3.2,2.4a20.58,20.58,0,0,0,1.26,1.73,28.33,28.33,0,0,0,6.64,5.64,9,9,0,0,1,.48,1c2.38,5.7-2.9,11.2-6.83,14.64-5.66,4.94-12.73,7.88-19.38,11.24-14.29,7.22-29.26,14.06-41.92,24a190,190,0,0,0-16.87,15.07c-5,5-8.92,10.9-14,15.79-18.89,18.08-46.38,25.22-70.34,33.87-14.91,5.39-29.53,11.5-43.93,18.14-7.17,3.3-14.52,6.19-21.7,9.48-2.6,1.2-5.56,2.33-8.42,3.64l-1.6.56a11.22,11.22,0,0,0-4.12,2.54,20.76,20.76,0,0,0-3.57,3,10.88,10.88,0,0,0-.18,14.64L1919,1114l-2-292-73-57c-75.12-62.4-150.61-91.39-222.47-100.78a2.05,2.05,0,0,0,.71.4C1630.69,667.3,1638.72,671,1647,674.18Zm190.48,253.87c.1.66.17,1.32.23,2l-1.54.54C1836.58,929.73,1837,928.89,1837.45,928.05Z" transform="translate(-1 44.06)" style="fill:#0a4f6e"/></g><g id="Layer_5" data-name="Layer 5"><path d="M322.87,495.07a23.71,23.71,0,0,1-6.73,1.71q7.41,1.79,14.71,3.3a2.79,2.79,0,0,0,.35-.25C331.8,499.23,335.37,489.71,322.87,495.07Z" transform="translate(-1 44.06)" style="fill:none"/><path d="M399.65,589c-21.47,11.84-13.33-8.14-10.37-17s-13.32-1.48-27.38,9.62c-13.06,10.31-40.14,18.06-55.21,19.12q3.42,1,6.9,1.82a615,615,0,0,0,79.52,13.78c38.1-17,62.77-42.16,62.77-42.16l1.31-1.18,2.23-57.6-25.72,44A112.26,112.26,0,0,1,399.65,589Z" transform="translate(-1 44.06)" style="fill:none"/><path d="M303.14,396.23c16.83,4.15,33.36,7.23,48.64,9.52a328.36,328.36,0,0,0,36-6.65c39-9.61,66.19-37.36,66.19-37.36s7.69-6.88,11.84-11.15l2.2-56.81-7.83,7.48-4,11.57-16.92,28.94a67.39,67.39,0,0,1-20.47,17.8c-12.91,7.12-8-4.9-6.23-10.24s-8-.89-16.48,5.79c-7.78,6.15-23.86,10.78-33,11.48-1.64,1.33-4.46,2.25-9.13,2.25-13.7,0-43.27-7.94-57-18.76s-29.57-18-26.69-9.37,10.82,28.13-10.09,16.58A109.32,109.32,0,0,1,227,328.45l-27.41-46.88-6.49-18.75-4.58-4.37c.62,23.54,1.27,48.26,1.94,73.72l1.41,1.27S237.66,380.08,303.14,396.23Z" transform="translate(-1 44.06)" style="fill:none"/><path d="M294.58,490.5a6.41,6.41,0,0,1-2.07-3.77c-.59-6.55,6.55-4.76,6.55-4.76A394.71,394.71,0,0,0,383,471.26c43.45-10.72,73.8-41.67,73.8-41.67S459.66,427,463,424l2.71-69.86-7.44,7.1-4.81,13.88-20.28,34.7s-.63.88-1.82,2.32c3-.28,8.82.09,8.15,7.45-.89,9.87-26.91,20.63-45.74,12.56s-13.46,6.28-12.56,7.17,14.35,8.08,16.14,11.66,4.49,13.46-12.55,13.46S331,454.53,313.9,441.08s-36.77-22.43-33.18-11.66,13.45,35-12.56,20.63a136,136,0,0,1-41.26-35.88l-34.09-58.31L191,350.61c.65,24.55,1.31,49.69,2,75.05,4,3.66,7.05,6.4,7.05,6.4S238,470.83,294.58,490.5Z" transform="translate(-1 44.06)" style="fill:none"/><path d="M456.2,444.47l-22.62,38.69A90.2,90.2,0,0,1,406.2,507c-17.26,9.52-10.71-6.55-8.33-13.69s-10.72-1.19-22,7.74a49.6,49.6,0,0,1-8.88,5.4,617.86,617.86,0,0,0,71.49,6.14A211.34,211.34,0,0,0,460.21,495l2.61-67.2L461.55,429Z" transform="translate(-1 44.06)" style="fill:none"/><path d="M439.5,619.71c7,.26,11,.26,11,.26a14.76,14.76,0,0,1,4.88-.26l1.2-30.91L455.12,593Z" transform="translate(-1 44.06)" style="fill:none"/><path d="M289.32,638.42l.12.36c4.58-.4,9.51-.89,14.72-1.5C294.05,632.17,286.93,631.27,289.32,638.42Z" transform="translate(-1 44.06)" style="fill:none"/><path d="M356.47,350.67a13.47,13.47,0,0,1-1.34.49c2,1.2,4.27,2.66,6.07,4a15.77,15.77,0,0,0,1.5-.95C363.14,353.78,365.82,346.66,356.47,350.67Z" transform="translate(-1 44.06)" style="fill:none"/><path d="M418.18,760.84c.58.58,5.68,3.42,10.43,6.54,6.11-4.33,11.34-8.4,15.57-11.89a41.26,41.26,0,0,1-11.46-3C410.91,743.18,417.14,759.8,418.18,760.84Z" transform="translate(-1 44.06)" style="fill:none"/><path d="M327.81,711c8.75,2.16,17.42,4.06,25.93,5.75q4.18-.94,8.42-2c43.24-10.66,76.84-36.21,91.42-48.81l1.15-29.47c-7,4.94-18.57,8.52-30,7.83a116.3,116.3,0,0,1-13,13.64,13.84,13.84,0,0,1,3.81,3.78c1.94,3.88,4.86,14.56-13.59,14.56a93.47,93.47,0,0,1-15.27-1.55c-6.24,2.51-8.82,1.14-9.48-1.93a198.56,198.56,0,0,1-24.78-7.5c-14.63,11.06-44.84,19.11-59,19.11-14.35,0-12.08-8.31-10.57-11.34s12.84-9.06,13.59-9.82c.58-.57,3.3-7.6-2.25-8.08,1.44,8.91-1.2,15.12-18.5,5.58-.69-.38-1.37-.77-2.05-1.16-13,.06-25.73-6.66-26.3-13-.24-2.66.53-4.24,1.68-5.15a136,136,0,0,1-18-19.57L196.6,563c.67,25.54,1.34,50.64,2,74.92l.42.38S252,692.28,327.81,711Z" transform="translate(-1 44.06)" style="fill:none"/><path d="M451.14,728.88l1.41-36.23-20.41,34.92C439.22,728.15,445.61,728.57,451.14,728.88Z" transform="translate(-1 44.06)" style="fill:none"/><path d="M392.19,537.73c4.37-1.7,8.6-3.53,12.65-5.44C391.2,526.82,391.08,533.76,392.19,537.73Z" transform="translate(-1 44.06)" style="fill:none"/><path d="M293.06,589.69c1.48-3,12.58-8.88,13.32-9.62s5.18-12.58-10.36-5.92-37-2.22-37.75-10.37,8.14-5.92,8.14-5.92A488.42,488.42,0,0,0,339.7,551a80,80,0,0,1-15.18-9C307.13,528.19,287,519,290.65,530s13.73,35.7-12.82,21.05a138.78,138.78,0,0,1-42.11-36.62L200.93,455l-7.78-22.48c.92,34.84,1.85,70,2.77,104.69,9.91,9.32,46.15,41.15,96.39,58.93C291.46,593.75,292.34,591.12,293.06,589.69Z" transform="translate(-1 44.06)" style="fill:none"/><path d="M490.86,383.06l5.35,15.48,22.62,38.69A90.35,90.35,0,0,0,546.21,461c17.26,9.52,10.72-6.55,8.34-13.69s10.71-1.19,22,7.74,35.71,15.47,47,15.47,9.52-6.55,8.33-8.93-10.11-7.14-10.71-7.74-4.17-10.11,8.33-4.76,29.76-1.78,30.36-8.33-6.55-4.76-6.55-4.76a394.3,394.3,0,0,1-83.92-10.72c-43.45-10.71-73.81-41.66-73.81-41.66s-4.43-4-8.64-8c0,1.25.07,2.49.1,3.75Z" transform="translate(-1 44.06)" style="fill:#363c49"/><path d="M490.59,459.85,518.72,508a112.11,112.11,0,0,0,34,29.61c21.46,11.84,13.32-8.14,10.36-17s13.32-1.49,27.39,9.62,44.41,19.24,58.47,19.24,11.85-8.14,10.37-11.1-12.59-8.88-13.33-9.62-5.18-12.59,10.36-5.92,37-2.22,37.75-10.37-8.14-5.92-8.14-5.92-50.33,0-104.37-13.32-91.78-51.82-91.78-51.82l-1.16-1c.13,5,.26,10.11.4,15.21Z" transform="translate(-1 44.06)" style="fill:#363c49"/><path d="M497.29,541.61,526,590.72a114.53,114.53,0,0,0,34.75,30.22c21.91,12.08,13.6-8.31,10.58-17.38s13.59-1.51,27.95,9.82S644.61,633,659,633s12.09-8.31,10.58-11.33-12.85-9.06-13.6-9.82-5.29-12.84,10.57-6,37.78-2.27,38.53-10.58-8.31-6-8.31-6-51.37,0-106.52-13.6-93.68-52.88-93.68-52.88-2.53-2.27-5.81-5.28l.15,5.62Z" transform="translate(-1 44.06)" style="fill:#363c49"/><path d="M522.15,679.39A121.45,121.45,0,0,0,559,711.44c23.23,12.82,14.42-8.81,11.22-18.43s14.42-1.6,29.64,10.42,48.08,20.83,63.3,20.83,12.82-8.81,11.22-12-13.62-9.61-14.42-10.41-5.61-13.62,11.21-6.41,40.07-2.41,40.87-11.22-8.82-6.41-8.82-6.41-54.48,0-113-14.42c-50.47-12.45-87.82-45.17-97.11-53.91q.28,10.69.56,21.29Z" transform="translate(-1 44.06)" style="fill:#363c49"/><path d="M496.55,714.32,529.13,770a130,130,0,0,0,39.43,34.29c24.86,13.71,15.43-9.43,12-19.72s15.43-1.71,31.72,11.14S663.71,818,680,818s13.72-9.43,12-12.86S677.42,794.9,676.57,794s-6-14.57,12-6.86,42.86-2.57,43.71-12-9.42-6.86-9.42-6.86-58.29,0-120.87-15.43-106.3-60-106.3-60-.12-.12-.34-.31q.25,10,.52,19.77Z" transform="translate(-1 44.06)" style="fill:#363c49"/><path d="M383,471.26A394.71,394.71,0,0,1,299.06,482s-7.14-1.79-6.55,4.76a6.41,6.41,0,0,0,2.07,3.77c6.11,2.13,12.44,4,19,5.64l2.6.64a23.71,23.71,0,0,0,6.73-1.71c12.5-5.36,8.93,4.16,8.33,4.76a2.79,2.79,0,0,1-.35.25c12.52,2.62,24.69,4.7,36.11,6.34a49.6,49.6,0,0,0,8.88-5.4c11.31-8.93,24.41-14.88,22-7.74s-8.93,23.21,8.33,13.69a90.2,90.2,0,0,0,27.38-23.81l22.62-38.69L461.55,429l1.27-1.21L463,424c-3.31,3.07-6.18,5.63-6.18,5.63S426.44,460.54,383,471.26Z" transform="translate(-1 44.06)" style="fill:#464d5f"/><path d="M442.62,512.62s11-2.74,10.07,7.33S425.23,541,406,532.76l-1.16-.47c-4,1.91-8.28,3.74-12.65,5.44a7.33,7.33,0,0,0,1,2.36c.92.91,14.65,8.24,16.48,11.9s4.58,13.73-12.81,13.73c-13.29,0-38.31-5.88-57.15-14.77a488.42,488.42,0,0,1-73.29,6.91s-8.88-2.22-8.14,5.92,22.2,17,37.75,10.37,11.1,5.18,10.36,5.92-11.84,6.66-13.32,9.62c-.72,1.43-1.6,4.06-.75,6.4q7,2.49,14.38,4.58c15.07-1.06,42.15-8.81,55.21-19.12,14.06-11.1,30.34-18.51,27.38-9.62s-11.1,28.86,10.37,17a112.26,112.26,0,0,0,34.05-29.61l25.72-44,.79-20.34a211.34,211.34,0,0,1-21.76,17.57C441.16,512.62,442.62,512.62,442.62,512.62Z" transform="translate(-1 44.06)" style="fill:#464d5f"/><path d="M304.16,637.28c-5.21.61-10.14,1.1-14.72,1.5,1.51,4.49,3.91,10.94,4.78,16.39,5.55.48,2.83,7.51,2.25,8.08-.75.76-12.08,6.8-13.59,9.82s-3.78,11.34,10.57,11.34c14.13,0,44.34-8,59-19.11-10.54-4-20.33-8.86-27.18-14.26A131.9,131.9,0,0,0,304.16,637.28Z" transform="translate(-1 44.06)" style="fill:#464d5f"/><path d="M393.11,616.27c20,2.18,36.33,3.07,46.39,3.44L455.12,593l1.46-4.19.61-15.87-1.31,1.18S431.21,599.25,393.11,616.27Z" transform="translate(-1 44.06)" style="fill:#464d5f"/><path d="M247.37,646.63c.57,6.3,13.28,13,26.3,13a143.27,143.27,0,0,1-24.62-18.11C247.9,642.39,247.13,644,247.37,646.63Z" transform="translate(-1 44.06)" style="fill:#464d5f"/><path d="M398.06,649.1c.71.71,8.67,5,13.67,8.84a116.3,116.3,0,0,0,13-13.64,39.41,39.41,0,0,1-13.07-3C391.27,632.59,397.09,648.13,398.06,649.1Z" transform="translate(-1 44.06)" style="fill:#464d5f"/><path d="M386.68,674.73c-3-.53-6.2-1.17-9.48-1.93C377.86,675.87,380.44,677.24,386.68,674.73Z" transform="translate(-1 44.06)" style="fill:#464d5f"/><path d="M301.84,749.42c2.19,6.57,6.4,17.47,5.48,23.87a153.4,153.4,0,0,0,32.4-10.8C320.11,747.15,297.72,737.07,301.84,749.42Z" transform="translate(-1 44.06)" style="fill:#464d5f"/><path d="M240.37,735.58c.35,3.88,5,7.9,11.61,10.59A145.31,145.31,0,0,1,240.46,733,9,9,0,0,0,240.37,735.58Z" transform="translate(-1 44.06)" style="fill:#464d5f"/><path d="M276.94,767c-.58,3.81,1,8.66,12.3,8.66.78,0,1.61,0,2.48-.07-1.37-.64-2.83-1.38-4.43-2.26C283.66,771.3,280.21,769.17,276.94,767Z" transform="translate(-1 44.06)" style="fill:#464d5f"/><path d="M353.74,716.73a707.81,707.81,0,0,0,78.4,10.84l20.41-34.92,1-26.71c-14.58,12.6-48.18,38.15-91.42,48.81Q357.93,715.79,353.74,716.73Z" transform="translate(-1 44.06)" style="fill:#464d5f"/><path d="M444.18,755.49c-4.23,3.49-9.46,7.56-15.57,11.89,3.78,2.47,7.35,5.13,8.27,7,2.08,4.15,5.19,15.58-14.54,15.58-6.47,0-15.39-1.23-25.16-3.43a216,216,0,0,1-46.76,17.78c-62.57,15.43-120.86,15.43-120.86,15.43s-10.29-2.58-9.43,6.85,25.71,19.72,43.72,12,12.85,6,12,6.86-13.72,7.72-15.43,11.15-4.29,12.85,12,12.85,51.43-9.43,67.72-22.28,35.14-21.43,31.71-11.15-12.85,33.43,12,19.72a130.11,130.11,0,0,0,39.44-34.29l26-44.46.82-21.15A50.82,50.82,0,0,1,444.18,755.49Z" transform="translate(-1 44.06)" style="fill:#464d5f"/><path d="M454,361.74s-27.23,27.75-66.19,37.36a328.36,328.36,0,0,1-36,6.65,583.09,583.09,0,0,0,77.84,6.62,13.33,13.33,0,0,1,1.71-.27c1.19-1.44,1.82-2.32,1.82-2.32l20.28-34.7,4.81-13.88,7.44-7.1.13-3.51C461.66,354.86,454,361.74,454,361.74Z" transform="translate(-1 44.06)" style="fill:#464d5f"/><path d="M493.85,325l4.67,13.49,19.72,33.73A78.74,78.74,0,0,0,542.11,393c15,8.3,9.34-5.71,7.26-11.94s9.34-1,19.2,6.75,31.14,13.49,41,13.49,8.3-5.71,7.26-7.78-8.82-6.23-9.34-6.75-3.63-8.82,7.27-4.15,25.94-1.56,26.46-7.27-5.71-4.15-5.71-4.15a343.94,343.94,0,0,1-73.16-9.34C524.47,352.5,498,325.52,498,325.52s-9.14-8.17-12.66-12.06l.09,3.5Z" transform="translate(-1 44.06)" style="fill:#363c49"/><path d="M361.2,342.88c-15.15-6.49-10.82,5.05-10.1,5.77.27.27,1.95,1.25,4,2.51a13.47,13.47,0,0,0,1.34-.49c9.35-4,6.67,3.11,6.23,3.56a15.77,15.77,0,0,1-1.5.95,10.36,10.36,0,0,1,2.88,2.85c.95,1.9,2.22,6-1,8.57,9.11-.7,25.19-5.33,33-11.48,8.46-6.68,18.26-11.13,16.48-5.79s-6.68,17.36,6.23,10.24a67.39,67.39,0,0,0,20.47-17.8l16.92-28.94,4-11.57,7.83-7.48.13-3.18c-2.29,2.87-11.52,11.1-11.52,11.1s-22.7,23.15-55.19,31.16c-1.22.3-2.43.59-3.64.86C395.61,341.38,375.75,349.11,361.2,342.88Z" transform="translate(-1 44.06)" style="fill:#464d5f"/><path d="M491,273.47l3.82,11L511,312.13a64.44,64.44,0,0,0,19.54,17c12.32,6.8,7.64-4.67,5.94-9.77s7.65-.85,15.72,5.52,25.49,11.05,33.56,11.05,6.8-4.68,5.95-6.37-7.23-5.1-7.65-5.53-3-7.22,6-3.39,21.24-1.28,21.66-5.95-4.67-3.4-4.67-3.4a281.48,281.48,0,0,1-59.9-7.65c-31-7.64-52.67-29.73-52.67-29.73S486.92,267.22,484,264c0,1,0,1.9.07,2.87Z" transform="translate(-1 44.06)" style="fill:#363c49"/><path d="M461.33,249.72s-18.69,19-45.42,25.64A242.94,242.94,0,0,1,364.26,282s-4.4-1.09-4,2.93,11,8.43,18.68,5.13,5.49,2.57,5.13,2.93-5.86,3.3-6.59,4.76-1.84,5.5,5.12,5.5,22-4,28.94-9.52,15-9.16,13.55-4.77-5.49,14.29,5.13,8.43A55.57,55.57,0,0,0,447,282.69L461,258.88l3.3-9.53,5.69-5.43.09-2.47C467.42,244.28,461.33,249.72,461.33,249.72Z" transform="translate(-1 44.06)" style="fill:#464d5f"/><path d="M486.77,218.42l3.36,9.72,14.21,24.3a56.69,56.69,0,0,0,17.2,15c10.85,6,6.73-4.11,5.24-8.6s6.73-.75,13.83,4.86,22.44,9.72,29.54,9.72,6-4.11,5.24-5.61-6.36-4.48-6.73-4.86-2.62-6.36,5.23-3,18.7-1.12,19.07-5.23-4.11-3-4.11-3A248,248,0,0,1,536.12,245c-27.29-6.73-46.36-26.17-46.36-26.17s-4.11-3.67-7.09-6.59q0,1.11.06,2.37Z" transform="translate(-1 44.06)" style="fill:#363c49"/><path d="M465.81,350.59l-.13,3.51L463,424l-.15,3.83L460.21,495l-.79,20.34-2.23,57.6-.61,15.87-1.2,30.91c3.06.4,6.33,2.16,5.8,8-.27,3-2.68,6.06-6.45,8.73l-1.15,29.47-1,26.71-1.41,36.23c9,.49,15.72.68,19.54.75a20.64,20.64,0,0,1-2.18-7.32c-.44-6.14,3.23-11.79,4.32-17.86,2.72-15.12-10.71-29.19-9.64-44.53.82-11.76,9.9-21.18,13.73-32.34,7.25-21.09-5.11-43.54-6.55-65.8a140.46,140.46,0,0,1,.25-16.41c1.22-23.7,1.82-47.42,2.41-71.15l.93-37.1q1.32-53,2.65-105.89c.27-10.75.53-21.54-.67-32.23-1.47-13-5.09-26.41-1.46-39,2.11-7.33,6.64-14.15,6.56-21.77-.09-9.4-6.91-17.44-7.07-26.67-.08-4.24.1-6.43,3.69-8.24l.15-.05-6.26-.25-.09,2.12c.95-1,1.6-1.73,1.51-1.9a16.42,16.42,0,0,1,.91,1.51l-2.49,2.38L470,241.45l-.09,2.47-1.81,46.68-.13,3.18Z" transform="translate(-1 44.06)" style="fill:#464d5f"/><path d="M469.06,868.84c1.06-3.6,2.44-7.15,2.7-10.9.28-4-.74-8-1.35-12-2.4-15.85,1.78-31.87,3-47.87.24-3.16.35-6.43-.66-9.44-.91-2.74-2.69-5.11-3.69-7.81-3.76-10.19,4.3-20.77,6.42-31.4a54.83,54.83,0,0,1-25.36,6.39L449.28,777,444,913l31.43-1.07a10.55,10.55,0,0,1-4.64-2.33C462.3,901.74,466.29,878.24,469.06,868.84Z" transform="translate(-1 44.06)" style="fill:#464d5f"/><path d="M474,211.54c.16,9.23,7,17.27,7.07,26.67.08,7.62-4.45,14.44-6.56,21.77-3.63,12.61,0,26,1.46,39,1.2,10.69.94,21.48.67,32.23q-1.34,52.95-2.65,105.89l-.93,37.1c-.59,23.73-1.19,47.45-2.41,71.15a140.46,140.46,0,0,0-.25,16.41c1.44,22.26,13.8,44.71,6.55,65.8-3.83,11.16-12.91,20.58-13.73,32.34-1.07,15.34,12.36,29.41,9.64,44.53-1.09,6.07-4.76,11.72-4.32,17.86a20.64,20.64,0,0,0,2.18,7.32c2.34,0,3.6,0,3.6,0s12.46-3.12,11.42,8.31c-.36,4-4.32,8.15-10.24,11.43-2.12,10.63-10.18,21.21-6.42,31.4,1,2.7,2.78,5.07,3.69,7.81,1,3,.9,6.28.66,9.44-1.2,16-5.38,32-3,47.87.61,4,1.63,8,1.35,12-.26,3.75-1.64,7.3-2.7,10.9-2.77,9.4-6.76,32.9,1.73,40.76a10.55,10.55,0,0,0,4.64,2.33c7.54,2,19.25-.65,25.69-.87,0,0-2.28-86.33-5.25-198.71q-.25-9.76-.52-19.77c-.53-20-1.08-40.75-1.64-61.83q-.27-10.59-.56-21.29c-.75-28.59-1.52-57.64-2.28-86.39l-.15-5.62c-.55-20.94-1.1-41.68-1.63-61.94-.14-5.1-.27-10.18-.4-15.21-.56-21-1.1-41.41-1.61-60.84,0-1.26-.07-2.5-.1-3.75-.55-20.88-1.07-40.61-1.55-58.75l-.09-3.5c-.45-17.12-.87-32.77-1.23-46.56,0-1-.05-1.92-.07-2.87-.58-22-1-39-1.31-49.46q0-1.26-.06-2.37c-.15-5.79-.23-9-.24-9.2,0,.34-3.57-.06-4.63.25l-.15.05C474.06,205.11,473.88,207.3,474,211.54Z" transform="translate(-1 44.06)" style="fill:#363c49"/><path d="M473,203.22c.09.17-.56.93-1.51,1.9-2.36,2.43-6.66,6.27-6.66,6.27s-15.44,15.74-37.53,21.19A200.62,200.62,0,0,1,384.58,238s-3.64-.91-3.33,2.42,9.08,7,15.43,4.24,4.54,2.12,4.24,2.42-4.84,2.72-5.45,3.93-1.51,4.54,4.24,4.54,18.16-3.33,23.91-7.87,12.41-7.56,11.2-3.93-4.54,11.8,4.24,7A45.76,45.76,0,0,0,453,238.63L464.49,219l2.72-7.87,4.17-4,2.49-2.38A16.42,16.42,0,0,0,473,203.22Z" transform="translate(-1 44.06)" style="fill:#464d5f"/><path d="M193.14,262.82l6.49,18.75L227,328.45a109.32,109.32,0,0,0,33.18,28.85c20.91,11.55,13-7.93,10.09-16.58s13-1.45,26.69,9.37,43.28,18.76,57,18.76c4.67,0,7.49-.92,9.13-2.25,3.19-2.57,1.92-6.67,1-8.57a10.36,10.36,0,0,0-2.88-2.85c-1.8-1.36-4.11-2.82-6.07-4s-3.76-2.24-4-2.51c-.72-.72-5.05-12.26,10.1-5.77,14.55,6.23,34.41-1.5,36.59-9.16a5.22,5.22,0,0,0,.19-.94c.72-7.93-7.93-5.77-7.93-5.77s-49.05,0-101.7-13-89.44-50.49-89.44-50.49-5.37-4.8-10.47-9.64l.12,4.55Z" transform="translate(-1 44.06)" style="fill:#363c49"/><path d="M226.9,414.17a136,136,0,0,0,41.26,35.88c26,14.35,16.14-9.87,12.56-20.63s16.14-1.8,33.18,11.66,53.82,23.32,70.87,23.32,14.35-9.87,12.55-13.46-15.24-10.76-16.14-11.66-6.28-15.24,12.56-7.17,44.85-2.69,45.74-12.56c.67-7.36-5.15-7.73-8.15-7.45a13.33,13.33,0,0,0-1.71.27,583.09,583.09,0,0,1-77.84-6.62c-15.28-2.29-31.81-5.37-48.64-9.52-65.48-16.15-111.23-62.79-111.23-62.79l-1.41-1.27q.25,9.16.49,18.44l1.82,5.25Z" transform="translate(-1 44.06)" style="fill:#363c49"/><path d="M235.72,514.45a138.78,138.78,0,0,0,42.11,36.62C304.38,565.72,294.31,541,290.65,530s16.48-1.83,33.87,11.9a80,80,0,0,0,15.18,9c18.84,8.89,43.86,14.77,57.15,14.77,17.39,0,14.64-10.07,12.81-13.73s-15.56-11-16.48-11.9a7.33,7.33,0,0,1-1-2.36c-1.11-4-1-10.91,12.65-5.44l1.16.47C425.23,541,451.77,530,452.69,520s-10.07-7.33-10.07-7.33-1.46,0-4.17-.06A617.86,617.86,0,0,1,367,506.42c-11.42-1.64-23.59-3.72-36.11-6.34q-7.29-1.53-14.71-3.3l-2.6-.64c-6.52-1.6-12.85-3.51-19-5.64C238,470.83,200,432.06,200,432.06s-3.07-2.74-7.05-6.4l.18,6.81L200.93,455Z" transform="translate(-1 44.06)" style="fill:#363c49"/><path d="M249.05,641.48a143.27,143.27,0,0,0,24.62,18.11c.68.39,1.36.78,2.05,1.16,17.3,9.54,19.94,3.33,18.5-5.58-.87-5.45-3.27-11.9-4.78-16.39l-.12-.36c-2.39-7.15,4.73-6.25,14.84-1.14A131.9,131.9,0,0,1,325.24,651c6.85,5.4,16.64,10.27,27.18,14.26a198.56,198.56,0,0,0,24.78,7.5c3.28.76,6.45,1.4,9.48,1.93A93.47,93.47,0,0,0,402,676.28c18.45,0,15.53-10.68,13.59-14.56a13.84,13.84,0,0,0-3.81-3.78c-5-3.8-13-8.13-13.67-8.84-1-1-6.79-16.51,13.6-7.77a39.41,39.41,0,0,0,13.07,3c11.43.69,23-2.89,30-7.83,3.77-2.67,6.18-5.74,6.45-8.73.53-5.87-2.74-7.63-5.8-8a14.76,14.76,0,0,0-4.88.26s-4,0-11-.26c-10.06-.37-26.4-1.26-46.39-3.44a615,615,0,0,1-79.52-13.78q-3.48-.86-6.9-1.82-7.37-2.08-14.38-4.58c-50.24-17.78-86.48-49.61-96.39-58.93q.33,13,.68,25.81l34.46,58.94A136,136,0,0,0,249.05,641.48Z" transform="translate(-1 44.06)" style="fill:#363c49"/><path d="M436.88,774.35c-.92-1.84-4.49-4.5-8.27-7-4.75-3.12-9.85-6-10.43-6.54-1-1-7.27-17.66,14.54-8.31a41.26,41.26,0,0,0,11.46,3,50.82,50.82,0,0,0,5.92.32,54.83,54.83,0,0,0,25.36-6.39c5.92-3.28,9.88-7.42,10.24-11.43,1-11.43-11.42-8.31-11.42-8.31s-1.26,0-3.6,0c-3.82-.07-10.55-.26-19.54-.75-5.53-.31-11.92-.73-19-1.31a707.81,707.81,0,0,1-78.4-10.84c-8.51-1.69-17.18-3.59-25.93-5.75C252,692.28,199,638.27,199,638.27l-.42-.38q.31,12.12.63,24l.83,2.39,39.47,67.52s.33.46,1,1.28A145.31,145.31,0,0,0,252,746.17a162,162,0,0,0,25,20.81c3.27,2.19,6.72,4.32,10.35,6.33,1.6.88,3.06,1.62,4.43,2.26,10.87,5.07,14.86,2.83,15.6-2.28.92-6.4-3.29-17.3-5.48-23.87-4.12-12.35,18.27-2.27,37.88,13.07l.55.43c13.27,10.48,36.87,19.07,56.91,23.58,9.77,2.2,18.69,3.43,25.16,3.43C442.07,789.93,439,778.5,436.88,774.35Z" transform="translate(-1 44.06)" style="fill:#363c49"/><path d="M151.86,319.2s-36.79,37.51-89.44,50.49A457.23,457.23,0,0,1,1,380.17V424.3c14.86-1.3,40.33-8.74,52.76-18.55,13.71-10.82,29.57-18,26.69-9.37S69.63,424.51,90.55,413a109.43,109.43,0,0,0,33.18-28.86l27.4-46.88,6.5-18.75,1.53-1.47.18-4.64C155.33,316.1,151.86,319.2,151.86,319.2Z" transform="translate(-1 44.06)" style="fill:#464d5f"/><path d="M47.62,458.49c-16.09,4-31.91,7-46.62,9.22v52.47c13.6-4.16,27.25-10,35.86-16.84,17-13.45,36.78-22.42,33.19-11.66s-13.46,35,12.56,20.63a136,136,0,0,0,41.26-35.88L155,423.1l1-24.65C145.07,408.67,103.55,444.7,47.62,458.49Z" transform="translate(-1 44.06)" style="fill:#464d5f"/><path d="M150.75,494.32s-46.69,47.61-113.52,64.09c-12.36,3-24.55,5.53-36.23,7.55v51.52c9.8-3.73,18.87-8.27,25.24-13.3,17.4-13.73,37.54-22.88,33.87-11.9S46.38,628,72.93,613.34A138.78,138.78,0,0,0,115,576.72l34.79-59.51,1.76-5.09.75-19.23Z" transform="translate(-1 44.06)" style="fill:#464d5f"/><path d="M37.17,664.76c-12.31,3-24.47,5.54-36.17,7.61v54.16c9.52-3.78,18.26-8.28,24.52-13.23C44,698.74,65.33,689,61.45,700.68S46.88,738.55,75,723a147.15,147.15,0,0,0,44.67-38.84l27-46.19L148,605.61C130.29,620.88,89.57,651.83,37.17,664.76Z" transform="translate(-1 44.06)" style="fill:#464d5f"/><path d="M48.93,811.68c-4.16,12.47-15.59,40.51,14.54,23.89A157.51,157.51,0,0,0,111.25,794l31.5-53.88L144,707.77c-17.33,15.35-62.34,51-121,65.48-7.39,1.82-14.73,3.46-22,4.94v53.25a74,74,0,0,0,9.49-6.26C30.23,809.6,53.08,799.22,48.93,811.68Z" transform="translate(-1 44.06)" style="fill:#464d5f"/><path d="M148.43,237s-33,33.64-80.21,45.28A425.11,425.11,0,0,1,1,292.76v16.07c.64-.21,1.27-.44,1.89-.71,13.59-5.82,9.71,4.53,9.06,5.18S3.58,318.06,1,320.8v8.44c1.44,1.27,4,2.17,8.36,2.17,12.29,0,38.81-7.12,51.1-16.82S87,298.42,84.39,306.18s-9.7,25.23,9.06,14.88a98,98,0,0,0,29.75-25.87l24.58-42.05,5.82-16.82,9-8.6.17-4.26C157.76,228.64,148.43,237,148.43,237Z" transform="translate(-1 44.06)" style="fill:#464d5f"/><path d="M196.76,192.45l5.66,16.35,23.9,40.88a95.35,95.35,0,0,0,28.92,25.15c18.24,10.06,11.32-6.92,8.81-14.47s11.32-1.25,23.26,8.18S325,284.89,337,284.89s10.06-6.92,8.8-9.43-10.69-7.55-11.32-8.18-4.4-10.69,8.81-5,31.44-1.89,32.07-8.8-6.92-5-6.92-5-42.76,0-88.66-11.32-78-44-78-44-11.08-9.89-15.34-14.61c0,1.41.07,2.82.11,4.24Z" transform="translate(-1 44.06)" style="fill:#363c49"/><path d="M151.65,164.22S124.14,192.27,84.76,202A357.58,357.58,0,0,1,8.7,211.69S2.23,210.07,2.77,216s16.18,12.4,27.51,7.55,8.09,3.77,7.55,4.31-8.63,4.86-9.71,7S25.43,243,35.67,243,68,237,78.29,229s22.12-13.48,20-7-8.09,21,7.55,12.41a81.76,81.76,0,0,0,24.81-21.58l20.5-35.06,4.86-14,9.49-9.06.14-3.85C162.83,154.24,151.65,164.22,151.65,164.22Z" transform="translate(-1 44.06)" style="fill:#464d5f"/><path d="M193.31,130l4.63,13.39,19.56,33.46a78.24,78.24,0,0,0,23.68,20.59c14.93,8.23,9.27-5.67,7.21-11.84s9.27-1,19.05,6.69,30.88,13.38,40.66,13.38,8.24-5.66,7.21-7.72-8.75-6.18-9.27-6.69-3.6-8.75,7.21-4.12,25.74-1.54,26.25-7.21-5.66-4.11-5.66-4.11a341.08,341.08,0,0,1-72.58-9.27c-37.58-9.27-63.83-36-63.83-36s-9.07-8.1-12.56-12c0,1.15.06,2.3.09,3.47Z" transform="translate(-1 44.06)" style="fill:#363c49"/><path d="M157.35,101.23s-22.64,23.08-55,31.07a294.23,294.23,0,0,1-62.59,8s-5.32-1.33-4.88,3.55,13.32,10.21,22.64,6.21,6.66,3.11,6.21,3.55-7.1,4-8,5.78S53.48,166,61.92,166,88.55,161.15,97,154.49s18.2-11.09,16.43-5.77-6.66,17.31,6.21,10.21A67.34,67.34,0,0,0,140,141.18l16.86-28.86,4-11.54,6.9-6.58.11-3C164.74,94.63,157.35,101.23,157.35,101.23Z" transform="translate(-1 44.06)" style="fill:#464d5f"/><path d="M188.18,63.29l4.08,11.78,17.22,29.46a68.69,68.69,0,0,0,20.84,18.12c13.14,7.25,8.16-5,6.34-10.42s8.16-.91,16.77,5.89,27.19,11.78,35.8,11.78,7.25-5,6.34-6.8-7.7-5.43-8.16-5.89-3.17-7.7,6.35-3.62,22.65-1.36,23.11-6.35-5-3.62-5-3.62A300.24,300.24,0,0,1,248,95.46c-33.08-8.15-56.18-31.72-56.18-31.72s-5-4.44-8.59-8c0,.91.05,1.87.07,2.88Z" transform="translate(-1 44.06)" style="fill:#363c49"/><path d="M136.36,905l38.08-1.29a12.83,12.83,0,0,1-5.62-2.83c-10.29-9.53-5.46-38-2.1-49.39,1.29-4.36,3-8.67,3.27-13.21.34-4.88-.9-9.71-1.63-14.54-2.92-19.22,2.16-38.63,3.61-58,.29-3.84.42-7.79-.8-11.44-1.1-3.32-3.26-6.19-4.47-9.47-5.75-15.56,11.25-31.84,8-48.1-1.62-8-8-14.65-8.62-22.8-.53-7.45,3.92-14.29,5.24-21.64,3.3-18.33-13-35.38-11.69-54,1-14.26,12-25.68,16.65-39.19,8.78-25.57-6.2-52.77-7.94-79.74a169.3,169.3,0,0,1,.3-19.89c1.48-28.72,2.2-57.47,2.92-86.22q.55-22.48,1.13-45L175.86,200c.32-13,.65-26.1-.81-39.05-1.78-15.8-6.18-32-1.77-47.29,2.56-8.88,8-17.14,7.95-26.38-.12-11.39-8.38-21.13-8.57-32.33-.09-5.13.12-7.79,4.47-10a.75.75,0,0,1,.18-.07l-7.59-.3-.1,2.58c1.16-1.19,1.94-2.1,1.83-2.31-.37-.74,1.1,1.83,1.1,1.83l-3,2.89-1.62,41.6-.11,3-2.2,56.57-.14,3.85-2.67,68.84-.17,4.26-3.28,84.65-.18,4.64L156,398.45l-1,24.65-2.7,69.79-.75,19.23L148,605.61,146.71,638,144,707.77l-1.26,32.37Z" transform="translate(-1 44.06)" style="fill:#464d5f"/><path d="M172.66,55c.19,11.2,8.45,20.94,8.57,32.33.09,9.24-5.39,17.5-7.95,26.38-4.41,15.28,0,31.49,1.77,47.29,1.46,13,1.13,26,.81,39.05l-3.21,128.32q-.57,22.49-1.13,45c-.72,28.75-1.44,57.5-2.92,86.22a169.3,169.3,0,0,0-.3,19.89c1.74,27,16.72,54.17,7.94,79.74-4.65,13.51-15.65,24.93-16.65,39.19-1.29,18.58,15,35.63,11.69,54-1.32,7.35-5.77,14.19-5.24,21.64.59,8.15,7,14.79,8.62,22.8,3.29,16.26-13.71,32.54-8,48.1,1.21,3.28,3.37,6.15,4.47,9.47,1.22,3.65,1.09,7.6.8,11.44-1.45,19.38-6.53,38.79-3.61,58,.73,4.83,2,9.66,1.63,14.54-.31,4.54-2,8.85-3.27,13.21-3.36,11.38-8.19,39.86,2.1,49.39a12.83,12.83,0,0,0,5.62,2.83c9.14,2.36,23.33-.79,31.13-1.06,0,0-2.76-104.62-6.36-240.8q-.32-11.83-.63-24c-.64-24.28-1.31-49.38-2-74.92q-.34-12.84-.68-25.81c-.92-34.64-1.85-69.85-2.77-104.69l-.18-6.81c-.67-25.36-1.33-50.5-2-75.05q-.24-9.28-.49-18.44c-.67-25.46-1.32-50.18-1.94-73.72l-.12-4.55c-.67-25.3-1.3-49.2-1.88-71.19,0-1.42-.07-2.83-.11-4.24-.55-20.75-1-39.71-1.49-56.43,0-1.17-.06-2.32-.09-3.47-.7-26.68-1.25-47.33-1.58-59.94,0-1,0-2-.07-2.88-.19-7-.29-10.88-.29-11.14,0,.42-4.33-.08-5.62.3a.75.75,0,0,0-.18.07C172.78,47.16,172.57,49.82,172.66,55Z" transform="translate(-1 44.06)" style="fill:#363c49"/><path d="M171.45,44.88c.11.21-.67,1.12-1.83,2.31-2.86,2.94-8.07,7.59-8.07,7.59s-18.71,19.07-45.49,25.68a243.19,243.19,0,0,1-51.72,6.6s-4.4-1.1-4,2.93,11,8.44,18.7,5.14,5.51,2.57,5.14,2.93-5.87,3.3-6.6,4.77-1.84,5.5,5.13,5.5,22-4,29-9.53,15-9.17,13.57-4.77-5.5,14.3,5.14,8.43a55.41,55.41,0,0,0,16.87-14.67L161.18,64l3.3-9.54,5.05-4.81,3-2.89S171.08,44.14,171.45,44.88Z" transform="translate(-1 44.06)" style="fill:#464d5f"/><path d="M1804.35,207.54l7.49,21.62,31.6,54.06a126.14,126.14,0,0,0,38.26,33.27c24.12,13.3,15-9.15,11.64-19.13-2.9-8.71,10.66-3.49,24.66,6.27V267.52l-3.86-.93c-60.72-15-103.13-58.22-103.13-58.22s-6.19-5.53-12.07-11.11c0,1.74.09,3.49.14,5.24Z" transform="translate(-1 44.06)" style="fill:#363c49"/><path d="M1804,314.83l39.3,67.22a156.63,156.63,0,0,0,47.58,41.37c30,16.55,18.61-11.37,14.48-23.78-2.29-6.85,3.62-6.76,12.66-2.72V357.7C1849.62,336.55,1802.94,289,1802.94,289l-1.62-1.46q.27,10.56.56,21.25Z" transform="translate(-1 44.06)" style="fill:#363c49"/><path d="M1813.34,429.07l40.11,68.62A160.13,160.13,0,0,0,1902,539.91c7.8,4.3,12.85,5.65,16,5.08V519.18c-.44-1.27-.85-2.47-1.21-3.55-1-3-.45-4.67,1.21-5.31V468.89c-63.35-23-105.71-66.21-105.71-66.21s-3.54-3.16-8.13-7.38l.21,7.86Z" transform="translate(-1 44.06)" style="fill:#363c49"/><path d="M1848.08,621.59a169.66,169.66,0,0,0,51.5,44.78c9.61,5.3,15.29,6.38,18.42,4.94V648.74c-1-3-2-5.8-2.75-8.12-1.31-3.93-.11-5.74,2.75-5.93V591.57c-57.57-20.55-99.06-57-110.44-67.7q.39,14.94.78,29.75Z" transform="translate(-1 44.06)" style="fill:#363c49"/><path d="M1918,710.47c-64.58-26.9-106.89-70-106.89-70l-.48-.44q.36,14,.73,27.62l1,2.76,45.51,77.85s20.37,28.75,55.1,47.91c1.83,1,3.51,1.87,5.08,2.6Z" transform="translate(-1 44.06)" style="fill:#363c49"/><path d="M1756.76,272.55s-42.42,43.25-103.13,58.22-117.27,15-117.27,15-10-2.5-9.15,6.65,25,19.13,42.42,11.64,12.47,5.82,11.64,6.66-13.3,7.48-15,10.81S1562.14,394,1578,394s49.9-9.15,65.7-21.62,34.1-20.79,30.77-10.81-12.48,32.43,11.64,19.13a126.14,126.14,0,0,0,38.26-33.27l31.6-54.06,7.49-21.62,1.77-1.69.2-5.36C1760.76,269,1756.76,272.55,1756.76,272.55Z" transform="translate(-1 44.06)" style="fill:#464d5f"/><path d="M1636.57,433.16c-75.5,18.62-145.83,18.62-145.83,18.62s-12.41-3.1-11.38,8.27,31,23.79,52.75,14.48,15.51,7.24,14.48,8.28-16.55,9.3-18.62,13.44-5.17,15.52,14.48,15.52,62.06-11.38,81.71-26.9,42.4-25.85,38.27-13.44-15.52,40.34,14.48,23.79a156.82,156.82,0,0,0,47.57-41.37l36-61.5,1.1-28.42C1748.93,375.72,1701.05,417.26,1636.57,433.16Z" transform="translate(-1 44.06)" style="fill:#464d5f"/><path d="M1755.48,474.48s-53.84,54.89-130.9,73.89-148.83,19-148.83,19-12.67-3.17-11.61,8.44,31.66,24.28,53.83,14.78,15.83,7.39,14.78,8.45-16.89,9.5-19,13.72-5.28,15.83,14.78,15.83,63.33-11.61,83.39-27.44,43.28-26.39,39-13.73-15.83,41.17,14.78,24.28a160.13,160.13,0,0,0,48.56-42.22l40.11-68.61,2-5.87.86-22.17Z" transform="translate(-1 44.06)" style="fill:#464d5f"/><path d="M1624.52,671c-81.73,20.15-157.86,20.15-157.86,20.15s-13.43-3.36-12.31,9,33.59,25.75,57.1,15.67,16.79,7.84,15.67,9-17.91,10.07-20.15,14.55-5.6,16.8,15.67,16.8,67.18-12.32,88.45-29.11,45.9-28,41.42-14.56-16.79,43.67,15.68,25.75a169.81,169.81,0,0,0,51.5-44.78l31.14-53.27,1.44-37.32C1731.89,620.39,1684.94,656.09,1624.52,671Z" transform="translate(-1 44.06)" style="fill:#464d5f"/><path d="M1608.13,796.08c-87.44,21.56-168.88,21.56-168.88,21.56s-14.38-3.59-13.18,9.58S1462,854.77,1487.16,844s18,8.39,16.77,9.58-19.17,10.78-21.56,15.58-6,18,16.76,18S1571,873.94,1593.76,856s49.1-29.94,44.31-15.57-18,46.71,16.77,27.55,55.1-47.91,55.1-47.91l36.32-62.13,1.45-37.33C1727.72,738.29,1675.83,779.39,1608.13,796.08Z" transform="translate(-1 44.06)" style="fill:#464d5f"/><path d="M1752.8,177.74s-38,38.78-92.48,52.2-105.16,13.43-105.16,13.43-9-2.24-8.2,6,22.38,17.15,38,10.44,11.18,5.22,10.44,6-11.93,6.72-13.43,9.7-3.73,11.19,10.45,11.19,44.74-8.21,58.91-19.4,30.58-18.64,27.6-9.69-11.19,29.09,10.44,17.15a113,113,0,0,0,34.31-29.83l28.34-48.48,6.71-19.39,10.4-9.92.19-4.91C1763.56,168.13,1752.8,177.74,1752.8,177.74Z" transform="translate(-1 44.06)" style="fill:#464d5f"/><path d="M1808.53,126.41l6.53,18.85,27.55,47.13a110,110,0,0,0,33.35,29c21,11.6,13.06-8,10.16-16.68s13.05-1.45,26.82,9.43a48.53,48.53,0,0,0,5.06,3.45V181c-4.54-.95-9.13-2-13.76-3.13-52.93-13-89.9-50.75-89.9-50.75s-12.78-11.41-17.7-16.85c0,1.63.09,3.26.13,4.9Z" transform="translate(-1 44.06)" style="fill:#363c49"/><path d="M1756.52,93.85s-31.72,32.35-77.13,43.54a412.06,412.06,0,0,1-87.69,11.2s-7.47-1.87-6.85,5,18.66,14.31,31.72,8.71,9.33,4.35,8.71,5-10,5.59-11.19,8.08-3.11,9.33,8.7,9.33,37.32-6.84,49.14-16.17,25.5-15.55,23-8.08-9.33,24.25,8.71,14.3a94.22,94.22,0,0,0,28.61-24.88l23.64-40.43,5.6-16.17,10.94-10.44.17-4.45C1769.41,82.34,1756.52,93.85,1756.52,93.85Z" transform="translate(-1 44.06)" style="fill:#464d5f"/><path d="M1804.55,54.41l5.35,15.43,22.55,38.58a89.9,89.9,0,0,0,27.3,23.74c17.22,9.5,10.69-6.53,8.31-13.65s10.69-1.18,22,7.72c6.6,5.21,17.67,9.6,28,12.35v-35.3c-10.91-1.55-22.88-3.72-35.1-6.73C1839.57,85.87,1809.3,55,1809.3,55s-10.45-9.33-14.48-13.78c0,1.32.07,2.65.11,4Z" transform="translate(-1 44.06)" style="fill:#363c49"/><path d="M1763.09,21.22s-26.1,26.61-63.46,35.83a339.43,339.43,0,0,1-72.17,9.21s-6.14-1.54-5.63,4.09,15.36,11.77,26.1,7.17,7.68,3.58,7.17,4.09-8.19,4.61-9.21,6.66-2.56,7.67,7.16,7.67,30.71-5.63,40.43-13.3,21-12.8,18.94-6.66-7.68,20,7.17,11.77a77.47,77.47,0,0,0,23.54-20.47L1762.58,34l4.6-13.31,8-7.59.13-3.46C1771.61,13.61,1763.09,21.22,1763.09,21.22Z" transform="translate(-1 44.06)" style="fill:#464d5f"/><path d="M1798.64-22.52l4.7,13.58,19.85,34a79.31,79.31,0,0,0,24,20.9c15.15,8.36,9.4-5.75,7.31-12s9.41-1,19.33,6.8,31.35,13.58,41.28,13.58a18.44,18.44,0,0,0,2.85-.2V42.74c-2.3-1.49-4.66-2.81-4.94-3.09-.48-.48-3.16-7.58,4.94-5.06V22.74a339.09,339.09,0,0,1-50.4-8.17C1829.46,5.17,1802.82-22,1802.82-22s-5.74-5.12-9.9-9.21c0,1,0,2.14.08,3.31Z" transform="translate(-1 44.06)" style="fill:#363c49"/><path d="M1773.9,886.3c1.48-5,3.4-10,3.77-15.23.39-5.63-1-11.19-1.89-16.77-3.36-22.15,2.5-44.54,4.17-66.88.33-4.43.49-9-.92-13.2-1.27-3.82-3.76-7.13-5.15-10.91-6.63-17.94,13-36.72,9.17-55.46-1.87-9.24-9.26-16.89-9.94-26.29-.61-8.59,4.52-16.48,6-25,3.81-21.13-15-40.79-13.47-62.21,1.14-16.44,13.83-29.61,19.19-45.19,10.13-29.48-7.15-60.85-9.16-92a197.19,197.19,0,0,1,.35-22.93c1.71-33.11,2.54-66.26,3.37-99.41q.64-25.92,1.3-51.85,1.85-74,3.7-147.95c.38-15,.75-30.1-.93-45-2.06-18.21-7.12-36.91-2-54.52,3-10.24,9.27-19.77,9.16-30.42-.13-13.13-9.65-24.37-9.88-37.27-.1-5.92.15-9,5.16-11.51l.2-.07-8.75-.35-.11,3c1.33-1.37,2.23-2.42,2.11-2.67-.42-.84,1.27,2.12,1.27,2.12l-3.49,3.33-1.86,48-.13,3.46-2.53,65.22-.17,4.45-3.08,79.37-.19,4.91-3.79,97.6-.2,5.36-3.65,93.9-1.1,28.42-3.12,80.48-.86,22.17-4.18,107.79-1.44,37.32-3.12,80.47-1.45,37.33L1738.89,948l43.9-1.49a14.79,14.79,0,0,1-6.47-3.26C1764.45,932.26,1770,899.43,1773.9,886.3Z" transform="translate(-1 44.06)" style="fill:#464d5f"/><path d="M1808.34,553.62q-.39-14.8-.78-29.75c-1.06-39.95-2.13-80.54-3.19-120.71l-.21-7.86c-.77-29.24-1.53-58.23-2.28-86.54q-.29-10.69-.56-21.25c-.78-29.36-1.53-57.86-2.24-85,0-1.75-.1-3.5-.14-5.24-.77-29.18-1.5-56.74-2.17-82.08,0-1.64-.08-3.27-.13-4.9-.63-23.92-1.2-45.79-1.71-65.06,0-1.35-.07-2.68-.11-4-.81-30.77-1.43-54.57-1.82-69.12,0-1.17-.06-2.27-.08-3.31-.21-8.08-.33-12.55-.34-12.85,0,.48-5-.09-6.48.35l-.2.07c-5,2.52-5.26,5.59-5.16,11.51.23,12.9,9.75,24.14,9.88,37.27.11,10.65-6.21,20.18-9.16,30.42-5.08,17.61,0,36.31,2,54.52,1.68,14.93,1.31,30,.93,45q-1.86,74-3.7,148-.66,25.94-1.3,51.85c-.83,33.15-1.66,66.3-3.37,99.41a197.19,197.19,0,0,0-.35,22.93c2,31.1,19.29,62.47,9.16,92-5.36,15.58-18,28.75-19.19,45.19-1.5,21.42,17.28,41.08,13.47,62.21-1.52,8.48-6.65,16.37-6,25,.68,9.4,8.07,17.05,9.94,26.29,3.8,18.74-15.8,37.52-9.17,55.46,1.39,3.78,3.88,7.09,5.15,10.91,1.41,4.21,1.25,8.77.92,13.2-1.67,22.34-7.53,44.73-4.17,66.88.85,5.58,2.28,11.14,1.89,16.77-.37,5.23-2.29,10.2-3.77,15.23-3.87,13.13-9.45,46,2.42,57a14.79,14.79,0,0,0,6.47,3.26c10.54,2.72,26.9-.91,35.9-1.22,0,0-3.19-120.63-7.33-277.66Q1811,654,1810.63,640C1809.89,612,1809.12,583.08,1808.34,553.62Z" transform="translate(-1 44.06)" style="fill:#363c49"/><path d="M1779.35-43.76c.12.25-.78,1.3-2.11,2.67-3.3,3.39-9.31,8.75-9.31,8.75s-21.57,22-52.45,29.61a280.4,280.4,0,0,1-59.63,7.61s-5.08-1.27-4.65,3.39,12.69,9.72,21.57,5.92,6.34,3,5.92,3.38-6.77,3.81-7.61,5.5-2.12,6.34,5.92,6.34,25.37-4.65,33.41-11,17.34-10.58,15.65-5.5-6.35,16.49,5.92,9.73a64.17,64.17,0,0,0,19.45-16.92l16.08-27.49,3.8-11,5.82-5.55,3.49-3.33S1778.93-44.6,1779.35-43.76Z" transform="translate(-1 44.06)" style="fill:#464d5f"/></g></svg>