<svg xmlns="http://www.w3.org/2000/svg" viewBox="0 0 1919.75 253">
    <title>hills_1</title>
    <path d="M-1,944.8s190.61-68.14,366.26-68.14,219.26-3.59,376.23,25.1,321.41,85.17,533.19,79.79,257.88-2.69,406.13-75.3,237.94-7.18,237.94-7.18v225L1.49,1116Z"
          transform="translate(1 -872)" style="fill:#0a4f6e"/>
    <path d="M.74,999.49s259.12-64.56,389.93-62.76,218,16.14,355.05,33.17,482.12,72.62,634.1,57.38,360-51.1,360-51.1,102.16-28.69,174.41-3.59l2.49,1.79,1.25,99.52-1.25,51.1L-.51,1116.93Z"
          transform="translate(1 -872)" style="fill:#166888"/>
    <path d="M2.25,1037.14s189.36-15.24,251.64-26S394.67,996.8,442,997.69s130.81-5.38,234.21,17.93-31.15,9-31.15,9-58.55-1.79,6.23,11.65,94.68-2.69,94.68-2.69,38.62-9,76,2.69,46.1,10.76,16.2,14.35c0,0,190.6-3.59,252.89,13.45s108.38,51.1,108.38,51.1L1,1113.35Z"
          transform="translate(1 -872)" style="fill:#0a4f6e"/>
    <g id="Layer_4" data-name="Layer 4">
        <path d="M1918.75,1030s-168.18-6.28-204.3,17.93c0,0-29.9,6.27-53.57,1.79s-54.82-9-61.05-6.27-3.73,6.27-3.73,6.27a188.35,188.35,0,0,0-64.78,0c-34.89,6.28-356.3,61.86-353.81,61.86s740,5.38,740,5.38Z"
              transform="translate(1 -872)" style="fill:#0a4f6e"/>
    </g>
    <path d="M921.44,1066.36s-3.8-17.16-10.63-24.41c0,0,10.43.54,14.79,8.45l-4.74-12.12s1.7-2.85,5.31,2.88c0,0,.18-13.45-4.75-18.34,0,0,19,11.15,21.25,23.94,0,0,1.51-20.51,21.6-27.85,0,0-13.45,15.6-9.28,24.52,0,0,4.93-13.77,26.73-17.74,0,0-9.74,8.26-11.18,15.94-.19,1,15.93,2.4,18.21-3.47,0,0,4.55,6.9.57,9.41,0,0,10.23-17.12,31.47-18.06,0,0-17.82,7.68-4.54,18,0,0,4.35-17,32-21.09,0,0-21.42,8.17-21,24.82,0,0,6.07,5.06,15.55-1.8,0,0,3.22,7.74-6.07,13.6,0,0,8-11.24,24.46-11.87,0,0-20.67,4.14-17.43,24.33Z"
          transform="translate(1 -872)" style="fill:#0a4f6e"/>
    <path d="M1447,1083.76s-4.62-16.36-10-22.49a10.93,10.93,0,0,1,10.77,6.13l-4.62-11.24s.77-3.07,3.85,2c0,0-1.54-13.29-5.38-17.38,0,0,13.84,8.18,16.92,20.45,0,0-1.54-20.45,10.77-30.67,0,0-6.93,17.38-3.08,25.56a29.5,29.5,0,0,1,15.39-21.47s-5.39,9.59-5.39,17.38c0,1,10.77,0,11.54-6.14,0,0,3.85,6.14,1.54,9.2,0,0,4.61-18.4,18.46-22.49,0,0-10.77,10.22-.77,18.4a31.47,31.47,0,0,1,18.46-25.56s-13.08,11.25-10.77,27.61c0,0,4.62,4.09,10-4.09a15,15,0,0,1-2.31,14.31S1526.23,1051,1537,1048c0,0-13.08,7.15-8.46,26.58Z"
          transform="translate(1 -872)" style="fill:#0a4f6e"/>
    <path d="M1731.7,1071.21s-9.09-16.36-19.7-22.49c0,0,13.64-1,21.22,6.13l-9.1-11.25s1.52-3.06,7.58,2.05c0,0-3-13.29-10.61-17.38,0,0,27.28,8.18,33.34,20.45,0,0-3-20.45,21.22-30.67,0,0-13.64,17.38-6.07,25.55,0,0,3-14.31,30.31-21.47,0,0-10.61,9.6-10.61,17.38,0,1,21.22,0,22.74-6.13,0,0,7.57,6.13,3,9.2,0,0,9.09-18.4,36.37-22.49,0,0-21.22,10.22-1.52,18.4,0,0,1.52-17.38,36.37-25.56,0,0-25.76,11.25-21.22,27.61,0,0,9.1,4.09,19.7-4.09,0,0,6.07,7.15-4.54,14.31,0,0,7.57-12.27,28.79-15.33,0,0-25.76,7.15-16.67,26.58Z"
          transform="translate(1 -872)" style="fill:#0a4f6e"/>
    <path d="M1149.52,1115.75s-8-16.59-17.71-23c0,0,12.84-.67,19.7,6.69l-8.14-11.48s1.53-3,7,2.24c0,0-2.38-13.36-9.35-17.65,0,0,25.32,8.89,30.58,21.31,0,0-2.13-20.52,21-30.1,0,0-13.41,17-6.58,25.39,0,0,3.34-14.23,29.2-20.66,0,0-10.29,9.31-10.56,17.09,0,1,19.91.56,21.54-5.54,0,0,6.9,6.33,2.53,9.28,0,0,9.17-18.15,34.92-21.53,0,0-20.27,9.67-2.06,18.36,0,0,2-17.33,35-24.6,0,0-24.57,10.57-20.87,27,0,0,8.39,4.32,18.63-3.57,0,0,5.44,7.31-4.76,14.18,0,0,7.54-12.06,27.56-14.57,0,0-24.43,6.48-16.57,26.13Z"
          transform="translate(1 -872)" style="fill:#0a4f6e"/>
    <g id="Layer_8" data-name="Layer 8">
        <path d="M93,1050.59s-4.62-16.36-10-22.49a10.91,10.91,0,0,1,10.77,6.13L89.15,1023s.77-3.06,3.85,2c0,0-1.54-13.29-5.38-17.38,0,0,13.84,8.18,16.92,20.45,0,0-1.54-20.45,10.77-30.68,0,0-6.93,17.38-3.08,25.56a29.52,29.52,0,0,1,15.39-21.47s-5.39,9.6-5.39,17.38c0,1,10.77,0,11.54-6.13,0,0,3.85,6.13,1.54,9.2,0,0,4.61-18.4,18.46-22.49,0,0-10.77,10.22-.77,18.4a31.47,31.47,0,0,1,18.46-25.56s-13.08,11.25-10.77,27.61c0,0,4.62,4.09,10-4.09a15,15,0,0,1-2.31,14.31s3.85-12.27,14.62-15.34c0,0-13.08,7.16-8.46,26.59Z"
              transform="translate(1 -872)" style="fill:#0a4f6e"/>
        <path d="M402.52,1013.05S396.1,996.83,386.88,990c0,0,13.05.54,19.26,8L399,986.53s1.85-2.69,6.9,2.74c0,0-1.09-12.71-7.72-17.34,0,0,24.73,10.59,28.82,22.68,0,0-.13-19.37,24.19-26.23,0,0-15.24,14.68-9.16,23.13,0,0,4.78-13,31.56-16.67,0,0-11.33,7.77-12.37,15-.13,1,20.08,2.33,22.34-3.22,0,0,6.35,6.54,1.63,8.9,0,0,11.07-16.14,37.44-17,0,0-21.45,7.2-3.9,17,0,0,3.76-16,37.84-19.81,0,0-25.88,7.65-23.77,23.37,0,0,8.06,4.81,19.19-1.65,0,0,4.78,7.33-6.22,12.83,0,0,8.82-10.59,29.31-11.13,0,0-25.34,3.85-19.34,22.92Z"
              transform="translate(1 -872)" style="fill:#0a4f6e"/>
    </g>
</svg>
