<svg id="Layer_13" data-name="Layer 13" xmlns="http://www.w3.org/2000/svg" viewBox="0 0 1918.44 631.56"><title>jungle_back_1</title><g id="back_trees" data-name="back trees"><path d="M551.41,587.67c-5,.17-10,.15-15,.06a165.51,165.51,0,0,1,13.14,15.86,119.57,119.57,0,0,1,11.59,19.76c1,2.17,2.3,4.53,3.45,7,.69-7.17,2.94-14.75,4.76-20.42a120.11,120.11,0,0,1,2.47-12c1-4,2.16-8.14,3.57-12.16C567.43,586.66,559.43,587.39,551.41,587.67Z" transform="translate(0.22 -448.65)" style="fill:none"/><path d="M544.73,613.69a287.08,287.08,0,0,0-19.82-26.3c-6.38-.24-12.75-.52-19.13-.68-5.48-.15-11-.19-16.44-.2-7.08,6.54-14.23,13-20.65,20.32a142.62,142.62,0,0,0-13,17.49c-1.12,2-2.21,4-3.24,6-1.59,3.12-2.87,6.52-4.23,9.86,8.45-.47,16.72-4.27,21.74-11.22-4.41-5.6-1.45-14.49,4.26-18.71s13.12-5,20.15-5.69c5.63,12.56,12.25,26.16,24.72,31.72s27.87,1.39,41.08,4.22a11.2,11.2,0,0,1-.15-2C554.94,630.19,550,621.82,544.73,613.69Z" transform="translate(0.22 -448.65)" style="fill:none"/><path d="M648.48,637.29c0-10.88,5.44-20.91,12.82-29-3.28-11.54-6.1-23.14-10.13-34.53-3.24-9.13-6.79-18.05-10.85-26.77a46.91,46.91,0,0,1-4.22,4,43.33,43.33,0,0,1-9.11,5.12l-26.23,12.06c7,3.43,15.31,1.84,23.09,1.19s16.85.36,21.28,6.87L596,583l-7.18,1c-.8,1.27-1.58,2.56-2.28,3.87a127.73,127.73,0,0,0-8.54,19.6,125.69,125.69,0,0,0-5.16,20.6c-.93,5.91-.32,11.83-.88,17.67a36.14,36.14,0,0,0,7.93,4.67c4.19,1.53,9.85.59,11.58-3.56-9.69-5.81-6.79-22.19,2.54-28.59s21.53-5.79,32.77-4.93a30.14,30.14,0,0,0,6.74,31.28,29.25,29.25,0,0,0,30.72,6.29,9.47,9.47,0,0,1,1.61-.76A30.82,30.82,0,0,1,648.48,637.29Z" transform="translate(0.22 -448.65)" style="fill:none"/><path d="M637.43,526.53a13.14,13.14,0,0,0,2.62-.55l10.7-3.08a2.19,2.19,0,0,0,1.48-.93c.48-1-.69-2-1.7-2.42-6.79-3-14.64-3.34-20.92-7.3,2.17,3.88,1.35,9,3.49,12.84A6.23,6.23,0,0,0,637.43,526.53Z" transform="translate(0.22 -448.65)" style="fill:none"/><path d="M607.81,520.78a9.86,9.86,0,0,0,2.71,3.22,10.19,10.19,0,0,0,5,1.25l7.83.58.19.74a46.62,46.62,0,0,1-.27-5.31c-.5-6.26-5.25-11.2-9.72-15.57a8.92,8.92,0,0,0-2.63-2,8.67,8.67,0,0,0-4.5-.21c-1.77.25-3.79.68-4.67,2.26s-.11,3.77.76,5.49Q604.94,516.13,607.81,520.78Z" transform="translate(0.22 -448.65)" style="fill:none"/><path d="M633.29,525.45c-.07-.12-.13-.24-.19-.36a4.51,4.51,0,0,1-.51-.47Z" transform="translate(0.22 -448.65)" style="fill:none"/><path d="M474.45,587.64l1.07-1.11c-8.09,0-16.17.07-24.25,0-.37,1-.72,1.94-1,2.94-1.78,5.72-3.16,11.57-4.42,17.42a278.46,278.46,0,0,0-5,32.86l1,.17a126.72,126.72,0,0,1,5.49-12.6,147.77,147.77,0,0,1,12.1-21A143.74,143.74,0,0,1,474.45,587.64Z" transform="translate(0.22 -448.65)" style="fill:none"/><path d="M656.09,539.56c-3.14.23-6.36.58-9.18,2a15.34,15.34,0,0,0-2,1.25c9.34,19.86,16.78,41.73,18.17,63.56,1.13-1.14,2.28-2.25,3.46-3.31.89-.79,1.83-1.57,2.81-2.32-.63-4,0-8.32.46-12.58.94-8,1.92-16.07,3.19-24a160.84,160.84,0,0,1,5.62-24.19A132.33,132.33,0,0,0,656.09,539.56Z" transform="translate(0.22 -448.65)" style="fill:none"/><path d="M601.21,549.89c.31,2.47.95,5.38,3.24,6.27s4.7-.84,6.56-2.46l14.37-12.54a26.63,26.63,0,0,1,5.5-4l-2.58-1-5.37-3.34a4.72,4.72,0,0,0-2.28-.92c-1.17,0-2.17.78-3.13,1.44-4.28,3-9.74,3.67-14.19,6.38a5.65,5.65,0,0,0-2.54,2.62,6.94,6.94,0,0,0-.12,3.24Z" transform="translate(0.22 -448.65)" style="fill:none"/><path d="M1052.75,582.86c-2.87-11.77-5.94-23.71-4.62-35.76a213.56,213.56,0,0,1-33.71-4.06s0,0,0,0a32.79,32.79,0,0,1-5.6,6.79,31,31,0,0,0-4.81,5.65,9.93,9.93,0,0,1,.49,5.92,8.15,8.15,0,0,1-2.65,4.16c-.22,2.8-.7,5.63-.8,8.35-.25,6.87-1.4,13.64-2.12,20.49-.63,6-.74,12.64-1.32,19.15a46.12,46.12,0,0,0,17.34-14.69,18.54,18.54,0,0,1,13.13,14.9c.51,3.45.2,7.44,2.68,9.87,1.9,1.87,4.82,2.09,7.48,2.12a111.31,111.31,0,0,0,14.6-.86c0-.65.08-1.3.14-2a85,85,0,0,1,2.17-20A79,79,0,0,0,1052.75,582.86Z" transform="translate(0.22 -448.65)" style="fill:none"/><path d="M962.89,555c-.83-2.39-1.27-5.17-3.28-6.69-3.89-2.94-9.17,1.64-10.92,6.23-.55,1.45-1,3-1.57,4.53-.15.79-.28,1.58-.39,2.38a38.51,38.51,0,0,0,.91,16.27,22,22,0,0,0,.89,2.4l.29,0c10.33.68,22.65,1.73,30.64,9.16A43.55,43.55,0,0,1,990.4,606.1c.43-4.92,1-9.76,1.33-14.25.48-6.82.88-13.47,2-20.2.16-.91.27-1.83.38-2.76a25.08,25.08,0,0,1-2.79.36C980,570.11,966.66,565.9,962.89,555Z" transform="translate(0.22 -448.65)" style="fill:none"/><path d="M1004.42,548.4c2.72-2.45,6.24-2.95,8.72-5.62q-7.26-1.5-14.41-3.52c-1.16,4.07,1.17,8,3.26,11.91A16.14,16.14,0,0,1,1004.42,548.4Z" transform="translate(0.22 -448.65)" style="fill:none"/><path d="M1066.79,546.17a50.59,50.59,0,0,1-13,1.1h-.37a91.21,91.21,0,0,0,2.15,19.6c1.57,6.65,4.07,12.89,4.65,19.73a104.4,104.4,0,0,1-.94,23,96.26,96.26,0,0,1-2.8,14.78c2.43-.38,4.86-.84,7.27-1.38.77-2.69,1.67-5.34,2.46-7.87,2.84-9.1,5.83-18.16,9.37-27,.13-.32.27-.65.4-1-2.65-6.86-3.5-14.87-5.75-21.77C1068.21,559.25,1066.13,552.65,1066.79,546.17Z" transform="translate(0.22 -448.65)" style="fill:none"/><path d="M1247.32,601.77c0-.11,0-.22,0-.33,0-4.48.1-9,.33-13.45-1.74,0-3.48-.15-5.21-.35,1.42,3.44,2.63,6.89,3.68,10.1C1246.54,599.08,1246.94,600.42,1247.32,601.77Z" transform="translate(0.22 -448.65)" style="fill:none"/><path d="M712.19,573.31c-.82,1.25-1.63,2.51-2.45,3.75-4,6-8,13.48-12.76,19.91,10.85,8.79,5,28.22,10.11,42.07,10.72-5.89,7.71-21.82,5.47-34A95.44,95.44,0,0,1,712.19,573.31Z" transform="translate(0.22 -448.65)" style="fill:none"/><path d="M1095.81,551.69a91.77,91.77,0,0,1,6.43-7.39c-1.71-.63-3.36-1.5-5-2.19a26.7,26.7,0,0,0-18.29-.65c-.55.17-1.07.39-1.6.6,5.49,1,11.27,5.08,15.63,7.76C1093.91,550.42,1094.86,551.05,1095.81,551.69Z" transform="translate(0.22 -448.65)" style="fill:none"/><path d="M1181.31,528.1a12.83,12.83,0,0,1,1.48-.75c4.13-1.71,9.7-2.05,11.34-6.24,1.47-3.77-1.46-7.48-3.73-11a5.84,5.84,0,0,1-1,2.21c-1.06,1.38-2.82,2-4.47,2.46l-18.28,5.59,12.24,6.05A7,7,0,0,1,1181.31,528.1Z" transform="translate(0.22 -448.65)" style="fill:none"/><path d="M177.29,519.45a12.38,12.38,0,0,0,2.61-.55l10.71-3.08a2.11,2.11,0,0,0,1.47-.93c.48-1-.69-2-1.7-2.42-6.79-3-14.64-3.34-20.92-7.3,2.18,3.89,1.35,9,3.49,12.85A6.29,6.29,0,0,0,177.29,519.45Z" transform="translate(0.22 -448.65)" style="fill:none"/><path d="M1092.75,555.79c-1.29-1-2.59-2-3.89-2.93-4.38-3.22-10.33-5.67-14-9.8-1.41.62-2.82,1.25-4.24,1.82a168.39,168.39,0,0,0,5.93,19.94,115.29,115.29,0,0,1,3.51,12.94A143.74,143.74,0,0,1,1092.75,555.79Z" transform="translate(0.22 -448.65)" style="fill:none"/><path d="M173.14,518.37,173,518a5.79,5.79,0,0,1-.51-.48Z" transform="translate(0.22 -448.65)" style="fill:none"/><path d="M147.66,513.71a10,10,0,0,0,2.71,3.21,10.2,10.2,0,0,0,5,1.25l7.82.58.19.74a49,49,0,0,1-.27-5.31c-.5-6.26-5.25-11.2-9.71-15.56a9,9,0,0,0-2.64-2,8.63,8.63,0,0,0-4.49-.21c-1.78.25-3.79.68-4.68,2.26s-.11,3.78.76,5.5Q144.79,509,147.66,513.71Z" transform="translate(0.22 -448.65)" style="fill:none"/><path d="M141.07,542.81c.31,2.47.94,5.38,3.23,6.27s4.7-.84,6.56-2.46l14.38-12.54a26.16,26.16,0,0,1,5.49-4l-2.57-1-5.38-3.34a4.78,4.78,0,0,0-2.28-.92c-1.16,0-2.16.78-3.13,1.44-4.28,3-9.74,3.67-14.19,6.38a5.68,5.68,0,0,0-2.53,2.62,6.69,6.69,0,0,0-.12,3.24Z" transform="translate(0.22 -448.65)" style="fill:none"/><path d="M937.86,567.08a8.47,8.47,0,0,1-2.74-2.75,14.52,14.52,0,0,0-12.35-5.2c0,.38,0,.76.05,1.17.1,1.56.22,3.15.42,4.72a65.23,65.23,0,0,0,4.82,9.1,11.64,11.64,0,0,0,5.9,4.71c1.67.32,3.41.59,5.07,1,1,.08,2.08.12,3.15.14a45.1,45.1,0,0,1-1.95-12.74A3.84,3.84,0,0,1,937.86,567.08Z" transform="translate(0.22 -448.65)" style="fill:none"/><path d="M924.82,546.27c1.51-2.61,2.74-5.44,4.75-7.69a20.05,20.05,0,0,0,2.14-2.47c1.62-2.53,1.15-5.83.62-8.8a1.77,1.77,0,0,0-.56-1.2,1.72,1.72,0,0,0-1.32-.07l-3.7.8a5,5,0,0,0-1.38.44,5.13,5.13,0,0,0-1.82,2.23,34.29,34.29,0,0,0-3.62,8.51,11.65,11.65,0,0,0,1.13,8.75,1.43,1.43,0,0,0,1.49,1.54C923.59,548.18,924.29,547.19,924.82,546.27Z" transform="translate(0.22 -448.65)" style="fill:none"/><path d="M350.76,520l-.18.61c.12-.08.25-.14.37-.21A3.71,3.71,0,0,1,350.76,520Z" transform="translate(0.22 -448.65)" style="fill:none"/><path d="M356.6,523a22.71,22.71,0,0,1,7.26,2.8,5.52,5.52,0,0,0,2.56,1,5,5,0,0,0,2.63-1,17,17,0,0,0,3.6-2.58c2.6-2.66,3.23-6.71,3-10.44a1.11,1.11,0,0,0-.21-.72,1,1,0,0,0-.55-.27c-2.43-.51-4.64,1.33-6.67,2.78a25.79,25.79,0,0,1-11.87,4.59c-1.84.22-3.79.28-5.41,1.15C351.88,522.23,354.48,522.62,356.6,523Z" transform="translate(0.22 -448.65)" style="fill:none"/><path d="M428.78,605.26c-1.5-7.85-6.21-14-10.41-20.46A381.66,381.66,0,0,1,360.83,575a83.75,83.75,0,0,1,44.55-4.06c-7.45-11-22.48-13.06-33.68-20-3.71,6.79-7.16,13.73-10.21,20.85q-4.35,10.18-7.94,20.67c-1.82,5.27-3.08,11.25-6.18,15.91a1.21,1.21,0,0,1-.22.23,47.85,47.85,0,0,0,18.9,5.39c-4.89-9.56-8.09-24.41,1.78-28.45,7.32,16.8,32.26,15.64,45,28.66,5,5.11,7.78,12.08,12.6,17.38a25.26,25.26,0,0,0,6.33,5c-.94-3.1-.84-7.06-1.17-9.7C429.75,619.67,430.13,612.34,428.78,605.26Z" transform="translate(0.22 -448.65)" style="fill:none"/><path d="M357.09,570.81c3.24-7.78,6.69-15.46,10.42-23a26.32,26.32,0,0,1-2.17-2.06c-1.73-1.82-3.25-4-5.43-5.17-2.5-1.41-5.5-1.45-8.35-1.45H330.51q.45,1.67.9,3.3,2.94,10.68,5,21.6,2,10.65,2.93,21.45c.49,5.43,1.93,12.49-.35,17.67a49.21,49.21,0,0,0,6.61,4.48c-.18-6.31,2.57-12.8,4.6-18.68Q353.35,579.77,357.09,570.81Z" transform="translate(0.22 -448.65)" style="fill:none"/><path d="M430.22,585.71l-1.48-.1q1.15,2,2.19,4.11C430.69,588.38,430.45,587.05,430.22,585.71Z" transform="translate(0.22 -448.65)" style="fill:none"/><path d="M91.26,580.59c-5,.17-10,.16-15,.06a168.37,168.37,0,0,1,13.15,15.86A119.52,119.52,0,0,1,101,616.27c.32.69.67,1.4,1,2.12a18.13,18.13,0,0,0,3.27-.93,126.46,126.46,0,0,1,3.91-14.63,120.29,120.29,0,0,1,2.48-12c1-4,2.16-8.14,3.57-12.16C107.28,579.58,99.29,580.31,91.26,580.59Z" transform="translate(0.22 -448.65)" style="fill:none"/><path d="M1718.36,553.56a22.86,22.86,0,0,1,7.27,2.8,5.59,5.59,0,0,0,2.55,1,5,5,0,0,0,2.63-1,16.71,16.71,0,0,0,3.6-2.59c2.6-2.65,3.23-6.71,3-10.43a1.25,1.25,0,0,0-.21-.72,1,1,0,0,0-.56-.27c-2.43-.51-4.64,1.33-6.67,2.77a25.8,25.8,0,0,1-11.87,4.6c-1.84.22-3.79.28-5.4,1.15C1713.64,552.78,1716.24,553.16,1718.36,553.56Z" transform="translate(0.22 -448.65)" style="fill:none"/><path d="M1867.54,617.25c-5.48-.14-11-.18-16.44-.2-7.08,6.55-14.23,13-20.64,20.33-.7.8-1.36,1.61-2,2.42a68.18,68.18,0,0,1,2.86,9.51,16.65,16.65,0,0,0,9.88-4.28c2.88-2.7,4.53-6.45,6.82-9.67,10.64-15,34.26-15.43,48.85-4.4l.6.48c-3.48-4.59-7.09-9.06-10.76-13.5C1880.3,617.7,1873.92,617.42,1867.54,617.25Z" transform="translate(0.22 -448.65)" style="fill:none"/><path d="M1729.27,578.36c-.75-.65-1.48-1.33-2.17-2.06-1.73-1.83-3.25-3.95-5.43-5.18-2.5-1.4-5.5-1.44-8.35-1.44h-21q.45,1.67.9,3.3,3,10.68,5,21.6,2,10.65,2.93,21.45c.48,5.34,1.88,12.26-.25,17.42a14.29,14.29,0,0,0,3.21-.82,24.23,24.23,0,0,0,4.34-2.33c1-3.7,2.38-7.36,3.57-10.81q3.16-9.18,6.91-18.14Q1723.71,589.7,1729.27,578.36Z" transform="translate(0.22 -448.65)" style="fill:none"/><path d="M1532.83,566.7c-.69.73-1.39,1.45-2.11,2.17-6,6-11.78,11.91-17.32,18.49-3,3.5-5.58,7.4-8.38,11.13a18,18,0,0,1,2.57,3.37c3.87,6.59,4.81,14.55,8.28,21.35s11.44,12.6,18.31,9.4,7.71-12.86,7.4-20.65c2.53-3.22,6.17-3.83,9.93-2.85q-4.14-10.65-8.76-21.1Q1538,577.26,1532.83,566.7Z" transform="translate(0.22 -448.65)" style="fill:none"/><path d="M1692.6,593.58c-.26-1.38-.55-2.74-.83-4.11a16.25,16.25,0,0,1-1,3.33.25.25,0,0,1-.44,0c-2.07-3.73-2.22-8.29-2.86-12.48-.55-3.58-1.26-7.13-2.1-10.64h-21.2c-6.26,0-12.62,0-18.68-1.45-1.36,0-2.71,0-4-.08a197.52,197.52,0,0,0,1.21,35.14,167.72,167.72,0,0,0,6.24,28.1c.88,2.82,1.87,5.6,2.88,8.38a7.92,7.92,0,0,0,.59-.69c2.06-2.82,2.68-6.53,4.77-9.33,5-6.74,15.37-5.22,23-1.92,5.9,2.55,12.22,5.78,18.36,5.78-2.51-5-2-12.21-2.56-17.57C1695.17,608.51,1694,601,1692.6,593.58Z" transform="translate(0.22 -448.65)" style="fill:none"/><path d="M1767.14,601.45c-7.44-11-22.48-13.06-33.67-20.05-3.72,6.79-7.17,13.73-10.22,20.85-2.9,6.79-5.53,13.68-7.94,20.66-.48,1.42-.93,2.88-1.38,4.36,14.58-5.51,33.09,10.25,46,1,3.19-2.3,5.31-5.8,8-8.69a26.09,26.09,0,0,1,6.12-4.88,380.36,380.36,0,0,1-51.41-9.22A83.86,83.86,0,0,1,1767.14,601.45Z" transform="translate(0.22 -448.65)" style="fill:none"/><path d="M1565.74,549.11c.39-.93.76-1.9,1.14-2.87l-.63.11c-3.27.55-6.71,1.08-9.83-.05l-.11,0a78.58,78.58,0,0,0-11,7.76c-1.61,1.39-3.12,2.85-4.58,4.34,4.62,8.06,8.82,16.39,12.81,24.77.21.44.41.87.61,1.31a193.26,193.26,0,0,1,6.23-21.27C1561.94,558.41,1563.81,553.73,1565.74,549.11Z" transform="translate(0.22 -448.65)" style="fill:none"/><path d="M1571.87,545.41c-.66,1.82-1.57,3.6-2.27,5.35-1.79,4.48-3.43,9-5.09,13.56-3,8.23-5.13,16.89-8,25.15,6.48,14.2,12.23,28.72,17.42,43.45.43.5.88,1,1.34,1.43a159.24,159.24,0,0,1,.28-16.39c.38-9.23,1.17-18.45,2.36-27.61,2.07-15.9,5-32.16,9.84-47.58Z" transform="translate(0.22 -448.65)" style="fill:none"/><path d="M1637,567.79c-2.93-.25-5.85-.55-8.76-.94-3.36-.45-6.81-1-9.65-2.9s-4.91-5.35-4.15-8.69c1.22-5.38,8-6.71,13.36-7.68,3.26-.59,7.33-2.74,6.52-6-.45-1.84-2.36-2.89-4.15-3.45-3.64-1.16-7.54-1.27-11.19-2.37a3.85,3.85,0,0,1-2.69-1.9c-.65-1.61.83-3.31,2.37-4s3.37-1.1,4.52-2.39a39,39,0,0,0-26.46-1.59c-.8,2.08,2.29,3.23,3.89,4.76,2.3,2.18,1.41,6.32-.95,8.42a12.11,12.11,0,0,1-5.17,2.5,246.52,246.52,0,0,0-10.08,46c-1.05,9.18-1.45,18.61-1.93,27.86-.38,7.36,1,15.82-1,23a12.73,12.73,0,0,0,3.8.68c8.93.16,14.69-9,20.2-16.16s16.53-13.08,22.61-6.45c-1.75,7.61-1.07,16.36,4.12,22.15a14.92,14.92,0,0,0,14.63,4.26c-5.41-12.16-8-26.43-9.55-38.49A141.19,141.19,0,0,1,1637,567.79Z" transform="translate(0.22 -448.65)" style="fill:none"/><path d="M1837.28,617.08c-8.08,0-16.17.07-24.25-.05l-.39,1.06a35,35,0,0,1,4.23,3.55,47.43,47.43,0,0,1,7.81,10.23,136.06,136.06,0,0,1,11.54-13.69Z" transform="translate(0.22 -448.65)" style="fill:none"/><path d="M1916.56,662.61h1.3l-2.58-4.27C1915.75,659.75,1916.18,661.17,1916.56,662.61Z" transform="translate(0.22 -448.65)" style="fill:none"/><path d="M1245.46,624.82a130.26,130.26,0,0,0-3.32-19,94.68,94.68,0,0,0-7.21-19c-.14-.27-.29-.52-.43-.78-2.83-.79-5.63-1.7-8.45-2.51-15.92-4.53-32.61-5.35-49.13-6.14,3.9-5.78,11.43-7.84,18.34-7.88s13.8,1.5,20.7,1c-6.63-8.36-14.54-17.42-25.12-18-2.86-.17-5.91.28-8.7-.14-1.1,2.42-2.41,4.78-3.54,7.23-2.89,6.27-5.82,12.51-8.29,19-2.41,6.26-4.51,12.65-6.4,19.09-1.38,4.68-2.37,9.69-4.34,14.18.46.43.91.86,1.4,1.26,5.58,4.48,15.53,4.91,18.4-1.69-6.87-7.54-7.8-20-2.14-28.47l60.9,45.3a102.85,102.85,0,0,0,10.17,6.92v-1C1245.3,631.81,1245.84,628.37,1245.46,624.82Z" transform="translate(0.22 -448.65)" style="fill:none"/><path d="M1712.52,550.53l-.18.61c.12-.08.25-.14.38-.21A2.49,2.49,0,0,1,1712.52,550.53Z" transform="translate(0.22 -448.65)" style="fill:none"/><path d="M1546.18,548.65c1.94-1.56,4-3.19,6.17-4.7a37,37,0,0,0-4.14-2.84c-4.63-2.5-10.18-2.15-15.43-1.93-1.22.05-2.44.08-3.67.11,3.36,5.07,6.5,10.39,9.54,15.51C1541.18,552.67,1543.73,550.61,1546.18,548.65Z" transform="translate(0.22 -448.65)" style="fill:none"/><path d="M1173.32,559.14c1.31-2.92,2.56-6.07,4.15-8.95a13.28,13.28,0,0,1-2.74-6.07,96.1,96.1,0,0,0-33.28-5.19c2.16,4.08,3.21,9.08,4.35,13.31a190.71,190.71,0,0,1,4.25,20.06c1.43,9.14,3.54,20.61,2.39,30.68,1.48,2.06,2.94,4.13,4.55,6,.81-11,6-22.85,9.62-32.79C1168.7,570.48,1170.82,564.73,1173.32,559.14Z" transform="translate(0.22 -448.65)" style="fill:none"/><path d="M1527.47,565.13c1-1,2-2,3-3.07l-.73-1.46c-.69-1.37-1.42-2.73-2.16-4.1a116,116,0,0,1-6.45-10.76,28.75,28.75,0,0,1-2.53-5.5c-.08-.32-.17-.63-.25-1-1.75,0-3.5-.11-5.25-.2-.7,0-1.42-.08-2.13-.16a5.07,5.07,0,0,1-1.17,1.48c-1.85,1.59-4.55,1.51-7,1.34l-5-.35c-2,9.21-4.68,18.33-6.35,27.58-1.38,7.66-2.63,15.37-3.7,23.08-.27,2-.45,4.12-.66,6.26a11.17,11.17,0,0,0,1.47-3.48c4.35-3.08,10-1.62,14.36,1.81,2.61-4.28,5.78-8.33,8.59-12.15A212,212,0,0,1,1527.47,565.13Z" transform="translate(0.22 -448.65)" style="fill:none"/><path d="M1445.08,524.72a29.74,29.74,0,0,0,20.21-3.32,1.25,1.25,0,0,0,.65-.67c.11-.43-.24-.83-.6-1.08-2.68-1.88-6.4-.61-9.53-1.54a19.25,19.25,0,0,1-4.64-2.58,25.86,25.86,0,0,0-10.34-3.79,76.28,76.28,0,0,1,3.64,12.94Z" transform="translate(0.22 -448.65)" style="fill:none"/><path d="M1106.2,567.36c-1.79-1.76-3.66-3.45-5.55-5.1-4.74,10.26-9.34,20.59-13.42,31.09-1.64,4.22-3.25,8-5.23,12.08-2.19,4.5-3,9.34-5.29,13.7l-.08.18a112.21,112.21,0,0,0,13.26-5.67c.72,10.52,14.63,13.45,21.61,21.35q6.91-17.64,13.81-35.28a24.71,24.71,0,0,1,1.93-4.13c-2.21-3.65-4.14-7.59-6.47-11A120.24,120.24,0,0,0,1106.2,567.36Z" transform="translate(0.22 -448.65)" style="fill:none"/><path d="M1141.49,552.19c-1.07-4.25-2.9-8.69-3.48-13.12a95,95,0,0,0-23.09,4.17,44.1,44.1,0,0,1-6.13,1.66q-2.89,6.12-5.77,12.26c2.68,2.23,5.25,4.6,7.72,7a127.64,127.64,0,0,1,14.8,17.59,95.43,95.43,0,0,1,6.45,10c4.69-1.55,10.73.64,14.7,4.29,0-.89,0-1.79,0-2.67a179.72,179.72,0,0,0-1.17-19.27A171.91,171.91,0,0,0,1141.49,552.19Z" transform="translate(0.22 -448.65)" style="fill:none"/><path d="M1119.42,653.8c.2-.56.41-1.13.6-1.7l-1,.37C1119.15,652.92,1119.28,653.36,1119.42,653.8Z" transform="translate(0.22 -448.65)" style="fill:none"/><path d="M1470.77,610.66c.64-.53,1.32-1,2-1.52-1.71-11.13-3.85-21.83-8.77-32.44a277.4,277.4,0,0,1-13.46-33.86c-2.57,2.43-5.12,5.78-8.25,4.58-5.29-2,.09-11.09-3.14-15.79-2.52-3.66-8.12-2.1-12.1-.17-6.23,3-13,6.71-15.27,13.34-1.12,3.32-.89,6.91-.65,10.4q.51,7.32,1,14.63c.17,2.54.32,5.25-.89,7.49-1.48,2.77-4.62,4.11-7.56,5.14-.61.22-1.22.4-1.83.61-4.75,6.76-9.21,13.55-12,21.8s-4,16.82-6.35,25.09c-.29,2.53-.55,5.07-.76,7.61-.18,2.1-.26,4.3-.4,6.5.87.36,1.73.75,2.57,1.2,6.57,3.48,15.29,9.15,20,3.39,1.53-6.89-9.77-12-7.62-18.77.88-2.73,3.71-4.23,6.32-5.35a107.53,107.53,0,0,1,30.63-8,27.69,27.69,0,0,0,9.52,27.56,26.87,26.87,0,0,0,28.73,2.47C1461.12,638.86,1460.13,619.47,1470.77,610.66Z" transform="translate(0.22 -448.65)" style="fill:none"/><path d="M1415.62,522.39c-.17.7-.87,1.36-.57,2a1.3,1.3,0,0,0,.87.61,8.77,8.77,0,0,0,3.31.06l11.44-1.29.23-.19a9.93,9.93,0,0,0-3.61-6.48,29,29,0,0,0-6.45-3.92,3.19,3.19,0,0,0-4,.33,9.47,9.47,0,0,0-2.5,2.08,3.28,3.28,0,0,0-.58,3.09C1414.25,520,1416,521,1415.62,522.39Z" transform="translate(0.22 -448.65)" style="fill:none"/><path d="M1466.67,539.22c-3.93-.27-8.17-.45-11.77.88,4.33,13.65,10.49,26.26,15.89,39.53,3.49,8.57,6,17.79,6,27,2-1.21,4-2.39,5.86-3.71-.07-4.69.67-9.59,1-13.89.61-6.79,1.51-13.48,2.73-20.19,1.65-9.13,3.25-18.75,6.13-27.8Z" transform="translate(0.22 -448.65)" style="fill:none"/><path d="M1350.83,588.31l0,0c1.52,2.83,4.06,5.87,5,9.07,2.25,3,4.67,5.77,6.83,8.8a131.44,131.44,0,0,1,12.2,21.27c1.2,2.62,2.3,5.28,3.35,8q.1-1.25.21-2.43a229.25,229.25,0,0,1,2.92-23.23,127.52,127.52,0,0,1,6.35-23A120,120,0,0,1,1350.83,588.31Z" transform="translate(0.22 -448.65)" style="fill:none"/><path d="M1254.22,588.1c-.06,1.08-.12,2.16-.17,3.25.27-1.08.54-2.17.83-3.24Z" transform="translate(0.22 -448.65)" style="fill:none"/><path d="M1280.24,592.53a22.2,22.2,0,0,1-3.23-.26c-3.75-.57-7.28-2.13-11-3a36.85,36.85,0,0,0-3.75-.68q-2.51,8.71-4.2,17.64c-1.44,7.68-2.31,15.45-3,23.23-.21,2.39-.22,5-.39,7.52a104.41,104.41,0,0,1,4.5-10.15,179.77,179.77,0,0,1,11.72-21.07Q1275.32,599,1280.24,592.53Z" transform="translate(0.22 -448.65)" style="fill:none"/><path d="M1357.39,617.22a190.67,190.67,0,0,0-14.55-21.89c-2.45-3.18-5.75-6.48-8.29-10.05-5.31-1.38-10.63-3.07-16.11-3-6.91.07-13.49,2.9-20,5.58q-6.12,7.1-11.88,14.49c-6.06,7.74-11.67,15.76-17.28,23.83-2.88,4.14-5.42,8.92-8.3,13.28,8.06.7,17.12-3.87,18.58-11.89.52-2.87,0-5.86.63-8.72,1-4.82,5-8.57,9.52-10.45a22.08,22.08,0,0,1,22.07,3.23c6.63,5.43,9.65,14.32,16,20.08,10.63,9.63,26.33,7.64,40.87,9.16-.11-.3-.22-.61-.34-.91A169.82,169.82,0,0,0,1357.39,617.22Z" transform="translate(0.22 -448.65)" style="fill:none"/><path d="M265.24,537.09c-4.17,2.73-6,8.08-8.55,12.28-3.5,5.75-7.19,11.37-10.92,17-3.57,5.38-7.09,10.8-10.63,16.21-3.31,5.06-7.23,10.43-8.7,16.37-.14.55.51,1.21,1,.81,9.31-6.94,15.76-20.14,22.11-29.76,3.49-5.28,6.94-10.59,10.24-16,2.85-4.67,7.47-10,7.47-15.7A1.38,1.38,0,0,0,265.24,537.09Z" transform="translate(0.22 -448.65)" style="fill:#52674c"/><path d="M1918.22,670.22c-.11-.64-.22-1.28-.35-1.92v-5.67l.35.57V644.83a123.86,123.86,0,0,0-6.89-10.69,167.11,167.11,0,0,0-13.15-15.86c5,.09,10,.1,15-.07,1.69-.05,3.37-.14,5-.24V533.79a49.75,49.75,0,0,1-9.71,7c-5.33,2.68-12.34,3.19-16.81-.79.9-4.51,6.74-5.41,11.27-5.78s10.36-3.07,9.36-7.56a148.82,148.82,0,0,1-65.62-13.1c-4.89-2.21-10.18-4.75-15.38-3.44-2.17.55-4.19,1.75-6.42,1.87-3.79.21-7-2.67-10.35-4.37-3.79-1.89-8.1-2.35-12.31-2.78s-8.46-.81-12.27.86-6.75,6.14-5.28,10.07,6.92,6.51,6.14,10.69c-.82,4.39-7,4.3-11.27,3.1l-13-3.7a24,24,0,0,1-6.5-2.55c-2.67-1.71-4.56-4.38-6.38-7l-17.29-24.68c-1.77-2.53-3.61-5.13-6.18-6.84-5.11-3.39-12-2.5-17.65-.27s-11,5.66-16.91,7.16c-7.72,1.94-16.7.78-23.85,3.35a2.77,2.77,0,0,1-.73-1.86c.07-1.07,1-1.82,1.5-2.79.81-1.7-.12-3.82-1.61-4.94a12,12,0,0,0-5.23-1.83c-4.51-.83-9.21-1.64-13.64-.4s-8.48,5.14-8.34,9.79c.15,5.14,5.15,9.3,4.84,14.44a4.85,4.85,0,0,1-.08.55,16,16,0,0,0-6,6.79,17.07,17.07,0,0,1-7.65,1.19c-9.31-.74-17.87-6.08-27.2-6.39-2.73-.1-5.49.24-8.19-.23-6.34-1.12-11.12-6.47-17.14-8.78-6.19-2.39-13.37-1.29-19.12,2s-10.17,8.68-13.29,14.6c-2.27,4.29-4,9-7.34,12.49s-9.14,5.25-13,2.34c-4.4-3.33-3.66-10.11-5.67-15.28-.52-1.33-1.25-2.66-1.16-4.09.18-2.91,3.41-4.41,6.1-5.42A90.37,90.37,0,0,0,1549.69,496a29.64,29.64,0,0,0-18-4.52c-3.43.26-6.9,1.12-10.26.42s-6.65-3.71-6.12-7.15l-.2-.21c0-.53,0-1.07,0-1.6-.07-3.44-.34-7.25-2.79-9.63-4-3.92-10.56-1.44-16.12-1.75-14.05-.8-23.18-20.32-37.06-18-11.45,2-15.79,17.51-26.63,21.74-3.89,1.52-8.2,1.38-12.32,2A34.22,34.22,0,0,0,1395,496l15.5,1.26c-.85,4.95-7.76,6-12.3,4s-8.31-5.92-13.19-6.86c-7.85-1.51-14.73,4.91-20.7,10.28s-14.71,10.33-21.44,6a3.76,3.76,0,0,1-1.77-2.12c-.78-3.21,4.25-3.77,7.51-3.74a14.48,14.48,0,0,0,12.55-7.41c-25.74.32-49.38-13.41-74.32-19.86a133.68,133.68,0,0,0-35.83-4.25c-3.73.07-7.64.35-10.8,2.35s-5.22,6.28-3.6,9.68c.94,2,2.92,3.34,3.68,5.39,1.82,4.95-4.36,9.11-9.54,9.69a30.84,30.84,0,0,1-12.23-1.08l19.78-3.2c-12-10.15-26.27-17-40.4-23.67-1.5-.71-3.17-1.43-4.74-.92a3,3,0,0,0-.41.19,36.89,36.89,0,0,0-1.62-6.51c-3.39-9.59-12.79-17.84-22.73-16.26-6.21,1-11.24,5.41-16.51,8.89a61.36,61.36,0,0,1-32.6,10.14,11.06,11.06,0,0,0-4.92.78c-5.36,2.76-2.55,11.85-6.58,16.37l3.81,2c-3.33,5.26-10.79,5-17,5s-14,2.25-14.48,8.48c7.26.37,14.76,2.48,19.92,7.65s7.26,13.9,3.39,20.13-14.22,7.5-18.36,1.46c-2.94-4.3-2.22-10.62-5.81-14.37-2.87-3-7.48-3.31-11-5.43-9-5.37-8.76-20.47-18.19-25-4.62-2.2-10.4-.88-14.3,2.46s-6.1,8.37-7,13.47c-.47,2.88-.6,5.92-2,8.43a9,9,0,0,1-12.63,2.63c-3.35-2.5-5-7.45-9.11-8.32-4.57-1-8,3.83-11,7.43s-9.49,6.1-11.67,1.92c-1.28-2.43.07-5.59-1-8.11-1.27-2.93-5-3.6-7.46-5.64s-3.33-5.21-4.32-8.18-2.37-6.13-5.13-7.55-7,.32-6.87,3.45a55.42,55.42,0,0,0-14.64-19.54c1.46-1.77,3-3.73,3.1-6,.17-3.77-3.72-6.65-7.45-6.93s-7.31,1.23-10.87,2.36a54.1,54.1,0,0,1-28.42,1.12c-1.74-.4-3.58-.89-5.29-.35-3.68,1.17-4.4,6-5.23,9.8-2.83,13.05-15.38,23.24-28.58,23.21-10.17,0-20.17-5.4-30.14-3.36-11.11,2.27-19,14.9-16.27,26a14,14,0,0,0,3.57,6.75c5.11,5,13.42,3.25,20.13.94s14.58-4.78,20.41-.7c-4.47,4.3-9.22,11.17-5.4,16.07a12.53,12.53,0,0,0,3.91,3l10.63,6c7.06,4,15.63,8.09,22.87,4.41,6.19-3.14,10.75-11.62,17.47-9.93l.17-1.06c2.7,3.28,1.54,8.12,1,12.35-.37,2.94.13,6.52,1.87,8.62a120.68,120.68,0,0,0,1.45,15.69c2,12.06,14.67,13.13,24.43,16,11.42,3.34,25.61,5.19,35.2,12.73A21.83,21.83,0,0,1,976,609a3.59,3.59,0,0,0,.63,2.61,9.46,9.46,0,0,1,1.45,2.69,3.47,3.47,0,0,0,1.12,1.42c.27.84.51,1.69.73,2.55-1.13.06-2.25.1-3.38.07,2.73,7.39-4.26,16.48-12,15.61s-12.6-11.3-8.33-17.9l-21.78-3a40.88,40.88,0,0,1-7.61,21.44c-3.5-8.1-15.89-1-24.31-3.34-7-2-9.79-10.09-12.45-16.89s-8.28-14.35-15.33-12.74a28.06,28.06,0,0,1-25.32,5.09c.12-8.45-10.93-11.05-18-15.61-16.5-10.72-14-39.72-31.51-48.71a55.36,55.36,0,0,1-16.73,11,18,18,0,0,0-7.73-17.61,187.11,187.11,0,0,1-37.84,9l.27-7.89a12.13,12.13,0,0,1-9.18-4.67,94.92,94.92,0,0,0-13,26.09c-3.17,5.14-6.47,10.2-9.81,15.23-3.57,5.38-7.1,10.8-10.64,16.21-1,1.53-2,3.1-3.08,4.69-5.33-1.77-11.27-.38-16.72,2.47,1.75-11.4,2.39-23.11,4.27-34.43,1.22-7.37,2.62-14.62,4.28-21.79,4.19.59,8.36,1.37,12.48,2.37,5.23,1.26,10.63,2.86,15.89,1.72s10.17-6.18,9-11.5c-1.35-6.18-9.67-9.07-10.45-15.36s6.31-10.34,12.28-12.3,13.2-5.13,13.43-11.48l-25.23-2.12a6.75,6.75,0,0,1-3.63-1c-3.39-2.6.21-7.8.67-12.07.81-7.46-8.62-11.48-16-11.45-11.05.05-22.29,3.48-33,.59-4.69-1.26-9-3.7-13.62-5.17a35.69,35.69,0,0,0-36.08,9.45c-.78.83-1.57,1.91-1.27,3s1.41,1.57,2.15,2.35c2.18,2.28.57,6.4-2.19,7.9s-6.07,1.22-9.2,1.15A60.47,60.47,0,0,0,561,499.44c-4.7,3.69-8.93,8.12-14.27,10.8s-12.33,3.2-16.8-.79c.9-4.51,6.74-5.41,11.27-5.78s10.36-3.07,9.35-7.56A148.88,148.88,0,0,1,484.94,483c-4.89-2.21-10.18-4.74-15.37-3.44-2.17.55-4.19,1.75-6.42,1.87-3.79.21-6.95-2.67-10.35-4.37-3.79-1.89-8.11-2.35-12.31-2.78s-8.47-.81-12.27.86-6.75,6.15-5.28,10.07,6.91,6.51,6.13,10.69c-.81,4.39-7,4.31-11.26,3.1l-13-3.7a24.24,24.24,0,0,1-6.51-2.55c-2.66-1.71-4.55-4.37-6.37-7q-8.66-12.33-17.29-24.68c-1.78-2.53-3.61-5.13-6.18-6.83-5.11-3.4-11.95-2.51-17.65-.27s-11,5.66-16.91,7.15c-10.18,2.56-22.55-.29-30,7.14-1.78,1.77-3.12,4-5.23,5.36-2.58,1.63-5.83,1.61-8.76,2.45-8.63,2.46-13.51,13.72-9.47,21.82,2.67,5.35,8.19,8.76,11,14.06,4.7,9-1.63,23.08-11.55,24.58,7.2,2.54,15,2.56,22.61,2.57H325c.24.78.47,1.55.7,2.33q3,10.66,5.13,21.57c1.43,7.42,2.57,14.93,3.4,22.45.49,4.47.2,10.23,1.54,14.91a47.55,47.55,0,0,1-7.52-9.14c-14,7.22-23.3,23-22.86,38.93a60.38,60.38,0,0,1-33.29-17.13,87.5,87.5,0,0,0-28.73,13c.11-9.29-14.15-9.71-21.88-4.7s-17.09,12.27-24.85,7.31c-3.2-2-5-5.69-7.23-8.73-4.48-6-12.22-10-19.39-8.1S158,623,161.9,629.41l-2.49-1.71c.51,5.18-7,7.87-11.35,5.16s-6.21-8.12-7.88-13-4-10.28-8.68-12.34c-5.87-2.57-11.35,1-17,4.8,1-4,2.09-8,3.41-11.87a128.11,128.11,0,0,1,8.53-19.6c.71-1.31,1.48-2.6,2.29-3.87l7.18-1L185,569.12c-4.43-6.51-13.49-7.51-21.28-6.87s-16,2.24-23.08-1.19L166.84,549a43.33,43.33,0,0,0,9.11-5.12,46.79,46.79,0,0,0,4.22-4c4.06,8.71,7.62,17.63,10.85,26.76,4.61,13,7.63,26.3,11.56,39.47a.31.31,0,0,0,.6-.08c-.11-24-8.13-48.4-18.42-70.3a14.18,14.18,0,0,1,2-1.24,24.2,24.2,0,0,1,9.19-2,132.23,132.23,0,0,1,22.51.36A160.84,160.84,0,0,0,212.84,557c-1.26,8-2.24,16-3.18,24.05-.85,7.26-2,14.73,3.19,20.46a.11.11,0,0,0,.17,0c3.77-15,4-30.94,6.58-46.19,1.23-7.38,2.62-14.63,4.28-21.8,4.19.59,8.36,1.37,12.48,2.37,5.23,1.27,10.64,2.86,15.9,1.73s10.16-6.19,9-11.51c-1.35-6.18-9.66-9.07-10.44-15.35s6.31-10.35,12.27-12.31,13.2-5.13,13.44-11.47l-25.24-2.12a6.87,6.87,0,0,1-3.63-1c-3.39-2.59.22-7.8.68-12.07.8-7.46-8.62-11.48-16-11.45-11,.05-22.29,3.48-33,.6-4.68-1.27-9-3.7-13.61-5.18a35.67,35.67,0,0,0-36.08,9.46c-.78.82-1.57,1.9-1.27,3s1.4,1.57,2.15,2.35c2.17,2.28.57,6.4-2.19,7.9s-6.08,1.22-9.21,1.15a60.44,60.44,0,0,0-38.27,12.78c-4.71,3.69-8.94,8.12-14.27,10.8s-12.34,3.2-16.81-.79c.9-4.51,6.74-5.41,11.28-5.78s10.35-3.07,9.35-7.56A148.84,148.84,0,0,1,24.8,475.94c-4.89-2.21-10.18-4.75-15.38-3.44-2.17.54-4.19,1.75-6.42,1.87a8.17,8.17,0,0,1-3.22-.53V579.46c5.2,0,10.39,0,15.6,0l-1.07,1.11A140.94,140.94,0,0,0-.22,598.42v12.5c2.74-3.86,5.64-7.58,8.77-11.17C15,592.39,22.11,586,29.19,579.43c5.48,0,11,.06,16.44.2,6.38.16,12.76.45,19.13.69a287.48,287.48,0,0,1,19.83,26.29c2.21,3.41,4.36,6.85,6.48,10.32-3.29-1.17-6.55-2.68-9.87-3.67a34,34,0,0,0-27.35,3.68c-3.49,2.17-6.74,5-10.76,5.81-12.05,2.3-22.84-15.08-34-10-6.89,3.1-8,12.38-7.89,20A174,174,0,0,0,4,662.61H1.16v417.6H1917.87V719c.12-1.32.23-2.63.35-4ZM921.06,546.77a11.65,11.65,0,0,1-1.13-8.75,34.29,34.29,0,0,1,3.62-8.51,5.13,5.13,0,0,1,1.82-2.23,5,5,0,0,1,1.38-.44l3.7-.8a1.72,1.72,0,0,1,1.32.07,1.77,1.77,0,0,1,.56,1.2c.53,3,1,6.27-.62,8.8a20.05,20.05,0,0,1-2.14,2.47c-2,2.25-3.24,5.08-4.75,7.69-.53.92-1.23,1.91-2.27,2A1.43,1.43,0,0,1,921.06,546.77Zm18,33.1c-1.66-.45-3.4-.72-5.07-1a11.64,11.64,0,0,1-5.9-4.71,65.23,65.23,0,0,1-4.82-9.1c-.2-1.57-.32-3.16-.42-4.72,0-.41,0-.79-.05-1.17a14.52,14.52,0,0,1,12.35,5.2,8.47,8.47,0,0,0,2.74,2.75,3.84,3.84,0,0,0,2.37.19A45.1,45.1,0,0,0,942.18,580C941.11,580,940.06,580,939,579.87Zm-748.65-67.4c1,.44,2.18,1.42,1.7,2.42a2.11,2.11,0,0,1-1.47.93L179.9,518.9a12.38,12.38,0,0,1-2.61.55A6.29,6.29,0,0,1,173,518l.19.35-.7-.83a5.79,5.79,0,0,0,.51.48c-2.14-3.88-1.31-9-3.49-12.85C175.74,509.13,183.59,509.49,190.38,512.47Zm-48.81-13.8c.89-1.58,2.9-2,4.68-2.26a8.63,8.63,0,0,1,4.49.21,9,9,0,0,1,2.64,2c4.46,4.36,9.21,9.3,9.71,15.56a49,49,0,0,0,.27,5.31l-.19-.74-7.82-.58a10.2,10.2,0,0,1-5-1.25,10,10,0,0,1-2.71-3.21q-2.86-4.67-5.33-9.54C141.46,502.45,140.63,500.35,141.57,498.67Zm-.92,36.58a5.68,5.68,0,0,1,2.53-2.62c4.45-2.71,9.91-3.42,14.19-6.38,1-.66,2-1.47,3.13-1.44a4.78,4.78,0,0,1,2.28.92l5.38,3.34,2.57,1a26.16,26.16,0,0,0-5.49,4l-14.38,12.54c-1.86,1.62-4.26,3.36-6.56,2.46s-2.92-3.8-3.23-6.27l-.54-4.32A6.69,6.69,0,0,1,140.65,535.25Zm-31.44,67.58a126.46,126.46,0,0,0-3.91,14.63,18.13,18.13,0,0,1-3.27.93c-.36-.72-.71-1.43-1-2.12a119.52,119.52,0,0,0-11.58-19.76,168.37,168.37,0,0,0-13.15-15.86c5,.1,10,.11,15-.06,8-.28,16-1,24-1.94-1.41,4-2.58,8.12-3.57,12.16A120.29,120.29,0,0,0,109.21,602.83Zm321-17.12c.23,1.34.47,2.67.71,4q-1-2.07-2.19-4.11ZM350.76,520a3.71,3.71,0,0,0,.19.4c1.62-.87,3.57-.93,5.41-1.15a25.79,25.79,0,0,0,11.87-4.59c2-1.45,4.24-3.29,6.67-2.78a1,1,0,0,1,.55.27,1.11,1.11,0,0,1,.21.72c.22,3.73-.41,7.78-3,10.44a17,17,0,0,1-3.6,2.58,5,5,0,0,1-2.63,1,5.52,5.52,0,0,1-2.56-1,22.71,22.71,0,0,0-7.26-2.8c-2.12-.39-4.72-.78-5.65-2.63-.12.07-.25.13-.37.21ZM339,603.15c2.28-5.18.84-12.24.35-17.67q-1-10.8-2.93-21.45-2-10.9-5-21.6-.45-1.63-.9-3.3h21.05c2.85,0,5.85,0,8.35,1.45,2.18,1.22,3.7,3.35,5.43,5.17a26.32,26.32,0,0,0,2.17,2.06c-3.73,7.54-7.18,15.22-10.42,23q-3.73,9-6.92,18.14c-2,5.88-4.78,12.37-4.6,18.68A49.21,49.21,0,0,1,339,603.15Zm86.51,28.34c-4.82-5.3-7.59-12.27-12.6-17.38-12.78-13-37.72-11.86-45-28.66-9.87,4-6.67,18.89-1.78,28.45a47.85,47.85,0,0,1-18.9-5.39,1.21,1.21,0,0,0,.22-.23c3.1-4.66,4.36-10.64,6.18-15.91q3.6-10.47,7.94-20.67c3.05-7.12,6.5-14.06,10.21-20.85,11.2,7,26.23,9,33.68,20A83.75,83.75,0,0,0,360.83,575a381.66,381.66,0,0,0,57.54,9.84c4.2,6.42,8.91,12.61,10.41,20.46,1.35,7.08,1,14.41,1.85,21.55.33,2.64.23,6.6,1.17,9.7A25.26,25.26,0,0,1,425.47,631.49ZM650.53,519.55c1,.44,2.18,1.42,1.7,2.42a2.19,2.19,0,0,1-1.48.93L640.05,526a13.14,13.14,0,0,1-2.62.55,6.23,6.23,0,0,1-4.33-1.44c.06.12.12.24.19.36l-.7-.83a4.51,4.51,0,0,0,.51.47c-2.14-3.87-1.32-9-3.49-12.84C635.89,516.21,643.74,516.57,650.53,519.55Zm-48.81-13.8c.88-1.58,2.9-2,4.67-2.26a8.67,8.67,0,0,1,4.5.21,8.92,8.92,0,0,1,2.63,2c4.47,4.37,9.22,9.31,9.72,15.57a46.62,46.62,0,0,0,.27,5.31l-.19-.74-7.83-.58a10.19,10.19,0,0,1-5-1.25,9.86,9.86,0,0,1-2.71-3.22q-2.87-4.65-5.33-9.54C601.61,509.52,600.78,507.43,601.72,505.75Zm-.93,36.58a5.65,5.65,0,0,1,2.54-2.62c4.45-2.71,9.91-3.42,14.19-6.38,1-.66,2-1.47,3.13-1.44a4.72,4.72,0,0,1,2.28.92l5.37,3.34,2.58,1a26.63,26.63,0,0,0-5.5,4L611,553.7c-1.86,1.62-4.27,3.36-6.56,2.46s-2.93-3.8-3.24-6.27l-.54-4.32A6.94,6.94,0,0,1,600.79,542.33Zm-159,97.54-1-.17a278.46,278.46,0,0,1,5-32.86c1.26-5.85,2.64-11.7,4.42-17.42.31-1,.66-2,1-2.94,8.08.12,16.16.09,24.25,0l-1.07,1.11a143.74,143.74,0,0,0-15.07,18.63,147.77,147.77,0,0,0-12.1,21A126.72,126.72,0,0,0,441.79,639.87Zm77.26-3.61c-12.47-5.56-19.09-19.16-24.72-31.72-7,.66-14.45,1.47-20.15,5.69s-8.67,13.11-4.26,18.71c-5,6.95-13.29,10.75-21.74,11.22,1.36-3.34,2.64-6.74,4.23-9.86,1-2,2.12-4,3.24-6a142.62,142.62,0,0,1,13-17.49c6.42-7.37,13.57-13.78,20.65-20.32,5.48,0,11,0,16.44.2,6.38.16,12.75.44,19.13.68a287.08,287.08,0,0,1,19.82,26.3c5.3,8.13,10.21,16.5,15.25,24.78a11.2,11.2,0,0,0,.15,2C546.92,637.65,531.67,641.9,519.05,636.26Zm50.31-26.36c-1.82,5.67-4.07,13.25-4.76,20.42-1.15-2.44-2.45-4.8-3.45-7a119.57,119.57,0,0,0-11.59-19.76,165.51,165.51,0,0,0-13.14-15.86c5,.09,10,.11,15-.06,8-.28,16-1,24-1.94-1.41,4-2.58,8.12-3.57,12.16A120.11,120.11,0,0,0,569.36,609.9Zm94.88,41a29.25,29.25,0,0,1-30.72-6.29,30.14,30.14,0,0,1-6.74-31.28c-11.24-.86-23.44-1.47-32.77,4.93s-12.23,22.78-2.54,28.59c-1.73,4.15-7.39,5.09-11.58,3.56a36.14,36.14,0,0,1-7.93-4.67c.56-5.84-.05-11.76.88-17.67a125.69,125.69,0,0,1,5.16-20.6,127.73,127.73,0,0,1,8.54-19.6c.7-1.31,1.48-2.6,2.28-3.87l7.18-1,49.13-6.83c-4.43-6.51-13.5-7.52-21.28-6.87s-16.05,2.24-23.09-1.19L627,556.08A43.33,43.33,0,0,0,636.1,551a46.91,46.91,0,0,0,4.22-4c4.06,8.72,7.61,17.64,10.85,26.77,4,11.39,6.85,23,10.13,34.53-7.38,8.13-12.85,18.16-12.82,29a30.82,30.82,0,0,0,17.37,12.87A9.47,9.47,0,0,0,664.24,650.92Zm5.56-62.76c-.49,4.26-1.09,8.58-.46,12.58-1,.75-1.92,1.53-2.81,2.32-1.18,1.06-2.33,2.17-3.46,3.31-1.39-21.83-8.83-43.7-18.17-63.56a15.34,15.34,0,0,1,2-1.25c2.82-1.42,6-1.77,9.18-2a132.33,132.33,0,0,1,22.52.36A160.84,160.84,0,0,0,673,564.11C671.72,572.09,670.74,580.13,669.8,588.16ZM707.09,639C702,625.19,707.83,605.76,697,597c4.75-6.43,8.77-13.87,12.76-19.91.82-1.24,1.63-2.5,2.45-3.75a95.44,95.44,0,0,0,.37,31.77C714.8,617.22,717.81,633.15,707.09,639Zm540.55-51c-.23,4.48-.37,9-.33,13.45,0,.11,0,.22,0,.33-.38-1.35-.78-2.69-1.21-4-1-3.21-2.26-6.66-3.68-10.1C1244.16,587.84,1245.9,587.94,1247.64,588ZM1185,514.81c1.65-.5,3.41-1.08,4.47-2.46a5.84,5.84,0,0,0,1-2.21c2.27,3.49,5.2,7.2,3.73,11-1.64,4.19-7.21,4.53-11.34,6.24a12.83,12.83,0,0,0-1.48.75,7,7,0,0,0-2.38-1.65l-12.24-6.05ZM1078.9,541.46a26.7,26.7,0,0,1,18.29.65c1.69.69,3.34,1.56,5,2.19a91.77,91.77,0,0,0-6.43,7.39c-1-.64-1.9-1.27-2.88-1.87-4.36-2.68-10.14-6.75-15.63-7.76C1077.83,541.85,1078.35,541.63,1078.9,541.46Zm-80.17-2.2q7.14,2,14.41,3.52c-2.48,2.67-6,3.17-8.72,5.62a16.14,16.14,0,0,0-2.43,2.77C999.9,547.24,997.57,543.33,998.73,539.26Zm-5,32.39c-1.15,6.73-1.55,13.38-2,20.2-.32,4.49-.9,9.33-1.33,14.25a43.55,43.55,0,0,0-10.94-16.78c-8-7.43-20.31-8.48-30.64-9.16l-.29,0a22,22,0,0,1-.89-2.4,38.51,38.51,0,0,1-.91-16.27c.11-.8.24-1.59.39-2.38.54-1.52,1-3.08,1.57-4.53,1.75-4.59,7-9.17,10.92-6.23,2,1.52,2.45,4.3,3.28,6.69,3.77,10.88,17.1,15.09,28.46,14.23a25.08,25.08,0,0,0,2.79-.36C994,569.82,993.92,570.74,993.76,571.65ZM1053,623c-.06.66-.11,1.31-.14,2a111.31,111.31,0,0,1-14.6.86c-2.66,0-5.58-.25-7.48-2.12-2.48-2.43-2.17-6.42-2.68-9.87a18.54,18.54,0,0,0-13.13-14.9,46.12,46.12,0,0,1-17.34,14.69c.58-6.51.69-13.12,1.32-19.15.72-6.85,1.87-13.62,2.12-20.49.1-2.72.58-5.55.8-8.35a8.15,8.15,0,0,0,2.65-4.16,9.93,9.93,0,0,0-.49-5.92,31,31,0,0,1,4.81-5.65,32.79,32.79,0,0,0,5.6-6.79s0,0,0,0a213.56,213.56,0,0,0,33.71,4.06c-1.32,12,1.75,24,4.62,35.76a79,79,0,0,1,2.39,20A85,85,0,0,0,1053,623Zm22.6-34.81c-3.54,8.85-6.53,17.91-9.37,27-.79,2.53-1.69,5.18-2.46,7.87-2.41.54-4.84,1-7.27,1.38a96.26,96.26,0,0,0,2.8-14.78,104.4,104.4,0,0,0,.94-23c-.58-6.84-3.08-13.08-4.65-19.73a91.21,91.21,0,0,1-2.15-19.6h.37a50.59,50.59,0,0,0,13-1.1c-.66,6.48,1.42,13.08,3.43,19.22,2.25,6.9,3.1,14.91,5.75,21.77C1075.84,587.49,1075.7,587.82,1075.57,588.14Zm-4.93-43.26c1.42-.57,2.83-1.2,4.24-1.82,3.65,4.13,9.6,6.58,14,9.8,1.3.95,2.6,1.94,3.89,2.93a143.74,143.74,0,0,0-12.67,22,115.29,115.29,0,0,0-3.51-12.94A168.39,168.39,0,0,1,1070.64,544.88Zm48.78,108.92c-.14-.44-.27-.88-.41-1.33l1-.37C1119.83,652.67,1119.62,653.24,1119.42,653.8Zm5.89-54.09q-6.9,17.64-13.81,35.28c-7-7.9-20.89-10.83-21.61-21.35a112.21,112.21,0,0,1-13.26,5.67l.08-.18c2.27-4.36,3.1-9.2,5.29-13.7,2-4,3.59-7.86,5.23-12.08,4.08-10.5,8.68-20.83,13.42-31.09,1.89,1.65,3.76,3.34,5.55,5.1a120.24,120.24,0,0,1,14.57,17.26c2.33,3.37,4.26,7.31,6.47,11A24.71,24.71,0,0,0,1125.31,599.71Zm21.38-3.63c-4-3.65-10-5.84-14.7-4.29a95.43,95.43,0,0,0-6.45-10,127.64,127.64,0,0,0-14.8-17.59c-2.47-2.44-5-4.81-7.72-7q2.87-6.15,5.77-12.26a44.1,44.1,0,0,0,6.13-1.66,95,95,0,0,1,23.09-4.17c.58,4.43,2.41,8.87,3.48,13.12a171.91,171.91,0,0,1,4,21.95,179.72,179.72,0,0,1,1.17,19.27C1146.71,594.29,1146.7,595.19,1146.69,596.08Zm5.75,6.9c1.15-10.07-1-21.54-2.39-30.68a190.71,190.71,0,0,0-4.25-20.06c-1.14-4.23-2.19-9.23-4.35-13.31a96.1,96.1,0,0,1,33.28,5.19,13.28,13.28,0,0,0,2.74,6.07c-1.59,2.88-2.84,6-4.15,8.95-2.5,5.59-4.62,11.34-6.71,17.1C1163,586.18,1157.8,598,1157,609,1155.38,607.11,1153.92,605,1152.44,603Zm95.86,32.1a102.85,102.85,0,0,1-10.17-6.92l-60.9-45.3c-5.66,8.52-4.73,20.93,2.14,28.47-2.87,6.6-12.82,6.17-18.4,1.69-.49-.4-.94-.83-1.4-1.26,2-4.49,3-9.5,4.34-14.18,1.89-6.44,4-12.83,6.4-19.09,2.47-6.45,5.4-12.69,8.29-19,1.13-2.45,2.44-4.81,3.54-7.23,2.79.42,5.84,0,8.7.14,10.58.63,18.49,9.69,25.12,18-6.9.49-13.79-1-20.7-1s-14.44,2.1-18.34,7.88c16.52.79,33.21,1.61,49.13,6.14,2.82.81,5.62,1.72,8.45,2.51.14.26.29.51.43.78a94.68,94.68,0,0,1,7.21,19,130.26,130.26,0,0,1,3.32,19c.38,3.55-.16,7,2.84,9.28Zm464.22-84.55a2.49,2.49,0,0,0,.2.4c1.61-.87,3.56-.93,5.4-1.15a25.8,25.8,0,0,0,11.87-4.6c2-1.44,4.24-3.28,6.67-2.77a1,1,0,0,1,.56.27,1.25,1.25,0,0,1,.21.72c.21,3.72-.42,7.78-3,10.43a16.71,16.71,0,0,1-3.6,2.59,5,5,0,0,1-2.63,1,5.59,5.59,0,0,1-2.55-1,22.86,22.86,0,0,0-7.27-2.8c-2.12-.4-4.72-.78-5.64-2.63-.13.07-.26.13-.38.21Zm-179.74-11.35c5.25-.22,10.8-.57,15.43,1.93a37,37,0,0,1,4.14,2.84c-2.16,1.51-4.23,3.14-6.17,4.7-2.45,2-5,4-7.53,6.15-3-5.12-6.18-10.44-9.54-15.51C1530.34,539.26,1531.56,539.23,1532.78,539.18Zm-81.61-23.65a19.25,19.25,0,0,0,4.64,2.58c3.13.93,6.85-.34,9.53,1.54.36.25.71.65.6,1.08a1.25,1.25,0,0,1-.65.67,29.74,29.74,0,0,1-20.21,3.32l-.61,0a76.28,76.28,0,0,0-3.64-12.94A25.86,25.86,0,0,1,1451.17,515.53Zm-36.87.08a9.47,9.47,0,0,1,2.5-2.08,3.19,3.19,0,0,1,4-.33,29,29,0,0,1,6.45,3.92,9.93,9.93,0,0,1,3.61,6.48l-.23.19-11.44,1.29a8.77,8.77,0,0,1-3.31-.06,1.3,1.3,0,0,1-.87-.61c-.3-.66.4-1.32.57-2,.35-1.39-1.37-2.36-1.9-3.69A3.28,3.28,0,0,1,1414.3,515.61ZM1254.22,588.1h.66c-.29,1.07-.56,2.16-.83,3.24C1254.1,590.26,1254.16,589.18,1254.22,588.1Zm.5,48.87c.17-2.55.18-5.13.39-7.52.67-7.78,1.54-15.55,3-23.23q1.68-8.93,4.2-17.64a36.85,36.85,0,0,1,3.75.68c3.69.88,7.22,2.44,11,3a22.2,22.2,0,0,0,3.23.26q-4.9,6.42-9.3,13.22a179.77,179.77,0,0,0-11.72,21.07A104.41,104.41,0,0,0,1254.72,637Zm73-5.28c-6.35-5.76-9.37-14.65-16-20.08a22.08,22.08,0,0,0-22.07-3.23c-4.5,1.88-8.51,5.63-9.52,10.45-.59,2.86-.11,5.85-.63,8.72-1.46,8-10.52,12.59-18.58,11.89,2.88-4.36,5.42-9.14,8.3-13.28,5.61-8.07,11.22-16.09,17.28-23.83q5.78-7.38,11.88-14.49c6.54-2.68,13.12-5.51,20-5.58,5.48,0,10.8,1.64,16.11,3,2.54,3.57,5.84,6.87,8.29,10.05a190.67,190.67,0,0,1,14.55,21.89,169.82,169.82,0,0,1,10.89,22.72c.12.3.23.61.34.91C1354.08,639.33,1338.38,641.32,1327.75,631.69Zm50.72,1.33q-.1,1.18-.21,2.43c-1-2.68-2.15-5.34-3.35-8a131.44,131.44,0,0,0-12.2-21.27c-2.16-3-4.58-5.84-6.83-8.8-1-3.2-3.51-6.24-5-9.07l0,0a120,120,0,0,0,36.91-1.51,127.52,127.52,0,0,0-6.35,23A229.25,229.25,0,0,0,1378.47,633Zm94.13,13.5a26.87,26.87,0,0,1-28.73-2.47,27.69,27.69,0,0,1-9.52-27.56,107.53,107.53,0,0,0-30.63,8c-2.61,1.12-5.44,2.62-6.32,5.35-2.15,6.72,9.15,11.88,7.62,18.77-4.76,5.76-13.48.09-20-3.39-.84-.45-1.7-.84-2.57-1.2.14-2.2.22-4.4.4-6.5.21-2.54.47-5.08.76-7.61,2.35-8.27,3.62-17,6.35-25.09s7.23-15,12-21.8c.61-.21,1.22-.39,1.83-.61,2.94-1,6.08-2.37,7.56-5.14,1.21-2.24,1.06-5,.89-7.49q-.51-7.32-1-14.63c-.24-3.49-.47-7.08.65-10.4,2.22-6.63,9-10.3,15.27-13.34,4-1.93,9.58-3.49,12.1.17,3.23,4.7-2.15,13.77,3.14,15.79,3.13,1.2,5.68-2.15,8.25-4.58A277.4,277.4,0,0,0,1464,576.7c4.92,10.61,7.06,21.31,8.77,32.44-.71.49-1.39,1-2,1.52C1460.13,619.47,1461.12,638.86,1472.6,646.52Zm11.11-57.5c-.38,4.3-1.12,9.2-1,13.89-1.81,1.32-3.84,2.5-5.86,3.71,0-9.2-2.52-18.42-6-27-5.4-13.27-11.56-25.88-15.89-39.53,3.6-1.33,7.84-1.15,11.77-.88l25.9,1.81c-2.88,9.05-4.48,18.67-6.13,27.8C1485.22,575.54,1484.32,582.23,1483.71,589Zm4.92,5.82a11.17,11.17,0,0,1-1.47,3.48c.21-2.14.39-4.26.66-6.26,1.07-7.71,2.32-15.42,3.7-23.08,1.67-9.25,4.36-18.37,6.35-27.58l5,.35c2.43.17,5.13.25,7-1.34a5.07,5.07,0,0,0,1.17-1.48c.71.08,1.43.12,2.13.16,1.75.09,3.5.15,5.25.2.08.32.17.63.25,1a28.75,28.75,0,0,0,2.53,5.5,116,116,0,0,0,6.45,10.76c.74,1.37,1.47,2.73,2.16,4.1l.73,1.46c-1,1-2.08,2-3,3.07a212,212,0,0,0-15.89,19.37c-2.81,3.82-6,7.87-8.59,12.15C1498.66,593.22,1493,591.76,1488.63,594.84ZM1541.58,612c.31,7.79-.41,17.39-7.4,20.65s-14.84-2.59-18.31-9.4-4.41-14.76-8.28-21.35a18,18,0,0,0-2.57-3.37c2.8-3.73,5.43-7.63,8.38-11.13,5.54-6.58,11.3-12.46,17.32-18.49.72-.72,1.42-1.44,2.11-2.17q5.18,10.54,9.92,21.31,4.62,10.46,8.76,21.1C1547.75,608.13,1544.11,608.74,1541.58,612Zm11.92-28.84c-4-8.38-8.19-16.71-12.81-24.77,1.46-1.49,3-3,4.58-4.34a78.58,78.58,0,0,1,11-7.76l.11,0c3.12,1.13,6.56.6,9.83.05l.63-.11c-.38,1-.75,1.94-1.14,2.87-1.93,4.62-3.8,9.3-5.4,14a193.26,193.26,0,0,0-6.23,21.27C1553.91,584,1553.71,583.56,1553.5,583.12Zm22,34.84a159.24,159.24,0,0,0-.28,16.39c-.46-.45-.91-.93-1.34-1.43-5.19-14.73-10.94-29.25-17.42-43.45,2.92-8.26,5-16.92,8-25.15,1.66-4.54,3.3-9.08,5.09-13.56.7-1.75,1.61-3.53,2.27-5.35l15.83-2.64c-4.8,15.42-7.77,31.68-9.84,47.58C1576.67,599.51,1575.88,608.73,1575.5,618Zm56.66,20.68c-5.19-5.79-5.87-14.54-4.12-22.15-6.08-6.63-17.1-.67-22.61,6.45s-11.27,16.32-20.2,16.16a12.73,12.73,0,0,1-3.8-.68c2-7.21.66-15.67,1-23,.48-9.25.88-18.68,1.93-27.86a246.52,246.52,0,0,1,10.08-46,12.11,12.11,0,0,0,5.17-2.5c2.36-2.1,3.25-6.24.95-8.42-1.6-1.53-4.69-2.68-3.89-4.76a39,39,0,0,1,26.46,1.59c-1.15,1.29-3,1.65-4.52,2.39s-3,2.44-2.37,4a3.85,3.85,0,0,0,2.69,1.9c3.65,1.1,7.55,1.21,11.19,2.37,1.79.56,3.7,1.61,4.15,3.45.81,3.25-3.26,5.4-6.52,6-5.37,1-12.14,2.3-13.36,7.68-.76,3.34,1.31,6.82,4.15,8.69s6.29,2.45,9.65,2.9c2.91.39,5.83.69,8.76.94a141.19,141.19,0,0,0,.25,36.62c1.6,12.06,4.14,26.33,9.55,38.49A14.92,14.92,0,0,1,1632.16,638.64Zm48-10.82c-7.65-3.3-18-4.82-23,1.92-2.09,2.8-2.71,6.51-4.77,9.33a7.92,7.92,0,0,1-.59.69c-1-2.78-2-5.56-2.88-8.38a167.72,167.72,0,0,1-6.24-28.1,197.52,197.52,0,0,1-1.21-35.14c1.31.07,2.66.11,4,.08,6.06,1.41,12.42,1.45,18.68,1.45h21.2c.84,3.51,1.55,7.06,2.1,10.64.64,4.19.79,8.75,2.86,12.48a.25.25,0,0,0,.44,0,16.25,16.25,0,0,0,1-3.33c.28,1.37.57,2.73.83,4.11,1.43,7.42,2.57,14.93,3.4,22.45.59,5.36,0,12.59,2.56,17.57C1692.42,633.6,1686.1,630.37,1680.2,627.82Zm28.17,2.48a24.23,24.23,0,0,1-4.34,2.33,14.29,14.29,0,0,1-3.21.82c2.13-5.16.73-12.08.25-17.42q-1-10.8-2.93-21.45-2-10.91-5-21.6-.45-1.63-.9-3.3h21c2.85,0,5.85,0,8.35,1.44,2.18,1.23,3.7,3.35,5.43,5.18.69.73,1.42,1.41,2.17,2.06q-5.58,11.31-10.42,23-3.74,9-6.91,18.14C1710.75,622.94,1709.32,626.6,1708.37,630.3Zm59.51-10.7c-2.69,2.89-4.81,6.39-8,8.69-12.86,9.23-31.37-6.53-46-1,.45-1.48.9-2.94,1.38-4.36,2.41-7,5-13.87,7.94-20.66,3-7.12,6.5-14.06,10.22-20.85,11.19,7,26.23,9.05,33.67,20.05a83.86,83.86,0,0,0-44.55,4,380.36,380.36,0,0,0,51.41,9.22A26.09,26.09,0,0,0,1767.88,619.6Zm49,2a35,35,0,0,0-4.23-3.55L1813,617c8.08.12,16.17.09,24.25.05l-1.06,1.1a136.06,136.06,0,0,0-11.54,13.69A47.43,47.43,0,0,0,1816.87,621.64Zm80,9.32c-14.59-11-38.21-10.56-48.85,4.4-2.29,3.22-3.94,7-6.82,9.67a16.65,16.65,0,0,1-9.88,4.28,68.18,68.18,0,0,0-2.86-9.51c.68-.81,1.34-1.62,2-2.42,6.41-7.37,13.56-13.78,20.64-20.33,5.48,0,11,.06,16.44.2,6.38.17,12.76.45,19.13.69,3.67,4.44,7.28,8.91,10.76,13.5Zm19.73,31.65c-.38-1.44-.81-2.86-1.28-4.27l2.58,4.27Z" transform="translate(0.22 -448.65)" style="fill:#52674c"/></g></svg>