<svg id="Layer_13" data-name="Layer 13" xmlns="http://www.w3.org/2000/svg" viewBox="0 0 1912.77 526.7"><title>jungle_back_2</title><g id="leaves" style="opacity:0.6000000000000001"><path d="M10,663.34,1.22,669H9.79C9.86,667.14,9.93,665.24,10,663.34Z" transform="translate(-1.22 -553.51)" style="fill:#3e513a"/><path d="M1845.51,568.56a128.92,128.92,0,0,0-61.9,29.56c-5.64-11.29-11.44-22.8-20.41-31.68s-21.82-14.84-34.19-12.36c-8,1.59-14.87,6.41-20.93,11.79a112.29,112.29,0,0,0-35.91,64.91,332.72,332.72,0,0,0-201.8-75c30.07,56.92,87.25,95.45,118.9,151.51-51.93-36.7-107.12-74.65-170.45-80.34-4.35,26.58,6.06,53.37,19.15,76.9s29.19,45.71,37.89,71.2a24.52,24.52,0,0,0-12.31,7.62l-68.28-71.09-3.45,82.89-54.56-21.56q2.13-18.21,5.59-36.23c-26.52,7.88-48.17,30.4-55,57.22-9.47-13-30.59-13.23-39.56-26.61-7.78-11.59-2.77-27.11,2.45-40q15.09-37.38,30.17-74.78c-36,3.45-67.14,29-85.56,60.21s-26,67.47-31.31,103.28a292.51,292.51,0,0,0-70.5-72.78,135.36,135.36,0,0,0,19.89,92c-42.2-3.85-80.25-36.41-90.57-77.5A203.16,203.16,0,0,0,1044,893.54,222.66,222.66,0,0,0,988.6,875L985,815.9a125.41,125.41,0,0,0-21.88,68.18c-19.72-16.42-54.37-7.5-64.17,16H898a539.65,539.65,0,0,1-11.52-193.63c-48.6,43.88-75.83,110.42-71.91,175.79l-22.9-1.2c-.9-19.53-2.19-40.22-13.33-56.29s-35.9-24.31-50.67-11.5c-8.58,7.44-11.36,19.33-16.23,29.58s-14.91,20.35-26,17.72c7.65-18,15.42-36.37,16.48-55.86s-5.94-40.6-22.28-51.27-42.33-6.08-50,11.87a385.29,385.29,0,0,0-71.56-112.13,399,399,0,0,0-12.63,104.5l-48.94-95.85A442.3,442.3,0,0,0,452,789.1a178.29,178.29,0,0,1-12.67-92.44l-32,39.47c-11.75-4.08-20-16.48-19.31-28.89s10.4-23.77,22.55-26.45A92.16,92.16,0,0,0,344.78,697a102.8,102.8,0,0,0-1.2-73.72,187.48,187.48,0,0,0-63.14,28.38L279,621.42a174.49,174.49,0,0,0-47,29.19c-13.13-.67-24.76-12.35-25.38-25.47a168.78,168.78,0,0,0-59.18,42.3,46.29,46.29,0,0,1-33-34.86A140.46,140.46,0,0,0,60.36,669H56.72a74.73,74.73,0,0,1-1.28-53.13A246.63,246.63,0,0,0,1.22,669l8.8-5.7c-.09,1.9-.16,3.8-.23,5.7H1.22v411.17h326v-3.16H1914V627.47C1882.48,623.06,1854.57,599.05,1845.51,568.56Z" transform="translate(-1.22 -553.51)" style="fill:#3e513a"/></g></svg>