<svg id="Moon" xmlns="http://www.w3.org/2000/svg" viewBox="0 0 308.29 308.29"><title>moon_yellow</title><circle id="Back_Moon" data-name="Back Moon" cx="154.14" cy="154.14" r="154.14" style="fill:#fcf9d3"/><path d="M241,23.47A154.16,154.16,0,0,0,500.57,182.35,154.16,154.16,0,1,1,241,23.47Z" transform="translate(-203.78 30.29)" style="fill:#ccc6a2"/><path d="M330.21,250.94c.79,0,1.57,0,2.35-.07l.76-.05c.53,0,1.06-.08,1.59-.14l.86-.11c.48-.06,1-.13,1.43-.21l.89-.16c.47-.08.94-.18,1.41-.28l.83-.2c.49-.11,1-.24,1.44-.37l.75-.22c.55-.16,1.07-.33,1.58-.51l.56-.19a43.65,43.65,0,0,0,4.25-1.79l.17-.09c.66-.32,1.25-.63,1.83-1l.3-.17c.61-.35,1.13-.66,1.65-1l.38-.25c.55-.35,1-.68,1.52-1l.39-.28c.52-.38,1-.74,1.48-1.11l.36-.29c.49-.39,1-.82,1.51-1.27l.19-.16a42.78,42.78,0,0,0-55.42-65.16,42.55,42.55,0,0,0-5,4.78l-.14.16c-.46.51-.88,1-1.3,1.54l-.2.25c-.44.57-.8,1-1.15,1.53l-.31.43c-.33.47-.65,1-1,1.45l-.31.48c-.29.47-.6,1-.9,1.52l-.23.39c-.32.59-.63,1.18-.93,1.78l-.1.21a42.71,42.71,0,0,0-1.79,4.24c-.05.15-.11.31-.16.47-.21.62-.38,1.14-.54,1.68l-.22.74c-.13.49-.26,1-.38,1.44-.07.3-.13.58-.19.86-.11.47-.2.94-.29,1.41-.05.28-.11.57-.16.87-.08.48-.14,1-.21,1.43,0,0-.08.67-.11.89-.05.52-.1,1.06-.13,1.59,0,0-.05.54-.06.72,0,.8-.07,1.58-.07,2.37a42.78,42.78,0,0,0,22.39,37.62c.61.33,1.22.65,1.84.95,1.26.6,2.55,1.15,3.85,1.62a41.8,41.8,0,0,0,6.09,1.73A42.87,42.87,0,0,0,330.21,250.94Z" transform="translate(-203.78 30.29)" style="fill:#fcf9d3"/><path d="M267.35,208.87a18.38,18.38,0,0,0,2.06-.11l.63-.09c.47-.07.92-.15,1.36-.24l.64-.16c.5-.14.9-.25,1.29-.38l.73-.27c.39-.15.77-.31,1.15-.48l.63-.3c.4-.21.77-.42,1.12-.63s.45-.27.62-.38a12.66,12.66,0,0,0,1.11-.79l.44-.33c.41-.33.81-.68,1.19-1.05l.17-.14.18-.19c.43-.44.85-.91,1.24-1.38l-3-2.42-.07-.09,3.06,2.49a18.76,18.76,0,0,0-26.35-26.42l-.27.2-.05.06c-.43.36-.83.73-1.22,1.12l-.23.24c-.36.38-.72.79-1.06,1.21-.11.13-.22.28-.32.42-.29.38-.56.75-.81,1.14l-.32.53c-.26.43-.47.8-.66,1.18-.09.17-.2.41-.31.64-.18.38-.34.77-.49,1.16-.09.23-.17.46-.25.7-.14.41-.26.81-.36,1.21s-.14.53-.19.76c-.1.43-.17.87-.24,1.32,0,.23-.06.43-.09.64a19.19,19.19,0,0,0-.12,2.07,18.76,18.76,0,0,0,18.77,18.76Z" transform="translate(-203.78 30.29)" style="fill:#fcf9d3"/><path d="M256.89,159.92a29,29,0,0,0,3.16-.18l.87-.12.14,0c.68-.1,1.38-.21,2.06-.36l.94-.23.19-.05c.63-.17,1.24-.35,1.84-.55.39-.13.75-.26,1.12-.41.59-.22,1.17-.46,1.74-.73.35-.16.7-.32,1-.5.58-.3,1.15-.61,1.7-.95l.12-.07c.26-.15.53-.31.79-.48.59-.38,1.16-.8,1.73-1.23.28-.21.48-.35.67-.51.7-.56,1.37-1.15,2-1.76l.08-.08.22-.21c.59-.59,1.23-1.29,1.85-2l.13-.16-.41-.33-.3-.3.74.6a28.87,28.87,0,0,0-40.6-40.63h0a29.94,29.94,0,0,0-2.32,2.09l-.23.25c-.62.64-1.2,1.29-1.75,2-.16.2-.3.4-.45.6-.49.65-.91,1.23-1.3,1.82-.16.26-.33.53-.48.8l-.08.12c-.32.53-.63,1.1-.93,1.68-.18.34-.34.68-.5,1-.26.58-.51,1.16-.73,1.75-.14.37-.28.74-.41,1.11-.21.62-.38,1.23-.55,1.86l0,.18c-.08.31-.16.63-.23.95-.15.66-.26,1.36-.37,2.06l0,.14q-.08.44-.12.87a28.86,28.86,0,0,0,28.7,32Z" transform="translate(-203.78 30.29)" style="fill:#fcf9d3"/><circle cx="127.12" cy="102.36" r="29.08" style="fill:#e5e1bf"/><path d="M312.6,49.49a29.07,29.07,0,0,0,40.89,40.89A29.07,29.07,0,1,1,312.6,49.49Z" transform="translate(-203.78 30.29)" style="fill:#ccc6a2"/><circle cx="177.69" cy="51.8" r="17.7" style="fill:#e5e1bf"/><path d="M370.32,7.76a17.7,17.7,0,0,0,24.89,24.89A17.7,17.7,0,1,1,370.32,7.76Z" transform="translate(-203.78 30.29)" style="fill:#ccc6a2"/><circle cx="59.49" cy="73.92" r="15.8" style="fill:#e5e1bf"/><path d="M253.32,31.36a15.8,15.8,0,0,0,22.22,22.22,15.8,15.8,0,1,1-22.22-22.22Z" transform="translate(-203.78 30.29)" style="fill:#ccc6a2"/><circle cx="241.53" cy="148.5" r="23.39" style="fill:#e5e1bf"/><path d="M430.58,100.05a23.38,23.38,0,0,0,32.89,32.89,23.38,23.38,0,1,1-32.89-32.89Z" transform="translate(-203.78 30.29)" style="fill:#ccc6a2"/><circle cx="227.37" cy="193.63" r="14.54" style="fill:#e5e1bf"/><path d="M422,152.05a14.53,14.53,0,0,0,20.44,20.44A14.53,14.53,0,1,1,422,152.05Z" transform="translate(-203.78 30.29)" style="fill:#ccc6a2"/><circle cx="186.41" cy="95.53" r="11.25" style="fill:#e5e1bf"/><path d="M383.1,56.5a11.25,11.25,0,0,0,15.83,15.83A11.25,11.25,0,1,1,383.1,56.5Z" transform="translate(-203.78 30.29)" style="fill:#ccc6a2"/><circle cx="126.49" cy="238.26" r="36.03" style="fill:#e5e1bf"/><path d="M307.59,180a36,36,0,0,0,50.66,50.67A36,36,0,1,1,307.59,180Z" transform="translate(-203.78 30.29)" style="fill:#ccc6a2"/><circle cx="63.63" cy="220.21" r="12.01" style="fill:#e5e1bf"/><path d="M259.85,180.59a12,12,0,0,0,16.89,16.89,12,12,0,1,1-16.89-16.89Z" transform="translate(-203.78 30.29)" style="fill:#ccc6a2"/><circle cx="53.17" cy="161.15" r="22.12" style="fill:#e5e1bf"/><path d="M243,113.67a22.12,22.12,0,0,0,31.11,31.11A22.12,22.12,0,1,1,243,113.67Z" transform="translate(-203.78 30.29)" style="fill:#ccc6a2"/></svg>