<svg xmlns="http://www.w3.org/2000/svg" viewBox="0 0 1921 8634"><title>moon_yellow_back</title><g id="Layer_10" data-name="Layer 10" style="opacity:0.23"><polygon points="368 147 1921 1310 1921 1090 1809.47 1048.85 395 119 368 147" style="fill:#fcf9d3"/><path d="M366,148l-23,9L1920,5607.09V2771.62C1119.62,1425.36,365.1,149.79,366,148Z" transform="translate(1)" style="fill:#fcf9d3"/><path d="M332,147l-24-12L-1,1725.16,19,8597l235,37S334,150,332,147Z" transform="translate(1)" style="fill:#fcf9d3"/><polygon points="315 127 307 104 2 398.59 2 596.17 315 127" style="fill:#fcf9d3"/><polygon points="2 171.3 341 104 323 81 2 77.75 2 171.3" style="fill:#fcf9d3"/><path d="M319,1,152.73,0C208.53,18.85,321,58,321,58Z" transform="translate(1)" style="fill:#fcf9d3"/><path d="M1918,407.47,405,73l-12,27c1.74.87,1226.47,472.67,1525,588Z" transform="translate(1)" style="fill:#fcf9d3"/><path d="M400,51,1918,153.34V0H1260.87C861.39,7.62,395,14,395,14Z" transform="translate(1)" style="fill:#fcf9d3"/></g></svg>