<svg id="Moon" xmlns="http://www.w3.org/2000/svg" viewBox="0 0 228.13 228.13"><title>moon</title><circle id="Back_Moon" data-name="Back Moon" cx="114.06" cy="114.06" r="114.06" style="fill:#e6e6e6"/><path d="M1567.39,144.49a114.07,114.07,0,0,1-192.11,117.57,114.07,114.07,0,1,0,192.11-117.57Z" transform="translate(-1366.78 -104.71)" style="fill:#b3b3b3"/><path d="M1501.34,312.81c-.58,0-1.16,0-1.74,0l-.56,0c-.39,0-.78-.06-1.17-.1l-.64-.08-1.06-.15-.66-.12-1-.21-.62-.15c-.36-.08-.71-.18-1.06-.27l-.56-.16-1.17-.38-.41-.14a30.5,30.5,0,0,1-3.14-1.33l-.13-.06c-.49-.24-.92-.47-1.35-.71l-.22-.12c-.46-.26-.85-.49-1.23-.73l-.28-.18c-.41-.26-.77-.5-1.12-.75l-.3-.21c-.38-.27-.74-.54-1.09-.82l-.26-.21c-.37-.29-.75-.61-1.12-.94l-.14-.12A31.66,31.66,0,1,1,1525,260.1l.1.12c.34.38.65.75,1,1.13l.15.19c.33.42.59.77.85,1.13l.23.32c.25.35.49.71.72,1.07l.23.36c.22.35.45.74.67,1.13l.16.29c.24.43.47.87.69,1.31l.08.16a30.88,30.88,0,0,1,1.32,3.13l.12.35c.16.46.28.85.4,1.24l.16.55c.1.36.19.72.28,1.07l.15.63.21,1.05c0,.2.08.42.11.64s.11.71.16,1.06l.08.66c0,.38.08.78.1,1.18,0,0,0,.39,0,.53,0,.59,0,1.17,0,1.75A31.65,31.65,0,0,1,1516.44,309c-.45.24-.91.48-1.37.7a29.44,29.44,0,0,1-2.84,1.2,30.87,30.87,0,0,1-4.51,1.28A31.67,31.67,0,0,1,1501.34,312.81Z" transform="translate(-1366.78 -104.71)" style="fill:#e6e6e6"/><path d="M1547.86,281.69a13.17,13.17,0,0,1-1.52-.09l-.47-.07c-.35,0-.68-.1-1-.17l-.48-.12c-.37-.1-.66-.18-1-.28l-.54-.2c-.29-.11-.57-.23-.85-.36l-.46-.22c-.3-.15-.57-.31-.84-.46a5.2,5.2,0,0,1-.45-.29c-.27-.17-.55-.37-.82-.58l-.33-.24c-.3-.25-.6-.51-.88-.78l-.12-.11-.14-.14a12.51,12.51,0,0,1-.91-1l2.2-1.79,0-.06-2.26,1.84a13.88,13.88,0,0,1,19.5-19.55l.19.15,0,0a10.17,10.17,0,0,1,.9.83l.17.18c.27.28.54.58.79.89l.24.32c.21.27.41.55.59.83s.17.27.24.4a8.93,8.93,0,0,1,.49.88,5.21,5.21,0,0,1,.23.47c.13.28.25.56.36.85s.13.35.19.52.19.6.27.9.1.39.14.56.12.65.17,1c0,.17.05.32.07.47a13.9,13.9,0,0,1-13.8,15.42Z" transform="translate(-1366.78 -104.71)" style="fill:#e6e6e6"/><path d="M1555.6,245.46a21.16,21.16,0,0,1-2.34-.13c-.22,0-.43-.06-.64-.09l-.11,0c-.5-.07-1-.16-1.52-.27l-.69-.17-.15,0c-.46-.12-.92-.25-1.36-.4l-.83-.3c-.44-.17-.86-.35-1.29-.54l-.77-.38c-.43-.21-.84-.45-1.25-.7l-.09,0c-.2-.11-.39-.23-.59-.36-.43-.28-.86-.59-1.28-.91l-.5-.37c-.51-.42-1-.86-1.47-1.31l-.06,0-.16-.16c-.44-.44-.92-1-1.37-1.51l-.1-.12.31-.24.22-.23-.55.45a21.36,21.36,0,0,1,30-30.06h0a20,20,0,0,1,1.72,1.54l.17.18c.46.48.88,1,1.29,1.46l.33.44c.37.49.68.91,1,1.36.13.19.25.39.37.59l0,.08c.24.4.47.82.69,1.25.13.25.25.5.37.76.2.43.38.86.54,1.3.11.27.21.54.3.82.16.45.29.91.41,1.37l0,.13c.07.24.13.47.18.71.11.49.19,1,.27,1.53l0,.1.09.64a21,21,0,0,1,.13,2.33,21.36,21.36,0,0,1-21.37,21.37Z" transform="translate(-1366.78 -104.71)" style="fill:#e6e6e6"/><circle cx="134.06" cy="75.75" r="21.52" style="fill:#ccc"/><path d="M1514.38,163.74A21.51,21.51,0,0,1,1484.12,194a21.51,21.51,0,1,0,30.26-30.26Z" transform="translate(-1366.78 -104.71)" style="fill:#b3b3b3"/><circle cx="96.64" cy="38.33" r="13.1" style="fill:#ccc"/><path d="M1471.66,132.87a13.09,13.09,0,0,1-18.42,18.41,13.09,13.09,0,1,0,18.42-18.41Z" transform="translate(-1366.78 -104.71)" style="fill:#b3b3b3"/><circle cx="184.1" cy="54.7" r="11.69" style="fill:#ccc"/><path d="M1558.24,150.33a11.69,11.69,0,0,1-16.44,16.44,11.69,11.69,0,1,0,16.44-16.44Z" transform="translate(-1366.78 -104.71)" style="fill:#b3b3b3"/><circle cx="49.4" cy="109.89" r="17.31" style="fill:#ccc"/><path d="M1427.07,201.16a17.31,17.31,0,0,1-24.34,24.34,17.31,17.31,0,1,0,24.34-24.34Z" transform="translate(-1366.78 -104.71)" style="fill:#b3b3b3"/><circle cx="59.87" cy="143.28" r="10.76" style="fill:#ccc"/><path d="M1433.42,239.64a10.75,10.75,0,0,1-15.13,15.12,10.75,10.75,0,1,0,15.13-15.12Z" transform="translate(-1366.78 -104.71)" style="fill:#b3b3b3"/><circle cx="90.18" cy="70.69" r="8.33" style="fill:#ccc"/><path d="M1462.2,168.94a8.33,8.33,0,0,1-11.71,11.71,8.33,8.33,0,1,0,11.71-11.71Z" transform="translate(-1366.78 -104.71)" style="fill:#b3b3b3"/><circle cx="134.53" cy="176.31" r="26.66" style="fill:#ccc"/><path d="M1518.08,260.31a26.65,26.65,0,0,1-37.49,37.49,26.66,26.66,0,1,0,37.49-37.49Z" transform="translate(-1366.78 -104.71)" style="fill:#b3b3b3"/><circle cx="181.04" cy="162.95" r="8.89" style="fill:#ccc"/><path d="M1553.41,260.76a8.89,8.89,0,0,1-12.5,12.5,8.89,8.89,0,1,0,12.5-12.5Z" transform="translate(-1366.78 -104.71)" style="fill:#b3b3b3"/><circle cx="188.78" cy="119.24" r="16.37" style="fill:#ccc"/><path d="M1565.86,211.24a16.37,16.37,0,0,1-23,23,16.37,16.37,0,1,0,23-23Z" transform="translate(-1366.78 -104.71)" style="fill:#b3b3b3"/></svg>