<svg id="Buildings" xmlns="http://www.w3.org/2000/svg" viewBox="0 0 1925.2 464.49">
    <title>skyline_3</title>
    <g id="Layer_11" data-name="Layer 11">
        <path d="M1921.48,1165.09l3-343.9h-11.38l-.7,4.18-2.55-.46.46,5.81-3.48-.47-.7,16h-2.56l-.23-5.34L1878,834v-7.2h-9.52v-8.6l-2.32.24-.24,8.59-7.2-.23.47-9.29-1.86-3-3,3v8.59h-11.38v7.67h-9.29l-.7,44.83-43.67-.24.47-18.11-68.29-.47.46-43.44h-10.45v-7.89l-11.85-.23.24-11.85h-3.95l-.7,11.61-5.11-.23s-.23-8.59,0-9.29-4.88,0-4.88,0l-.23,9.76-7.67.46-.69,5.81-4.88.23v3.72l-15.33-.24-4.88,4.42-.46,7-3.72.24.23-21.14h-6.27l-.23-6-19,.46-.93,9.3-2.55-.24-.23,35.54h-4.88V841.4l-4.65.47v-30.2l-3.25-4.65-22.53.24-5.81,5.8v17.66l-8.59.46s.46-9.06.69-9.76-4.87-.46-4.87-.46l.23-8.83-13.47.93-.24,9.53-5.34-.24V807.49h-4.18l-32.29-37.17L1492.42,774v8.59l-3.25.47.23,2.32h-7.66l.46,33.91H1479V786.58l-4-4.18-7.2,7.2-15.1.47-.23,5.34-14.17.23.23,9.53,13.71-.47.69,4.41-14.63.47-.23,16.26-4.18-.23-.24-8.6-7,.47v4.87l-2.56.24v-10l-11.15.46v-6h-3.71l.46-7.2-2.79.24-.23-24.16h-13.24l.23-10-10.45.23-24.39,3.72.23,30.43-8.59-.23v-1.63l-1.4-.23-.46,7h-2.09l-.23-36.7h-8.13l-.47-15.33h-2.55l.69-38.56h-2.55l-.46,39.25-2.79.23v15.1l-22.3,8.6-.47,35.54-2.55-.24a5.41,5.41,0,0,0-4.18-5.34l-9.29-.23.46-77.58-13.7.23.46,2.09h-1.86l-.46,2.09H1265l.23-5.34-3.25-.23-.23,3.48-4-.23-.23,2.79-11.38.23-.47,72.7-2.55-.23.23,11.61-7,.47-.23,11.38-4-.23-.23,7.43-7.67-.47V825.61l-4.64-.47.23-6.5-6.74-.47.23-4.87-3.94.23.23-7.9-16,.23-.46,5.81h-2.79l.23,7.9-16.26.23-2.55,2.09V843h-3.26v-4.65l-3.94.23v4.88l-4.42-.23-.46-13-6.27-5.34-7.44,7.2-.23,10.68-3,.24.23-3.72-3.25-.23-.23,3.71-3.95.24.23-5.35-3.48-.23.23,2.09-7.9.23.24-1.62h-9.53v5.57l-1.86.24-.23,5.11-2.55.23-.47-5.11s-2.78.23-2.55-.23.46-24.63.46-24.63l-21.14-.92-.23,6.73-4.88.23-.23,9.53-6.5.23V844l-1.63.46.23-10.22s-7.2.46-7-.23.69-17,.69-17h-6.5l-.23-4.18h-2.09l.23-3.72-8.36-.23.46-6.73-2.79-.24-.46,7.2h-4.18l-.23-7.43h-2.33l-.23,8.36h-7.66l-.7,5.58h-3.72l.24,2.55h-11.85L1017,821l-1.4.23v5.58l-4.18-.23s0-7.9.23-13.48-2.78-6.5-2.78-6.5h-17l-.7,5.57-1.16.47-.46,6h-3.25l-.24,3-2.32.23v18.35l-1.16.23.23-26.25-3.95-.23v-5.57h-7.66v-1.86l-3.25.23-.48.43H957.1l-.7,4.18-2.55-.47.46,5.81-3.48-.47-.7,16h-2.55l-.24-5.34L922,820v-7.2H912.5V804.2l-2.32.23L910,813l-7.2-.23.46-9.29-1.86-3-3,3v8.59H887v7.67h-9.29l-.7,44.83-43.67-.23.47-18.12-68.29-.47.46-43.43H755.48v-7.9l-11.84-.23.23-11.85h-4l-.7,11.62-5.11-.24s-.23-8.59,0-9.29-4.88,0-4.88,0l-.23,9.76-7.66.46-.7,5.81-4.88.23v3.72l-15.33-.23-4.88,4.41-.46,7-3.72.23.23-21.14h-6.27l-.23-6-19.05.47-.92,9.29-2.56-.23-.23,35.54h-4.88v-6.28l-4.65.47v-30.2l-3.25-4.64-22.53.23-5.81,5.81v17.65l-8.59.46s.46-9.06.7-9.75-4.88-.47-4.88-.47l.23-8.82-13.47.93-.23,9.52-5.35-.23V793.51h-4.18l-32.28-37.16-16.73,3.71v8.6l-3.25.46.23,2.32h-7.66l.46,33.92H523V772.61l-4-4.19-7.2,7.21-15.1.46-.23,5.34-14.17.23.23,9.53,13.71-.47.7,4.42-14.64.46-.23,16.26-4.18-.23-.23-8.6-7,.47v4.88l-2.56.23v-10l-11.15.47v-6h-3.71l.46-7.2-2.79.23-.23-24.16H437.49l.23-10-10.45.24-24.39,3.71.23,30.43-8.59-.23v-1.63l-1.39-.23-.47,7h-2.09l-.23-36.7h-8.13l-.46-15.33h-2.56l.7-38.56h-2.56l-.46,39.25-2.79.24v15.09l-22.3,8.6-.46,35.54-2.56-.23a5.41,5.41,0,0,0-4.18-5.35l-9.29-.23.46-77.58-13.7.23.46,2.09h-1.85l-.47,2.09H309l.23-5.34-3.25-.23-.23,3.48-4-.23-.23,2.79-11.38.23-.47,72.7-2.55-.23.23,11.61-7,.47L280.24,817l-3.95-.23-.23,7.43-7.67-.46V811.63l-4.64-.47.23-6.5-6.74-.46.24-4.88-4,.23.23-7.9-16,.24-.46,5.8h-2.79l.23,7.9-16.26.23-2.55,2.09v21.14h-3.25V824.4l-4,.24v4.87l-4.42-.23-.46-13-6.27-5.34-7.43,7.2-.24,10.69-3,.23.24-3.72-3.26-.23-.23,3.72-4,.23.24-5.34-3.49-.24.23,2.1-7.89.23.23-1.63h-9.53v5.58l-1.85.23-.24,5.11-2.55.23-.47-5.11s-2.78.23-2.55-.23.46-24.62.46-24.62l-21.13-.93-.24,6.73-4.87.24-.24,9.52-6.5.23V830l-1.63.46.24-10.22s-7.2.47-7-.23.7-17,.7-17H105.1l-.23-4.18h-2.09l.23-3.71-8.36-.24.46-6.73-2.78-.23-.47,7.2H87.68l-.23-7.44H85.13l-.24,8.37H77.23l-.7,5.57H72.81l.24,2.56H61.2L61,807l-1.39.24v5.57l-4.19-.23s0-7.9.24-13.47-2.79-6.51-2.79-6.51h-17l-.69,5.58-1.17.46-.46,6H30.31l-.23,3-2.33.23v18.35l-1.16.23.23-26.24L22.88,800v-5.57H15.21v-1.86l-3.25.23-8.83,7.9.23,33.91L1,836.48l.23,9.29-2,316.71Z"
              transform="translate(0.75 -700.6)" style="fill:#232328"/>
    </g>
</svg>
