<svg id="Buildings" xmlns="http://www.w3.org/2000/svg" viewBox="0 0 1922.23 655.62">
    <title>skyline_2</title>
    <g id="Layer_10" data-name="Layer 10">
        <path d="M.56,1162.48l1922.22,1.31-2.6-208.49h-4.33v-8.07l2-.29-2,0v-1.52H1898.9V929.88l-31.27-1v-7.58l-9.16.32v-7.58h-3.79L1855,922l-4.73.32v-8.21h-3.48l.32,7.89s-6,.32-6-.63-.31,6.63-.31,6.63l-20.53.32v6.32l-1.9.31.32-9.79-2.85-.31-.31-9.8-11.37-.31-6.32-.32-.32,6-4.1,1.27.31,27.8-7.9.31.32-34.43-9.48.32v-2.53l-3.16-.95v5l-3.47-.31V900.82l-16.43-15.48-13.26-.63-.32,8.21-7,.32.32,41.69h-3.48l-.31-40.43-1.27-2.21h-3.79l-1.89,2.53-.32,3.79h-5v-2.85h-3.48l-7,9.8-5.37-.32,1,30.33-3.79.31L1698,910l-16.11-.63V903h-3.48l-.31-17.37-6.95.31c0-6.63-6.64-6.32-6.64-6.32-7.58.32-19.27,1.9-19.27,1.9l-.63,21.16-4.74-.31v12.32h-3.47l-.63-34.43-5.06.31-.31-9.16-1.58-1-.32-26.85h-1.89l-.64,25.91-1.58,1.57-.31,9.48-15.48,6.95-.63,25.27-5.06-.31v-5.06l-5.05.32V850.59h-10.74v3.16h-7.9v-2.21h-5.37l-.31,6-6.64.63-.31-3.79-1.9.32-.63,53.38-3.79.64-1-68.24c.32-5.68-3.47-23.06-3.47-23.06l-6.32-1.89-.32-8.85,4.43-1.26c.31-14.85-7.9-50.54-7.9-50.54a6.6,6.6,0,0,0-2-.16c.15-2.6-.79-14.37-.79-14.37-2.22-24.33-15.17-67.29-15.17-67.29l-2.21,1,4.11,35.06L1499.3,729,1499,908.4l-20.54.63-.94-34.43H1469s0,6.09.19,7.39c-1-.55-8.41.51-8.41.51v-37l-13.26-.32-.32,6.95h-6.63l.31-6.32-12.63.32-.32-10.42-20.53-.32-.32,19h-7l1-2.21-10.74.32-.63,7.89h-13v-3.15H1373l.31,5.68h-5.68v-6h-4.43v6.32h-6c-.31-16.11-11.05-15.17-11.05-15.17l-19.9.32v-5h-3.48v4.73h-4.11l.64-8.52-14.22-.32v9.48l-18.32-.32-.32-36.33-7-.63V808h-13.26v-5.69l-7.27.32c.32-8.22-6.32-8.85-6.32-8.85l-.31,4.74-5.69-.32.32-6-6.32.32-.32-9.48-15.48-.31-.63-273.56h-8.84l-.32,10.74-91.92.63V508.17l-10.43.31.95,391.39h-7.26L1107,886l-20.53.32.31,2.21-7.9.31-.31,5.37h-5.06V888.5l-17.37.31.32-10.74-8.85-6,.32-8.84s2.84-15.17-10.43-13.59-13.58,14.22-13.58,14.22l.32,9.16-8.53,7.27v14.53h-14.53l-.32-13.59h-5.69l-.31,9.48-4.11-.32-.32,4.43h-3.15v-4.11h-4.11l-.32,3.16H979v-3.79l-2.21-.32v-8.21h-5.05l-.95,9.16h-1.9v4.11l-3.47.31.32-6.32h-2.53l-.32-7.26h-3.79v7.26l-3.47.32v4.42h-5.37l.31-6.32h-3.79v-5.68l-6-.32-.32,6.64h-2.84l-.63,5.68h-2.84v-5.37l-2.21-.31v-8.22h-5.06l-.95,9.16h-1.89v4.11l-3.48.32.32-6.32h-2.53l-.31-7.27h-3.79v7.27l-3.48.31v4.43h-5.37l.32-6.32H902v-5.69l-6-.31-.31,6.63H892.8l-.64,5.69h-2.1l-.7-6.64V861.33l34.43-22.74v-5.06L884,820.9l-3.79-17.06,0,7.09,0-7.09-3.79,17.06-39.8,12.63v5.06L871,861.33V885l-11.69.32v7.27l-5,.63-1.58,27.48L847,921l.32-39.81H836.88l-.31-2.52-11.38.31c-4.1-.31-5.68,8.53-5.68,8.53v25.59l-8.85-.63.64-28.12-3.79.32v-7.58l-21.49.31.32,8.53H783.5V896.4h-6.64l-.31-9.17H755.7l.32-6.63-8.85-.31.63-5.37-4.1-.32.31,6h-5.37l.32-7.26-5.69-.32v7.58l-9.79.32v7l-9.48-.32-.63,7.27-8.21-.64.63-6.31-12.95.31v-8.53H690v6l-3.15-.64c0-6-4.11-6.31-3.8-7.26s.64-37,.64-37l-13.59.32-.31,4.42H656.51l.32-4.74-16.11.32V874H629v5.37l-13.27.63.32-1.9-4.43-.31L612,873l-7.9.32-.63,15.47h-18V877.44l-8.52.32v-18l-29.7.32-.63,5.68-13.27-.31-.31,13.9-25.59.95.95,18.63-4.11-.31.32-25H493.51l-.31-8.21-27.17.63.63,31.27-3.79.32-.32-31-7.26.32-.32-2.84-8.53-.32v-2.21H433.81v3.16c-12.64-.32-12,8.21-12,8.21h-7.58l-.63,17.69-8.21-.63-.32-4.74L401,885l-.32-3.16-7.27.32v3.48l-8.84-.32v-5.05h-5.69l.32,5.05H370l.31-6h-2.84v6.32h-1.89l-.32,5.37h-3.47l-.64-2.85L358,880.92h-2.21l-2.84,7.89-6.32-.31-.31,5.68h-5.69l-.32-7.26L334,886.6l-.63,6.64H322.93l-.31,14.84h-9.17l.32-10.74-8.53-.31-.31,10.42H278.71l-.64,4.11-5.37-.32L273,898l-6-.64v-4.73H257.4l.08-.64V815.53l5.68-1.27-.31-5.37-4.74-1.26v-9.16l1.9-1.26v-4.74s8.21-4.11,7.89-8.85-1.26-8.21-6.95-8.53l-2.84-3.15-.63-7.27L254,764v2.53l-3.47.31-.32-9.79,1.27-1.58-.32-17.06-1.26-1.58.31-37.27-1.39.2-1.39-.2.32,37.27-1.26,1.58-.32,17.06,1.26,1.58-.31,9.79-3.48-.31V764l-3.47.63-.63,7.27-2.85,3.15c-5.68.32-6.63,3.8-6.95,8.53s7.9,8.85,7.9,8.85v4.74l1.9,1.26v9.16l-4.74,1.26-.32,5.37,5.69,1.27V892l-1.9.32v-6l-7-.32v13.27H202.58v17.37l-4.11.32v-4.11h-2.84v4.11l-4.11-.32.32-10.74h-5.37v-4.74l-2.21.32v4.74h-6.32v10.74h-3.16l-.32-4.11-2.52.32v2.21h-3.16l-.32-2.84-4.11-.32.32,1.58h-3.16l.32-1.9-11.69.64.32,2.52h-2.22l.32,5.69-4.11-.32.32-23.06L121.71,897v9.47l-4.42.64v4.1h-5.37l-.32,6-1.89-.31a6.49,6.49,0,0,0-5.69-6.64h-2.53l-.31,1.9-7.27-.63-.31-4.74-8.22-.63.32-4.11L75,901.45v3.16H51.9c0-11.37-9.16-9.48-9.16-9.48H35.16a6.68,6.68,0,0,0-7.27,5.37l-.32,15.17-10.1-.32.31,4.42-8.53-.31-.31,3.15H3.25v6.32H.56Z"
              transform="translate(-0.56 -508.17)" style="fill:#30303a"/>
    </g>
</svg>
