<svg id="Layer_6" data-name="Layer 6" xmlns="http://www.w3.org/2000/svg" viewBox="0 0 1848.68 712"><title>trees</title><path d="M76.22,491.36s17.87,18.22,43.45,24.53a232.2,232.2,0,0,0,49.41,6.31s4.21-1.05,3.86,2.8-10.52,8.06-17.87,4.91-5.26,2.45-4.91,2.8,5.61,3.15,6.31,4.56,1.75,5.25-4.91,5.25-21-3.85-27.68-9.11-14.37-8.76-13-4.55,5.26,13.66-4.9,8.06a53,53,0,0,1-16.12-14L76.57,500.12,73.42,491l-7.71-7.36s1.4-2.45,1.05-1.75S76.22,491.36,76.22,491.36Z" transform="translate(69.96 -325)" style="fill:#363c49"/><path d="M72.82,530.32s22.23,22.66,54,30.51a289,289,0,0,0,61.45,7.84s5.22-1.31,4.79,3.49-13.07,10-22.23,6.1-6.53,3-6.1,3.48,7,3.92,7.85,5.67,2.18,6.53-6.1,6.53-26.15-4.79-34.43-11.33S114.22,571.72,116,577s6.53,17-6.11,10a66.08,66.08,0,0,1-20-17.43L73.26,541.22l-3.92-11.34-9.59-9.15a24.92,24.92,0,0,1,1.31-2.18C60.62,519.43,72.82,530.32,72.82,530.32Z" transform="translate(69.96 -325)" style="fill:#363c49"/><path d="M76.76,585.23s22.68,23.13,55.15,31.14a295,295,0,0,0,62.71,8s5.34-1.33,4.9,3.56-13.35,10.23-22.69,6.23-6.67,3.11-6.22,3.56,7.11,4,8,5.78,2.23,6.67-6.23,6.67-26.68-4.89-35.13-11.56-18.24-11.12-16.46-5.79,6.67,17.35-6.23,10.23a67.36,67.36,0,0,1-20.45-17.79L77.2,596.35l-4-11.56-9.78-9.34s1.78-3.12,1.33-2.23S76.76,585.23,76.76,585.23Z" transform="translate(69.96 -325)" style="fill:#363c49"/><path d="M53.36,523.4S35.49,541.62,9.91,547.93a232.2,232.2,0,0,1-49.41,6.31s-4.2-1-3.85,2.8,10.51,8.06,17.87,4.91,5.25,2.45,4.9,2.8-5.6,3.16-6.3,4.56-1.76,5.25,4.9,5.25,21-3.85,27.68-9.11,14.37-8.76,13-4.55-5.26,13.66,4.91,8.06a53.2,53.2,0,0,0,16.12-14L53,532.16l3.16-9.11,7.71-7.36a20.26,20.26,0,0,0-1.06-1.75C63.17,514.64,53.36,523.4,53.36,523.4Z" transform="translate(69.96 -325)" style="fill:#464d5f"/><path d="M56.76,567.57s-22.22,22.66-54,30.51a289,289,0,0,1-61.44,7.84s-5.23-1.31-4.8,3.49,13.08,10,22.23,6.1,6.54,3,6.1,3.48-7,3.92-7.84,5.67-2.18,6.53,6.1,6.53,26.14-4.79,34.42-11.33S15.36,609,13.62,614.2s-6.54,17,6.1,10a65.93,65.93,0,0,0,20-17.43l16.56-28.32,3.93-11.34L69.83,558s-1.74-3.05-1.3-2.18S56.76,567.57,56.76,567.57Z" transform="translate(69.96 -325)" style="fill:#464d5f"/><path d="M52.82,621.48S30.14,644.61-2.33,652.62a295,295,0,0,1-62.71,8s-5.34-1.33-4.89,3.56,13.34,10.23,22.68,6.23,6.67,3.11,6.23,3.56-7.12,4-8,5.78-2.22,6.67,6.23,6.67,26.68-4.89,35.14-11.56,18.23-11.12,16.45-5.79S2.12,686.42,15,679.3a67.32,67.32,0,0,0,20.46-17.79l16.9-28.91,4-11.56,9.79-9.34a25.52,25.52,0,0,0-1.34-2.23C65.28,610.36,52.82,621.48,52.82,621.48Z" transform="translate(69.96 -325)" style="fill:#464d5f"/><path d="M51.7,478.45s-16,16.34-39,22a208.19,208.19,0,0,1-44.31,5.66s-3.77-.95-3.45,2.51,9.42,7.23,16,4.4,4.72,2.2,4.4,2.51-5,2.83-5.65,4.09-1.58,4.71,4.4,4.71S3,520.88,9,516.16s12.88-7.85,11.63-4.08-4.72,12.25,4.4,7.23a47.66,47.66,0,0,0,14.45-12.57l11.94-20.43,2.83-8.17,6.91-6.6a17.78,17.78,0,0,0-.94-1.57C60.5,470.6,51.7,478.45,51.7,478.45Z" transform="translate(69.96 -325)" style="fill:#464d5f"/><path d="M77.62,452.13S93.2,468,115.5,473.52A202.91,202.91,0,0,0,158.58,479s3.67-.91,3.36,2.45-9.16,7-15.58,4.28-4.58,2.13-4.28,2.44,4.89,2.75,5.5,4,1.53,4.58-4.28,4.58-18.32-3.36-24.13-7.94-12.52-7.64-11.3-4,4.58,11.91-4.28,7a46.3,46.3,0,0,1-14-12.22L77.93,459.77l-2.75-7.94-6.72-6.42s1.22-2.14.91-1.53S77.62,452.13,77.62,452.13Z" transform="translate(69.96 -325)" style="fill:#363c49"/><path d="M53.26,438.11S39.9,451.74,20.77,456.45a173.66,173.66,0,0,1-37,4.72s-3.14-.78-2.88,2.1,7.86,6,13.37,3.67S-1.77,468.77-2,469s-4.2,2.36-4.72,3.41-1.31,3.93,3.67,3.93,15.72-2.88,20.7-6.81,10.75-6.55,9.7-3.41-3.93,10.22,3.67,6A39.64,39.64,0,0,0,43,461.7l10-17,2.36-6.81,5.76-5.51s-1-1.83-.78-1.31S53.26,438.11,53.26,438.11Z" transform="translate(69.96 -325)" style="fill:#464d5f"/><path d="M75.5,417.74s12.76,13,31,17.51a165.9,165.9,0,0,0,35.27,4.5s3-.75,2.75,2-7.51,5.75-12.76,3.5-3.75,1.75-3.5,2,4,2.25,4.5,3.25,1.25,3.75-3.5,3.75-15-2.75-19.76-6.5-10.25-6.25-9.25-3.25,3.75,9.75-3.5,5.75a37.9,37.9,0,0,1-11.5-10L75.75,424l-2.25-6.5L68,412.24s1-1.75.75-1.25S75.5,417.74,75.5,417.74Z" transform="translate(69.96 -325)" style="fill:#363c49"/><path d="M56,403.51S45,414.72,29.29,418.6a143,143,0,0,1-30.41,3.88s-2.58-.64-2.37,1.73,6.47,5,11,3,3.24,1.51,3,1.72-3.45,1.94-3.88,2.81S5.57,435,9.67,435s12.94-2.37,17-5.61,8.84-5.39,8-2.8-3.23,8.41,3,5a32.73,32.73,0,0,0,9.92-8.63l8.2-14,1.94-5.61,4.74-4.53a11.66,11.66,0,0,0-.65-1.08C62.07,398.11,56,403.51,56,403.51Z" transform="translate(69.96 -325)" style="fill:#464d5f"/><path d="M72.77,382.3s11.23,11.44,27.3,15.41a146,146,0,0,0,31,4s2.64-.66,2.42,1.76-6.61,5.06-11.23,3.08-3.3,1.54-3.08,1.76,3.52,2,4,2.86,1.1,3.31-3.08,3.31-13.21-2.43-17.39-5.73-9-5.5-8.15-2.86,3.31,8.59-3.08,5.06a33.35,33.35,0,0,1-10.12-8.8L73,387.8l-2-5.72-4.84-4.63s.88-1.54.66-1.1S72.77,382.3,72.77,382.3Z" transform="translate(69.96 -325)" style="fill:#363c49"/><polygon points="138.3 45.25 149.42 461.86 115.79 463 132 45 138.3 45.25" style="fill:#464d5f"/><path d="M68.46,370c0,1.94,11,416.86,11,416.86-4.72.16-14.24,2.49-17.85-.86-5-4.63-2.66-18.47-1-24a30.64,30.64,0,0,0,1.58-6.41,32,32,0,0,0-.79-7.07c-1.42-9.33,1-18.77,1.76-28.18a14.22,14.22,0,0,0-.39-5.56c-.54-1.61-1.59-3-2.17-4.6-2.8-7.56,5.46-15.47,3.86-23.37-.79-3.89-3.9-7.11-4.19-11.07-.25-3.62,1.91-7,2.55-10.52,1.6-8.9-6.31-17.19-5.68-26.21.48-6.93,5.83-12.48,8.09-19,4.27-12.42-3-25.64-3.86-38.74a82.13,82.13,0,0,1,.15-9.67c.72-13.95,1.07-27.92,1.42-41.88l.54-21.85L65,445.49a138,138,0,0,0-.39-19c-.87-7.67-3-15.55-.86-23,1.24-4.32,3.91-8.33,3.86-12.82,0-5.53-4.07-10.27-4.16-15.7,0-2.5.06-3.79,2.17-4.85C66.13,369.93,68.46,370.21,68.46,370Z" transform="translate(69.96 -325)" style="fill:#363c49"/><path d="M58.07,377.94S49,387.21,36,390.41a118,118,0,0,1-25.12,3.21s-2.14-.53-2,1.43,5.34,4.1,9.08,2.49,2.68,1.25,2.5,1.43-2.85,1.6-3.21,2.32-.89,2.67,2.5,2.67,10.69-2,14.07-4.64,7.31-4.45,6.6-2.31-2.68,6.95,2.49,4.1a27,27,0,0,0,8.2-7.13l6.77-11.58,1.61-4.64L63.42,374a10.08,10.08,0,0,0-.54-.89C63.06,373.48,58.07,377.94,58.07,377.94Z" transform="translate(69.96 -325)" style="fill:#464d5f"/><path d="M316.22,446.36s17.87,18.22,43.45,24.53a232.2,232.2,0,0,0,49.41,6.31s4.21-1.05,3.86,2.8-10.52,8.06-17.87,4.91-5.26,2.45-4.91,2.8,5.61,3.15,6.31,4.56,1.75,5.25-4.91,5.25-21-3.85-27.68-9.11-14.37-8.76-13-4.55,5.26,13.66-4.9,8.06a53,53,0,0,1-16.12-14l-13.32-22.78L313.42,446l-7.71-7.36s1.4-2.45,1.05-1.75S316.22,446.36,316.22,446.36Z" transform="translate(69.96 -325)" style="fill:#363c49"/><path d="M312.82,485.32s22.23,22.66,54,30.51a289,289,0,0,0,61.45,7.84s5.22-1.31,4.79,3.49-13.07,10-22.23,6.1-6.53,3-6.1,3.48,7,3.92,7.85,5.67,2.18,6.53-6.1,6.53-26.15-4.79-34.43-11.33S354.22,526.72,356,532s6.53,17-6.11,10a66.08,66.08,0,0,1-20-17.43l-16.56-28.32-3.92-11.34-9.59-9.15a24.92,24.92,0,0,1,1.31-2.18C300.62,474.43,312.82,485.32,312.82,485.32Z" transform="translate(69.96 -325)" style="fill:#363c49"/><path d="M316.76,540.23s22.68,23.13,55.15,31.14a295,295,0,0,0,62.71,8s5.34-1.33,4.9,3.56-13.35,10.23-22.69,6.23-6.67,3.11-6.22,3.56,7.11,4,8,5.78,2.23,6.67-6.23,6.67-26.68-4.89-35.13-11.56-18.24-11.12-16.46-5.79,6.67,17.35-6.23,10.23a67.36,67.36,0,0,1-20.45-17.79L317.2,551.35l-4-11.56-9.78-9.34s1.78-3.12,1.33-2.23S316.76,540.23,316.76,540.23Z" transform="translate(69.96 -325)" style="fill:#363c49"/><path d="M293.36,478.4s-17.87,18.22-43.45,24.53a232.2,232.2,0,0,1-49.41,6.31s-4.2-1.05-3.85,2.8,10.51,8.06,17.87,4.91,5.25,2.45,4.9,2.8-5.6,3.16-6.3,4.56-1.76,5.25,4.9,5.25,21-3.85,27.68-9.11,14.37-8.76,13-4.55-5.26,13.66,4.91,8.06a53.2,53.2,0,0,0,16.12-14L293,487.16l3.16-9.11,7.71-7.36a20.26,20.26,0,0,0-1.06-1.75C303.17,469.64,293.36,478.4,293.36,478.4Z" transform="translate(69.96 -325)" style="fill:#464d5f"/><path d="M296.76,522.57s-22.22,22.66-54,30.51a289,289,0,0,1-61.44,7.84s-5.23-1.31-4.8,3.49,13.08,10,22.23,6.1,6.54,3,6.1,3.48-7,3.92-7.84,5.67-2.18,6.53,6.1,6.53,26.14-4.79,34.42-11.33,17.87-10.89,16.13-5.66-6.54,17,6.1,10a65.93,65.93,0,0,0,20-17.43l16.56-28.32,3.93-11.34,9.58-9.15s-1.74-3.05-1.3-2.18S296.76,522.57,296.76,522.57Z" transform="translate(69.96 -325)" style="fill:#464d5f"/><path d="M292.82,576.48s-22.68,23.13-55.15,31.14a295,295,0,0,1-62.71,8s-5.34-1.33-4.89,3.56,13.34,10.23,22.68,6.23,6.67,3.11,6.23,3.56-7.12,4-8,5.78-2.22,6.67,6.23,6.67,26.68-4.89,35.14-11.56,18.23-11.12,16.45-5.79-6.67,17.35,6.23,10.23a67.32,67.32,0,0,0,20.46-17.79l16.9-28.91,4-11.56,9.79-9.34a25.52,25.52,0,0,0-1.34-2.23C305.28,565.36,292.82,576.48,292.82,576.48Z" transform="translate(69.96 -325)" style="fill:#464d5f"/><path d="M291.7,433.45s-16,16.34-39,22a208.19,208.19,0,0,1-44.31,5.66s-3.77-.95-3.45,2.51,9.42,7.23,16,4.4,4.72,2.2,4.4,2.51-5,2.83-5.65,4.09-1.58,4.71,4.4,4.71S243,475.88,249,471.16s12.88-7.85,11.63-4.08-4.72,12.25,4.4,7.23a47.66,47.66,0,0,0,14.45-12.57l11.94-20.43,2.83-8.17,6.91-6.6a17.78,17.78,0,0,0-.94-1.57C300.5,425.6,291.7,433.45,291.7,433.45Z" transform="translate(69.96 -325)" style="fill:#464d5f"/><path d="M317.62,407.13S333.2,423,355.5,428.52A202.91,202.91,0,0,0,398.58,434s3.67-.91,3.36,2.45-9.16,7-15.58,4.28-4.58,2.13-4.28,2.44,4.89,2.75,5.5,4,1.53,4.58-4.28,4.58-18.32-3.36-24.13-7.94-12.52-7.64-11.3-4,4.58,11.91-4.28,7a46.3,46.3,0,0,1-14-12.22l-11.61-19.86-2.75-7.94-6.72-6.42s1.22-2.14.91-1.53S317.62,407.13,317.62,407.13Z" transform="translate(69.96 -325)" style="fill:#363c49"/><path d="M293.26,393.11s-13.36,13.63-32.49,18.34a173.66,173.66,0,0,1-37,4.72s-3.14-.78-2.88,2.1,7.86,6,13.37,3.67,3.93,1.83,3.67,2.09-4.2,2.36-4.72,3.41-1.31,3.93,3.67,3.93,15.72-2.88,20.7-6.81,10.75-6.55,9.7-3.41-3.93,10.22,3.67,6A39.64,39.64,0,0,0,283,416.7l10-17,2.36-6.81,5.76-5.51s-1-1.83-.78-1.31S293.26,393.11,293.26,393.11Z" transform="translate(69.96 -325)" style="fill:#464d5f"/><path d="M315.5,372.74s12.76,13,31,17.51a165.9,165.9,0,0,0,35.27,4.5s3-.75,2.75,2-7.51,5.75-12.76,3.5-3.75,1.75-3.5,2,4,2.25,4.5,3.25,1.25,3.75-3.5,3.75-15-2.75-19.76-6.5-10.25-6.25-9.25-3.25,3.75,9.75-3.5,5.75a37.9,37.9,0,0,1-11.5-10L315.75,379l-2.25-6.5-5.5-5.25s1-1.75.75-1.25S315.5,372.74,315.5,372.74Z" transform="translate(69.96 -325)" style="fill:#363c49"/><path d="M296,358.51s-11,11.21-26.74,15.09a143,143,0,0,1-30.41,3.88s-2.58-.64-2.37,1.73,6.47,5,11,3,3.24,1.51,3,1.72-3.45,1.94-3.88,2.81-1.08,3.23,3,3.23,12.94-2.37,17-5.61,8.84-5.39,8-2.8-3.23,8.41,3,5a32.73,32.73,0,0,0,9.92-8.63l8.2-14,1.94-5.61,4.74-4.53a11.66,11.66,0,0,0-.65-1.08C302.07,353.11,296,358.51,296,358.51Z" transform="translate(69.96 -325)" style="fill:#464d5f"/><path d="M312.77,337.3s11.23,11.44,27.3,15.41a146,146,0,0,0,31,4s2.64-.66,2.42,1.76-6.61,5.06-11.23,3.08-3.3,1.54-3.08,1.76,3.52,2,4,2.86,1.1,3.31-3.08,3.31-13.21-2.43-17.39-5.73-9-5.5-8.15-2.86,3.31,8.59-3.08,5.06a33.35,33.35,0,0,1-10.12-8.8L313,342.8l-2-5.72-4.84-4.63s.88-1.54.66-1.1S312.77,337.3,312.77,337.3Z" transform="translate(69.96 -325)" style="fill:#363c49"/><polygon points="378.3 0.25 389.42 416.86 355.79 418 372 0 378.3 0.25" style="fill:#464d5f"/><path d="M308.46,325c0,1.94,11,416.86,11,416.86-4.72.16-14.24,2.49-17.85-.86-5-4.63-2.66-18.47-1-24a30.64,30.64,0,0,0,1.58-6.41,32,32,0,0,0-.79-7.07c-1.42-9.33,1.05-18.77,1.76-28.18a14.22,14.22,0,0,0-.39-5.56c-.54-1.61-1.59-3-2.17-4.6-2.8-7.56,5.46-15.47,3.86-23.37-.79-3.89-3.9-7.11-4.19-11.07-.25-3.62,1.91-7,2.55-10.52,1.6-8.9-6.31-17.19-5.68-26.21.48-6.93,5.83-12.48,8.09-19,4.27-12.42-3-25.64-3.86-38.74a82.13,82.13,0,0,1,.15-9.67c.72-13.95,1.07-27.92,1.42-41.88l.54-21.85L305,400.49a138,138,0,0,0-.39-19c-.87-7.67-3-15.55-.86-23,1.24-4.32,3.91-8.33,3.86-12.82-.05-5.53-4.07-10.27-4.16-15.7-.05-2.5.06-3.79,2.17-4.85C306.13,324.93,308.46,325.21,308.46,325Z" transform="translate(69.96 -325)" style="fill:#363c49"/><path d="M298.07,332.94S289,342.21,276,345.41a118,118,0,0,1-25.12,3.21s-2.14-.53-2,1.43,5.34,4.1,9.08,2.49,2.68,1.25,2.5,1.43-2.85,1.6-3.21,2.32-.89,2.67,2.5,2.67,10.69-2,14.07-4.64,7.31-4.45,6.6-2.31-2.68,6.95,2.49,4.1a27,27,0,0,0,8.2-7.13l6.77-11.58,1.61-4.64,3.92-3.74a10.08,10.08,0,0,0-.54-.89C303.06,328.48,298.07,332.94,298.07,332.94Z" transform="translate(69.96 -325)" style="fill:#464d5f"/><path d="M659.38,679s13.86,14.13,33.69,19a180.16,180.16,0,0,0,38.31,4.89s3.26-.82,3,2.17-8.15,6.25-13.85,3.81-4.08,1.9-3.81,2.17,4.35,2.44,4.89,3.53,1.36,4.08-3.8,4.08-16.3-3-21.47-7.07-11.14-6.79-10.05-3.53,4.08,10.6-3.8,6.25A41.24,41.24,0,0,1,670,703.45l-10.33-17.66-2.44-7.06-6-5.71s1.09-1.9.82-1.36S659.38,679,659.38,679Z" transform="translate(69.96 -325)" style="fill:#363c49"/><path d="M656.75,709.21s17.23,17.57,41.9,23.65a224,224,0,0,0,47.64,6.08s4.05-1,3.71,2.7-10.13,7.78-17.23,4.73-5.07,2.37-4.73,2.71,5.41,3,6.08,4.39,1.69,5.07-4.73,5.07-20.27-3.72-26.69-8.79-13.85-8.44-12.5-4.39,5.07,13.18-4.73,7.77a51.11,51.11,0,0,1-15.54-13.51l-12.84-22-3-8.78-7.44-7.1a18.78,18.78,0,0,1,1-1.69C647.29,700.76,656.75,709.21,656.75,709.21Z" transform="translate(69.96 -325)" style="fill:#363c49"/><path d="M659.8,751.78s17.59,17.94,42.76,24.14a228.57,228.57,0,0,0,48.63,6.21s4.13-1,3.79,2.76-10.35,7.93-17.59,4.83-5.17,2.41-4.83,2.76,5.52,3.1,6.21,4.48,1.73,5.17-4.83,5.17-20.69-3.79-27.24-9-14.14-8.63-12.76-4.49,5.17,13.45-4.83,7.93a52.16,52.16,0,0,1-15.86-13.79l-13.1-22.42-3.11-9-7.59-7.24a19.48,19.48,0,0,1,1-1.73C650.14,743.16,659.8,751.78,659.8,751.78Z" transform="translate(69.96 -325)" style="fill:#363c49"/><path d="M641.66,703.84S627.8,718,608,722.86a180.16,180.16,0,0,1-38.31,4.89s-3.26-.81-3,2.18,8.15,6.24,13.86,3.8,4.07,1.9,3.8,2.17-4.35,2.45-4.89,3.54-1.36,4.07,3.8,4.07,16.31-3,21.47-7.06,11.14-6.8,10-3.54-4.07,10.6,3.8,6.25a41.13,41.13,0,0,0,12.5-10.86l10.33-17.67,2.44-7.06,6-5.71a13.92,13.92,0,0,0-.82-1.35C649.27,697.05,641.66,703.84,641.66,703.84Z" transform="translate(69.96 -325)" style="fill:#464d5f"/><path d="M644.29,738.09s-17.23,17.57-41.89,23.65a224.12,224.12,0,0,1-47.65,6.08s-4-1-3.71,2.71,10.13,7.77,17.23,4.73,5.07,2.36,4.73,2.7-5.41,3-6.08,4.39-1.69,5.07,4.73,5.07,20.27-3.72,26.69-8.78,13.85-8.45,12.5-4.4-5.07,13.18,4.73,7.77a51.22,51.22,0,0,0,15.55-13.51l12.84-22,3-8.79,7.43-7.09s-1.35-2.37-1-1.69S644.29,738.09,644.29,738.09Z" transform="translate(69.96 -325)" style="fill:#464d5f"/><path d="M641.24,779.89S623.65,797.82,598.48,804a228.45,228.45,0,0,1-48.62,6.21s-4.14-1-3.8,2.76,10.35,7.93,17.59,4.82,5.17,2.42,4.83,2.76-5.52,3.11-6.21,4.49-1.72,5.17,4.83,5.17,20.69-3.79,27.24-9,14.14-8.62,12.76-4.48-5.17,13.45,4.83,7.93a52.31,52.31,0,0,0,15.86-13.79l13.11-22.42,3.1-9,7.59-7.25a18.73,18.73,0,0,0-1-1.72C650.9,771.27,641.24,779.89,641.24,779.89Z" transform="translate(69.96 -325)" style="fill:#464d5f"/><path d="M640.37,669s-12.43,12.67-30.21,17.06a161.76,161.76,0,0,1-34.36,4.38s-2.92-.73-2.68,2,7.31,5.61,12.43,3.41,3.65,1.71,3.41,2-3.9,2.2-4.39,3.17-1.22,3.65,3.41,3.65,14.62-2.68,19.25-6.33,10-6.09,9-3.17-3.66,9.5,3.41,5.61a37.06,37.06,0,0,0,11.21-9.75l9.25-15.84,2.2-6.33,5.36-5.12s-1-1.7-.73-1.22S640.37,669,640.37,669Z" transform="translate(69.96 -325)" style="fill:#464d5f"/><path d="M660.47,648.58s12.08,12.32,29.37,16.58a156.79,156.79,0,0,0,33.4,4.27s2.84-.71,2.61,1.89-7.11,5.45-12.08,3.32-3.56,1.66-3.32,1.89,3.79,2.13,4.26,3.08,1.19,3.55-3.31,3.55-14.22-2.6-18.72-6.15-9.71-5.93-8.76-3.08,3.55,9.23-3.32,5.44a35.7,35.7,0,0,1-10.89-9.47l-9-15.4-2.14-6.15-5.21-5s.95-1.66.71-1.18S660.47,648.58,660.47,648.58Z" transform="translate(69.96 -325)" style="fill:#363c49"/><path d="M641.58,637.71s-10.36,10.57-25.19,14.22a134.65,134.65,0,0,1-28.65,3.66s-2.44-.61-2.24,1.63,6.1,4.67,10.36,2.84,3,1.42,2.85,1.63-3.25,1.83-3.66,2.64-1,3,2.84,3,12.2-2.24,16.06-5.29,8.33-5.08,7.52-2.64-3.05,7.93,2.84,4.68a31,31,0,0,0,9.35-8.13l7.72-13.21,1.83-5.28,4.47-4.27s-.81-1.42-.61-1S641.58,637.71,641.58,637.71Z" transform="translate(69.96 -325)" style="fill:#464d5f"/><path d="M658.83,621.92s9.88,10.08,24,13.57A128.57,128.57,0,0,0,710.21,639s2.33-.58,2.13,1.55-5.81,4.46-9.89,2.72-2.9,1.35-2.71,1.55,3.1,1.74,3.49,2.52,1,2.91-2.71,2.91-11.64-2.14-15.32-5-8-4.85-7.18-2.53,2.91,7.57-2.71,4.46a29.29,29.29,0,0,1-8.92-7.75L659,626.76l-1.75-5L653,617.65a10.55,10.55,0,0,1,.58-1C653.4,617.07,658.83,621.92,658.83,621.92Z" transform="translate(69.96 -325)" style="fill:#363c49"/><path d="M643.73,610.88s-8.53,8.69-20.74,11.7a110.75,110.75,0,0,1-23.57,3s-2-.5-1.84,1.34,5,3.85,8.53,2.34,2.51,1.17,2.34,1.34-2.68,1.5-3,2.17-.84,2.51,2.34,2.51,10-1.84,13.21-4.35,6.85-4.18,6.19-2.17-2.51,6.52,2.34,3.85a25.53,25.53,0,0,0,7.69-6.69l6.35-10.87,1.51-4.35,3.67-3.51s-.66-1.17-.5-.83S643.73,610.88,643.73,610.88Z" transform="translate(69.96 -325)" style="fill:#464d5f"/><path d="M656.71,594.43s8.7,8.88,21.16,12a112.89,112.89,0,0,0,24.07,3.08s2-.52,1.88,1.36-5.12,3.93-8.71,2.39-2.56,1.19-2.39,1.37,2.73,1.53,3.07,2.21.86,2.56-2.39,2.56-10.24-1.87-13.48-4.43-7-4.27-6.31-2.22,2.56,6.65-2.39,3.92a26,26,0,0,1-7.86-6.82l-6.48-11.1-1.54-4.44-3.75-3.58a8.74,8.74,0,0,1,.51-.85C651.93,590.17,656.71,594.43,656.71,594.43Z" transform="translate(69.96 -325)" style="fill:#363c49"/><polygon points="723.23 260.1 731.85 583.12 705.78 584 718.35 259.9 723.23 260.1" style="fill:#464d5f"/><path d="M653.36,584.9c0,1.51,8.53,323.22,8.53,323.22-3.65.12-11,1.93-13.84-.67-3.88-3.59-2.06-14.32-.79-18.61a23.92,23.92,0,0,0,1.23-5,25.43,25.43,0,0,0-.61-5.48c-1.1-7.24.81-14.55,1.36-21.85a11.13,11.13,0,0,0-.3-4.31c-.42-1.25-1.23-2.33-1.69-3.57-2.16-5.86,4.24-12,3-18.12-.61-3-3-5.51-3.25-8.58-.2-2.81,1.48-5.39,2-8.16,1.24-6.9-4.89-13.32-4.41-20.32.38-5.37,4.52-9.68,6.27-14.77,3.31-9.63-2.33-19.87-3-30a66.82,66.82,0,0,1,.11-7.49c.56-10.82.84-21.65,1.11-32.48l.42-16.94,1.21-48.33a107.72,107.72,0,0,0-.31-14.71c-.67-6-2.32-12.06-.66-17.82,1-3.34,3-6.46,3-9.94,0-4.29-3.15-8-3.23-12.17,0-1.93,0-2.94,1.69-3.76C651.56,584.85,653.37,585.07,653.36,584.9Z" transform="translate(69.96 -325)" style="fill:#363c49"/><path d="M645.31,591.06a40.25,40.25,0,0,1-17.13,9.67,91.56,91.56,0,0,1-19.49,2.49s-1.65-.42-1.52,1.1,4.15,3.18,7.05,1.94,2.07,1,1.93,1.1-2.21,1.25-2.48,1.8-.69,2.07,1.93,2.07,8.29-1.52,10.92-3.59,5.66-3.46,5.11-1.8-2.07,5.39,1.93,3.18a20.92,20.92,0,0,0,6.36-5.53l5.25-9,1.24-3.59,3-2.9s-.55-1-.41-.69S645.31,591.06,645.31,591.06Z" transform="translate(69.96 -325)" style="fill:#464d5f"/><path d="M810,589.81s21.88,22.31,53.2,30a284.53,284.53,0,0,0,60.5,7.72s5.15-1.29,4.72,3.43-12.87,9.87-21.88,6-6.44,3-6,3.43,6.87,3.86,7.72,5.58,2.15,6.43-6,6.43-25.75-4.72-33.9-11.15-17.59-10.73-15.87-5.58,6.43,16.73-6,9.87a65.1,65.1,0,0,1-19.73-17.16l-16.31-27.89-3.86-11.16-9.44-9s1.72-3,1.29-2.14S810,589.81,810,589.81Z" transform="translate(69.96 -325)" style="fill:#363c49"/><path d="M805.85,637.51s27.22,27.75,66.16,37.35a353.46,353.46,0,0,0,75.23,9.61s6.41-1.6,5.87,4.26-16,12.28-27.21,7.47-8,3.74-7.47,4.27,8.54,4.8,9.61,6.94,2.66,8-7.47,8-32-5.87-42.15-13.87-21.88-13.34-19.74-6.94,8,20.81-7.47,12.27a80.77,80.77,0,0,1-24.55-21.34l-20.27-34.68L801.59,637l-11.74-11.2a31.1,31.1,0,0,1,1.6-2.67C790.92,624.18,805.85,637.51,805.85,637.51Z" transform="translate(69.96 -325)" style="fill:#363c49"/><path d="M810.67,704.75s27.78,28.31,67.53,38.11A360.66,360.66,0,0,0,955,752.67s6.53-1.64,6,4.35-16.34,12.53-27.77,7.63-8.17,3.81-7.63,4.35,8.72,4.9,9.8,7.08,2.73,8.17-7.62,8.17-32.67-6-43-14.16-22.32-13.61-20.15-7.08,8.17,21.24-7.62,12.53a82.67,82.67,0,0,1-25.05-21.79l-20.69-35.39-4.9-14.16-12-11.43S796.52,689,796,690,810.67,704.75,810.67,704.75Z" transform="translate(69.96 -325)" style="fill:#363c49"/><path d="M782,629s-21.88,22.31-53.2,30a284.53,284.53,0,0,1-60.5,7.72s-5.15-1.29-4.72,3.43,12.88,9.87,21.88,6,6.44,3,6,3.43-6.86,3.86-7.72,5.58-2.15,6.43,6,6.43,25.74-4.72,33.89-11.15,17.59-10.73,15.87-5.58-6.43,16.73,6,9.87a65.22,65.22,0,0,0,19.74-17.16l16.3-27.89,3.86-11.16,9.44-9s-1.72-3-1.29-2.14S782,629,782,629Z" transform="translate(69.96 -325)" style="fill:#464d5f"/><path d="M786.19,683.12S759,710.86,720,720.47a353.81,353.81,0,0,1-75.23,9.6s-6.4-1.6-5.87,4.27,16,12.27,27.21,7.47,8,3.73,7.47,4.27-8.54,4.8-9.6,6.93-2.67,8,7.47,8,32-5.87,42.15-13.87,21.87-13.34,19.74-6.94-8,20.81,7.47,12.27a81,81,0,0,0,24.54-21.34l20.27-34.68,4.81-13.87,11.73-11.21s-2.13-3.73-1.6-2.67S786.19,683.12,786.19,683.12Z" transform="translate(69.96 -325)" style="fill:#464d5f"/><path d="M781.37,749.13s-27.77,28.31-67.53,38.12a361,361,0,0,1-76.78,9.8s-6.53-1.64-6,4.35,16.34,12.53,27.78,7.63,8.16,3.81,7.62,4.35-8.71,4.9-9.8,7.08-2.73,8.17,7.62,8.17,32.67-6,43-14.16,22.33-13.61,20.15-7.08-8.17,21.24,7.62,12.53a82.56,82.56,0,0,0,25-21.78l20.69-35.4,4.9-14.16,12-11.43s-2.17-3.81-1.63-2.73S781.37,749.13,781.37,749.13Z" transform="translate(69.96 -325)" style="fill:#464d5f"/><path d="M780,574s-19.62,20-47.71,26.93A254.84,254.84,0,0,1,678,607.87s-4.61-1.16-4.23,3.08,11.54,8.85,19.62,5.38,5.77,2.7,5.39,3.08-6.16,3.46-6.93,5-1.92,5.77,5.39,5.77,23.08-4.23,30.39-10,15.78-9.62,14.24-5-5.77,15,5.39,8.85A58.41,58.41,0,0,0,765,608.64l14.62-25,3.47-10,8.46-8.08s-1.54-2.7-1.15-1.93S780,574,780,574Z" transform="translate(69.96 -325)" style="fill:#464d5f"/><path d="M811.73,541.78s19.08,19.45,46.38,26.19a248,248,0,0,0,52.74,6.73s4.49-1.12,4.11,3-11.22,8.6-19.07,5.24-5.61,2.62-5.24,3,6,3.37,6.73,4.86,1.87,5.61-5.23,5.61-22.44-4.11-29.55-9.72-15.34-9.35-13.84-4.87,5.61,14.59-5.24,8.61a56.84,56.84,0,0,1-17.2-15L812.1,551.13l-3.36-9.72-8.23-7.85s1.5-2.62,1.12-1.88S811.73,541.78,811.73,541.78Z" transform="translate(69.96 -325)" style="fill:#363c49"/><path d="M781.91,524.62s-16.37,16.68-39.79,22.46a212.86,212.86,0,0,1-45.24,5.77s-3.85-1-3.53,2.57,9.62,7.38,16.36,4.49,4.82,2.25,4.49,2.57-5.13,2.89-5.77,4.17-1.61,4.81,4.49,4.81,19.25-3.53,25.35-8.34,13.15-8,11.87-4.17-4.81,12.51,4.49,7.38a48.64,48.64,0,0,0,14.76-12.84l12.19-20.85,2.89-8.34,7.06-6.74s-1.28-2.25-1-1.61S781.91,524.62,781.91,524.62Z" transform="translate(69.96 -325)" style="fill:#464d5f"/><path d="M809.13,499.68s15.62,15.92,38,21.43a203,203,0,0,0,43.18,5.51s3.67-.92,3.36,2.45-9.18,7-15.61,4.29-4.6,2.14-4.29,2.45,4.9,2.75,5.51,4,1.53,4.59-4.28,4.59-18.38-3.37-24.19-8-12.56-7.65-11.33-4,4.59,11.94-4.29,7a46.36,46.36,0,0,1-14.08-12.25l-11.64-19.9-2.75-8L800,492.94a17.07,17.07,0,0,1,.92-1.53C800.56,492,809.13,499.68,809.13,499.68Z" transform="translate(69.96 -325)" style="fill:#363c49"/><path d="M785.29,482.25S771.83,496,752.56,500.73a175.16,175.16,0,0,1-37.23,4.75s-3.17-.79-2.91,2.12,7.93,6.07,13.47,3.69,4,1.85,3.7,2.11-4.23,2.38-4.76,3.44-1.32,4,3.7,4,15.84-2.91,20.86-6.87,10.82-6.6,9.77-3.43-4,10.3,3.69,6.07A40,40,0,0,0,775,506l10-17.16,2.38-6.86,5.81-5.55a13.94,13.94,0,0,0-.8-1.32C792.69,475.65,785.29,482.25,785.29,482.25Z" transform="translate(69.96 -325)" style="fill:#464d5f"/><path d="M805.79,456.28s13.75,14,33.42,18.87a178.72,178.72,0,0,0,38,4.85s3.24-.81,3,2.16-8.09,6.19-13.75,3.77-4,1.89-3.77,2.16,4.31,2.42,4.85,3.5,1.35,4-3.77,4-16.17-3-21.3-7-11.05-6.73-10-3.5,4,10.51-3.77,6.2a40.8,40.8,0,0,1-12.4-10.78L806.06,463l-2.43-7-5.93-5.66s1.08-1.88.81-1.35S805.79,456.28,805.79,456.28Z" transform="translate(69.96 -325)" style="fill:#363c49"/><polygon points="870.33 116.54 883.94 626.6 842.77 628 862.61 116.23 870.33 116.54" style="fill:#464d5f"/><path d="M800.51,441.23c0,2.38,13.47,510.37,13.47,510.37-5.78.2-17.43,3.06-21.86-1.05-6.12-5.67-3.25-22.61-1.25-29.38a37.2,37.2,0,0,0,2-7.86c.2-2.9-.54-5.77-1-8.65-1.73-11.42,1.29-23,2.15-34.5a17.53,17.53,0,0,0-.47-6.81c-.66-2-1.94-3.68-2.66-5.63-3.42-9.25,6.69-18.94,4.73-28.61-1-4.76-4.78-8.71-5.12-13.56-.32-4.43,2.32-8.5,3.11-12.87,2-10.9-7.72-21-7-32.1.59-8.48,7.14-15.27,9.9-23.31,5.23-15.21-3.69-31.39-4.72-47.43A101.53,101.53,0,0,1,792,688c.89-17.08,1.32-34.18,1.74-51.28l.67-26.75,1.91-76.32c.2-7.75.39-15.53-.48-23.23-1.06-9.4-3.67-19-1.05-28.13,1.52-5.28,4.78-10.2,4.73-15.69-.07-6.78-5-12.57-5.1-19.23,0-3.05.08-4.63,2.66-5.93C797.65,441.15,800.52,441.49,800.51,441.23Z" transform="translate(69.96 -325)" style="fill:#363c49"/><path d="M787.79,451s-11.13,11.34-27,15.27A144.59,144.59,0,0,1,730,470.15s-2.62-.66-2.4,1.74,6.55,5,11.13,3.06,3.27,1.53,3,1.74-3.49,2-3.92,2.84-1.09,3.27,3,3.27,13.09-2.4,17.24-5.67,8.94-5.45,8.07-2.84-3.27,8.51,3.06,5a33.13,33.13,0,0,0,10-8.72l8.29-14.19,2-5.67,4.8-4.58a12.5,12.5,0,0,0-.66-1.09C793.9,445.49,787.79,451,787.79,451Z" transform="translate(69.96 -325)" style="fill:#464d5f"/><path d="M1325.22,626.36s17.87,18.22,43.45,24.53a232.2,232.2,0,0,0,49.41,6.31s4.21-1.05,3.86,2.8-10.52,8.06-17.87,4.91-5.26,2.45-4.91,2.8,5.61,3.15,6.31,4.56,1.75,5.25-4.91,5.25-21-3.85-27.68-9.11-14.37-8.76-13-4.55,5.26,13.66-4.9,8.06a53,53,0,0,1-16.12-14l-13.32-22.78-3.15-9.11-7.71-7.36s1.4-2.45,1-1.75S1325.22,626.36,1325.22,626.36Z" transform="translate(69.96 -325)" style="fill:#363c49"/><path d="M1321.82,665.32s22.23,22.66,54,30.51a289,289,0,0,0,61.45,7.84s5.22-1.31,4.79,3.49-13.07,10-22.23,6.1-6.53,3-6.1,3.48,7,3.92,7.85,5.67,2.18,6.53-6.1,6.53-26.15-4.79-34.43-11.33S1363.22,706.72,1365,712s6.53,17-6.11,10a66.08,66.08,0,0,1-20-17.43l-16.56-28.32-3.92-11.34-9.59-9.15a24.92,24.92,0,0,1,1.31-2.18C1309.62,654.43,1321.82,665.32,1321.82,665.32Z" transform="translate(69.96 -325)" style="fill:#363c49"/><path d="M1325.76,720.23s22.68,23.13,55.15,31.14a295,295,0,0,0,62.71,8s5.34-1.33,4.9,3.56-13.35,10.23-22.69,6.23-6.67,3.11-6.22,3.56,7.11,4,8,5.78,2.23,6.67-6.23,6.67-26.68-4.89-35.13-11.56-18.24-11.12-16.46-5.79,6.67,17.35-6.23,10.23a67.36,67.36,0,0,1-20.45-17.79l-16.91-28.91-4-11.56-9.78-9.34s1.78-3.12,1.33-2.23S1325.76,720.23,1325.76,720.23Z" transform="translate(69.96 -325)" style="fill:#363c49"/><path d="M1302.36,658.4s-17.87,18.22-43.45,24.53a232.2,232.2,0,0,1-49.41,6.31s-4.2-1-3.85,2.8,10.51,8.06,17.87,4.91,5.25,2.45,4.9,2.8-5.6,3.16-6.3,4.56-1.76,5.25,4.9,5.25,21-3.85,27.68-9.11,14.37-8.76,13-4.55-5.26,13.66,4.91,8.06a53.2,53.2,0,0,0,16.12-14L1302,667.16l3.16-9.11,7.71-7.36a20.26,20.26,0,0,0-1.06-1.75C1312.17,649.64,1302.36,658.4,1302.36,658.4Z" transform="translate(69.96 -325)" style="fill:#464d5f"/><path d="M1305.76,702.57s-22.22,22.66-54,30.51a289,289,0,0,1-61.44,7.84s-5.23-1.31-4.8,3.49,13.08,10,22.23,6.1,6.54,3,6.1,3.48-7,3.92-7.84,5.67-2.18,6.53,6.1,6.53,26.14-4.79,34.42-11.33,17.87-10.89,16.13-5.66-6.54,17,6.1,10a65.93,65.93,0,0,0,20-17.43l16.56-28.32,3.93-11.34,9.58-9.15s-1.74-3.05-1.3-2.18S1305.76,702.57,1305.76,702.57Z" transform="translate(69.96 -325)" style="fill:#464d5f"/><path d="M1301.82,756.48s-22.68,23.13-55.15,31.14a295,295,0,0,1-62.71,8s-5.34-1.33-4.89,3.56,13.34,10.23,22.68,6.23,6.67,3.11,6.23,3.56-7.12,4-8,5.78-2.22,6.67,6.23,6.67,26.68-4.89,35.14-11.56,18.23-11.12,16.45-5.79-6.67,17.35,6.23,10.23a67.32,67.32,0,0,0,20.46-17.79l16.9-28.91,4-11.56,9.79-9.34a25.52,25.52,0,0,0-1.34-2.23C1314.28,745.36,1301.82,756.48,1301.82,756.48Z" transform="translate(69.96 -325)" style="fill:#464d5f"/><path d="M1300.7,613.45s-16,16.34-39,22a208.19,208.19,0,0,1-44.31,5.66s-3.77-1-3.45,2.51,9.42,7.23,16,4.4,4.72,2.2,4.4,2.51-5,2.83-5.65,4.09-1.58,4.71,4.4,4.71,18.85-3.45,24.82-8.17,12.88-7.85,11.63-4.08-4.72,12.25,4.4,7.23a47.66,47.66,0,0,0,14.45-12.57l11.94-20.43,2.83-8.17,6.91-6.6a17.78,17.78,0,0,0-.94-1.57C1309.5,605.6,1300.7,613.45,1300.7,613.45Z" transform="translate(69.96 -325)" style="fill:#464d5f"/><path d="M1326.62,587.13s15.58,15.89,37.88,21.39a202.91,202.91,0,0,0,43.08,5.49s3.67-.91,3.36,2.45-9.16,7-15.58,4.28-4.58,2.13-4.28,2.44,4.89,2.75,5.5,4,1.53,4.58-4.28,4.58-18.32-3.36-24.13-7.94-12.52-7.64-11.3-4,4.58,11.91-4.28,7a46.3,46.3,0,0,1-14-12.22l-11.61-19.86-2.75-7.94-6.72-6.42s1.22-2.14.91-1.53S1326.62,587.13,1326.62,587.13Z" transform="translate(69.96 -325)" style="fill:#363c49"/><path d="M1302.26,573.11s-13.36,13.63-32.49,18.34a173.66,173.66,0,0,1-37,4.72s-3.14-.78-2.88,2.1,7.86,6,13.37,3.67,3.93,1.83,3.67,2.09-4.2,2.36-4.72,3.41-1.31,3.93,3.67,3.93,15.72-2.88,20.7-6.81,10.75-6.55,9.7-3.41-3.93,10.22,3.67,6a39.64,39.64,0,0,0,12-10.48l10-17,2.36-6.81,5.76-5.51s-1-1.83-.78-1.31S1302.26,573.11,1302.26,573.11Z" transform="translate(69.96 -325)" style="fill:#464d5f"/><path d="M1324.5,552.74s12.76,13,31,17.51a165.9,165.9,0,0,0,35.27,4.5s3-.75,2.75,2-7.51,5.75-12.76,3.5-3.75,1.75-3.5,2,4,2.25,4.5,3.25,1.25,3.75-3.5,3.75-15-2.75-19.76-6.5-10.25-6.25-9.25-3.25,3.75,9.75-3.5,5.75a37.9,37.9,0,0,1-11.5-10L1324.75,559l-2.25-6.5-5.5-5.25s1-1.75.75-1.25S1324.5,552.74,1324.5,552.74Z" transform="translate(69.96 -325)" style="fill:#363c49"/><path d="M1305,538.51s-11,11.21-26.74,15.09a143,143,0,0,1-30.41,3.88s-2.58-.64-2.37,1.73,6.47,5,11,3,3.24,1.51,3,1.72-3.45,1.94-3.88,2.81-1.08,3.23,3,3.23,12.94-2.37,17-5.61,8.84-5.39,8-2.8-3.23,8.41,3,5a32.73,32.73,0,0,0,9.92-8.63l8.2-14,1.94-5.61,4.74-4.53a11.66,11.66,0,0,0-.65-1.08C1311.07,533.11,1305,538.51,1305,538.51Z" transform="translate(69.96 -325)" style="fill:#464d5f"/><path d="M1321.77,517.3s11.23,11.44,27.3,15.41a146,146,0,0,0,31,4s2.64-.66,2.42,1.76-6.61,5.06-11.23,3.08-3.3,1.54-3.08,1.76,3.52,2,4,2.86,1.1,3.31-3.08,3.31-13.21-2.43-17.39-5.73-9-5.5-8.15-2.86,3.31,8.59-3.08,5.06a33.35,33.35,0,0,1-10.12-8.8L1322,522.8l-2-5.72-4.84-4.63s.88-1.54.66-1.1S1321.77,517.3,1321.77,517.3Z" transform="translate(69.96 -325)" style="fill:#363c49"/><polygon points="1387.3 180.25 1398.42 596.86 1364.79 598 1381 180 1387.3 180.25" style="fill:#464d5f"/><path d="M1317.46,505c0,1.94,11,416.86,11,416.86-4.72.16-14.24,2.49-17.85-.86-5-4.63-2.66-18.47-1-24a30.64,30.64,0,0,0,1.58-6.41,32,32,0,0,0-.79-7.07c-1.42-9.33,1-18.77,1.76-28.18a14.22,14.22,0,0,0-.39-5.56c-.54-1.61-1.59-3-2.17-4.6-2.8-7.56,5.46-15.47,3.86-23.37-.79-3.89-3.9-7.11-4.19-11.07-.25-3.62,1.91-7,2.55-10.52,1.6-8.9-6.31-17.19-5.68-26.21.48-6.93,5.83-12.48,8.09-19,4.27-12.42-3-25.64-3.86-38.74a82.13,82.13,0,0,1,.15-9.67c.72-13.95,1.07-27.92,1.42-41.88l.54-21.85,1.56-62.34a138,138,0,0,0-.39-19c-.87-7.67-3-15.55-.86-23,1.24-4.32,3.91-8.33,3.86-12.82-.05-5.53-4.07-10.27-4.16-15.7,0-2.5.06-3.79,2.17-4.85C1315.13,504.93,1317.46,505.21,1317.46,505Z" transform="translate(69.96 -325)" style="fill:#363c49"/><path d="M1307.07,512.94s-9.09,9.27-22.1,12.47a118,118,0,0,1-25.12,3.21s-2.14-.53-2,1.43,5.34,4.1,9.08,2.49,2.68,1.25,2.5,1.43-2.85,1.6-3.21,2.32-.89,2.67,2.5,2.67,10.69-2,14.07-4.64,7.31-4.45,6.6-2.31-2.68,7,2.49,4.1a27,27,0,0,0,8.2-7.13l6.77-11.58,1.61-4.64,3.92-3.74a10.08,10.08,0,0,0-.54-.89C1312.06,508.48,1307.07,512.94,1307.07,512.94Z" transform="translate(69.96 -325)" style="fill:#464d5f"/><path d="M1521,512.91s21.63,22.06,52.6,29.69a281,281,0,0,0,59.81,7.64s5.09-1.27,4.66,3.39-12.72,9.76-21.63,5.94-6.36,3-5.94,3.39,6.79,3.82,7.64,5.52,2.12,6.36-5.94,6.36-25.45-4.66-33.51-11-17.4-10.6-15.7-5.51,6.36,16.54-5.94,9.76a64.33,64.33,0,0,1-19.51-17l-16.12-27.58-3.82-11-9.33-8.91s1.7-3,1.27-2.12S1521,512.91,1521,512.91Z" transform="translate(69.96 -325)" style="fill:#363c49"/><path d="M1516.88,560.07s26.91,27.43,65.42,36.93a349.87,349.87,0,0,0,74.38,9.49s6.33-1.58,5.8,4.22-15.83,12.14-26.9,7.39-7.92,3.69-7.39,4.22,8.44,4.75,9.5,6.86,2.63,7.91-7.39,7.91-31.65-5.8-41.67-13.71-21.63-13.19-19.52-6.86,7.91,20.57-7.39,12.13a79.88,79.88,0,0,1-24.26-21.1l-20-34.29-4.75-13.72-11.6-11.07s2.11-3.7,1.58-2.64S1516.88,560.07,1516.88,560.07Z" transform="translate(69.96 -325)" style="fill:#363c49"/><path d="M1521.65,626.55s27.46,28,66.76,37.68a356.89,356.89,0,0,0,75.91,9.69s6.47-1.61,5.93,4.31-16.16,12.39-27.46,7.54-8.08,3.77-7.54,4.31,8.61,4.84,9.69,7,2.69,8.07-7.54,8.07-32.3-5.92-42.53-14-22.07-13.46-19.92-7,8.08,21-7.54,12.39A81.67,81.67,0,0,1,1542.65,675l-20.46-35-4.85-14L1505.5,614.7s2.15-3.77,1.61-2.69S1521.65,626.55,1521.65,626.55Z" transform="translate(69.96 -325)" style="fill:#363c49"/><path d="M1493.32,551.7s-21.63,22.06-52.6,29.69a281,281,0,0,1-59.81,7.64s-5.09-1.28-4.66,3.39,12.72,9.76,21.63,5.94,6.36,3,5.94,3.39-6.79,3.82-7.64,5.52-2.12,6.36,5.94,6.36,25.45-4.67,33.51-11,17.4-10.6,15.7-5.51-6.36,16.54,5.94,9.75a64.19,64.19,0,0,0,19.51-17l16.12-27.57,3.82-11,9.33-8.91s-1.7-3-1.27-2.12S1493.32,551.7,1493.32,551.7Z" transform="translate(69.96 -325)" style="fill:#464d5f"/><path d="M1497.44,605.16s-26.91,27.44-65.42,36.93a349.52,349.52,0,0,1-74.38,9.5s-6.33-1.59-5.8,4.22,15.83,12.13,26.9,7.38,7.92,3.69,7.39,4.22-8.44,4.75-9.5,6.86-2.63,7.91,7.39,7.91,31.65-5.8,41.67-13.71,21.63-13.19,19.52-6.86-7.91,20.57,7.39,12.13a79.88,79.88,0,0,0,24.26-21.1l20.05-34.29,4.75-13.71,11.6-11.08s-2.11-3.69-1.58-2.64S1497.44,605.16,1497.44,605.16Z" transform="translate(69.96 -325)" style="fill:#464d5f"/><path d="M1492.67,670.43s-27.46,28-66.76,37.68a356.53,356.53,0,0,1-75.91,9.7s-6.46-1.62-5.93,4.3,16.16,12.39,27.46,7.54,8.08,3.77,7.54,4.31-8.61,4.84-9.69,7-2.69,8.07,7.54,8.07,32.3-5.92,42.53-14,22.07-13.47,19.92-7-8.08,21,7.54,12.38a81.67,81.67,0,0,0,24.76-21.54l20.46-35,4.85-14,11.84-11.31s-2.15-3.77-1.61-2.69S1492.67,670.43,1492.67,670.43Z" transform="translate(69.96 -325)" style="fill:#464d5f"/><path d="M1491.31,497.29s-19.4,19.78-47.17,26.62a252.08,252.08,0,0,1-53.64,6.85s-4.56-1.14-4.18,3,11.41,8.75,19.4,5.33,5.71,2.66,5.32,3-6.08,3.43-6.84,5-1.9,5.7,5.32,5.7,22.83-4.18,30-9.89,15.6-9.51,14.08-4.94-5.71,14.83,5.33,8.75a57.63,57.63,0,0,0,17.49-15.22l14.46-24.72,3.42-9.89,8.37-8a21.34,21.34,0,0,0-1.14-1.9C1502,487.78,1491.31,497.29,1491.31,497.29Z" transform="translate(69.96 -325)" style="fill:#464d5f"/><path d="M1522.69,465.42s18.86,19.23,45.86,25.89a245,245,0,0,0,52.14,6.66s4.44-1.11,4.07,2.95-11.09,8.51-18.86,5.18-5.55,2.59-5.18,3,5.92,3.33,6.66,4.81,1.85,5.54-5.18,5.54S1580,515.35,1573,509.8s-15.16-9.25-13.69-4.81,5.55,14.42-5.17,8.51a56,56,0,0,1-17-14.8l-14.06-24-3.33-9.62-8.13-7.76s1.48-2.59,1.11-1.85S1522.69,465.42,1522.69,465.42Z" transform="translate(69.96 -325)" style="fill:#363c49"/><path d="M1493.2,448.45s-16.17,16.49-39.33,22.21a210.31,210.31,0,0,1-44.73,5.71s-3.81-1-3.49,2.53,9.51,7.3,16.18,4.44,4.75,2.23,4.44,2.54-5.08,2.86-5.71,4.13-1.59,4.76,4.44,4.76,19-3.49,25.06-8.25,13-7.93,11.74-4.13-4.76,12.38,4.44,7.3A48.12,48.12,0,0,0,1480.83,477l12.06-20.62,2.85-8.25,7-6.66s-1.27-2.22-1-1.59S1493.2,448.45,1493.2,448.45Z" transform="translate(69.96 -325)" style="fill:#464d5f"/><path d="M1520.13,423.79s15.44,15.74,37.54,21.19a200.62,200.62,0,0,0,42.68,5.45s3.63-.91,3.33,2.42-9.08,7-15.44,4.24-4.54,2.12-4.24,2.42,4.85,2.73,5.45,3.94,1.52,4.54-4.24,4.54-18.16-3.33-23.91-7.87-12.41-7.57-11.2-3.94,4.54,11.81-4.24,7A46,46,0,0,1,1531.93,451l-11.5-19.68-2.73-7.87-6.66-6.36a16.42,16.42,0,0,1,.91-1.51C1511.65,416.22,1520.13,423.79,1520.13,423.79Z" transform="translate(69.96 -325)" style="fill:#363c49"/><path d="M1496.55,406.56s-13.31,13.57-32.36,18.27a173,173,0,0,1-36.81,4.7s-3.13-.78-2.87,2.09,7.83,6,13.31,3.65,3.92,1.83,3.65,2.09-4.17,2.35-4.69,3.4-1.31,3.91,3.65,3.91,15.66-2.87,20.62-6.78,10.71-6.53,9.66-3.4-3.91,10.18,3.66,6a39.5,39.5,0,0,0,12-10.45l9.92-17,2.35-6.79,5.75-5.48s-1.05-1.83-.79-1.31S1496.55,406.56,1496.55,406.56Z" transform="translate(69.96 -325)" style="fill:#464d5f"/><path d="M1516.82,380.88s13.59,13.86,33,18.66a177,177,0,0,0,37.58,4.79s3.19-.79,2.93,2.14-8,6.13-13.59,3.73-4,1.86-3.73,2.13,4.26,2.4,4.79,3.46,1.34,4-3.73,4-16-2.93-21-6.93-10.93-6.66-9.86-3.46,4,10.39-3.73,6.13a40.48,40.48,0,0,1-12.26-10.66l-10.12-17.32-2.4-6.93-5.87-5.6s1.07-1.86.8-1.33S1516.82,380.88,1516.82,380.88Z" transform="translate(69.96 -325)" style="fill:#363c49"/><polygon points="1581.42 41.31 1594.87 545.62 1554.17 547 1573.79 41 1581.42 41.31" style="fill:#464d5f"/><path d="M1511.6,366c0,2.35,13.31,504.62,13.31,504.62-5.7.19-17.23,3-21.61-1-6-5.61-3.21-22.36-1.23-29.05a37.57,37.57,0,0,0,1.92-7.77c.2-2.87-.53-5.71-1-8.55-1.71-11.3,1.27-22.72,2.13-34.12a17.51,17.51,0,0,0-.47-6.73c-.65-1.94-1.92-3.64-2.63-5.56-3.38-9.15,6.61-18.73,4.68-28.29-1-4.71-4.73-8.62-5.07-13.41-.32-4.38,2.3-8.4,3.08-12.73,1.94-10.78-7.64-20.8-6.87-31.73.58-8.39,7-15.1,9.78-23,5.17-15-3.64-31-4.67-46.9a101.38,101.38,0,0,1,.18-11.69c.87-16.89,1.3-33.8,1.72-50.71l.66-26.44,1.89-75.46c.19-7.66.38-15.35-.48-23-1-9.29-3.63-18.83-1-27.81,1.51-5.22,4.73-10.08,4.68-15.52-.07-6.69-4.93-12.42-5-19-.06-3,.07-4.58,2.63-5.86C1508.78,365.92,1511.6,366.26,1511.6,366Z" transform="translate(69.96 -325)" style="fill:#363c49"/><path d="M1499,375.61s-11,11.22-26.75,15.1a142.66,142.66,0,0,1-30.41,3.89s-2.59-.65-2.38,1.72,6.48,5,11,3,3.23,1.51,3,1.73-3.46,1.94-3.89,2.8-1.08,3.24,3,3.24,12.95-2.38,17-5.61,8.84-5.39,8-2.81-3.24,8.42,3,5a32.88,32.88,0,0,0,9.92-8.63l8.2-14,1.94-5.6,4.75-4.53s-.87-1.51-.65-1.08S1499,375.61,1499,375.61Z" transform="translate(69.96 -325)" style="fill:#464d5f"/><path d="M991.18,770.88s16,16.34,39,22a208.31,208.31,0,0,0,44.32,5.66s3.78-.94,3.46,2.52-9.43,7.23-16,4.4-4.72,2.2-4.4,2.51,5,2.83,5.66,4.09,1.57,4.71-4.41,4.71-18.86-3.45-24.83-8.17-12.89-7.86-11.63-4.09,4.71,12.26-4.4,7.23a47.74,47.74,0,0,1-14.47-12.57L991.5,778.74l-2.83-8.18-6.92-6.6a16.93,16.93,0,0,1,1-1.57C982.38,763,991.18,770.88,991.18,770.88Z" transform="translate(69.96 -325)" style="fill:#363c49"/><path d="M988.14,805.83s19.93,20.33,48.47,27.36a259.09,259.09,0,0,0,55.13,7s4.69-1.17,4.3,3.13-11.73,9-19.94,5.47-5.86,2.74-5.47,3.13,6.25,3.52,7,5.08,2,5.87-5.47,5.87-23.46-4.3-30.89-10.17-16-9.77-14.46-5.08,5.86,15.25-5.47,9a59.22,59.22,0,0,1-18-15.64L988.53,815.6,985,805.44l-8.6-8.21s1.56-2.74,1.17-2S988.14,805.83,988.14,805.83Z" transform="translate(69.96 -325)" style="fill:#363c49"/><path d="M991.67,855.09S1012,875.84,1041.14,883a264.64,264.64,0,0,0,56.27,7.18s4.78-1.19,4.38,3.2-12,9.17-20.35,5.58-6,2.8-5.58,3.2,6.38,3.59,7.18,5.18,2,6-5.59,6S1053.51,909,1045.93,903s-16.36-10-14.76-5.18,6,15.56-5.59,9.17a60.4,60.4,0,0,1-18.35-16l-15.16-25.93-3.6-10.38-8.77-8.38s1.59-2.79,1.19-2S991.67,855.09,991.67,855.09Z" transform="translate(69.96 -325)" style="fill:#363c49"/><path d="M970.68,799.62s-16,16.35-39,22a208.31,208.31,0,0,1-44.32,5.66s-3.78-.95-3.46,2.51,9.43,7.23,16,4.4,4.72,2.2,4.4,2.52-5,2.83-5.66,4.08-1.57,4.72,4.41,4.72,18.86-3.46,24.83-8.17,12.89-7.86,11.63-4.09-4.71,12.26,4.4,7.23a47.69,47.69,0,0,0,14.47-12.58l11.94-20.43,2.83-8.17,6.92-6.61a16.93,16.93,0,0,0-1-1.57C979.48,791.76,970.68,799.62,970.68,799.62Z" transform="translate(69.96 -325)" style="fill:#464d5f"/><path d="M973.72,839.25s-19.93,20.33-48.47,27.36a259.09,259.09,0,0,1-55.13,7s-4.69-1.17-4.3,3.13,11.73,9,19.94,5.47,5.86,2.74,5.47,3.13-6.25,3.52-7,5.08-2,5.87,5.47,5.87,23.46-4.31,30.88-10.17,16-9.77,14.47-5.08-5.86,15.25,5.47,9a59.37,59.37,0,0,0,18-15.64L973.33,849l3.52-10.16,8.6-8.21s-1.56-2.74-1.17-2S973.72,839.25,973.72,839.25Z" transform="translate(69.96 -325)" style="fill:#464d5f"/><path d="M970.19,887.61s-20.35,20.75-49.47,27.93a264.29,264.29,0,0,1-56.27,7.19s-4.78-1.2-4.38,3.19,12,9.18,20.34,5.58,6,2.8,5.59,3.2-6.38,3.59-7.18,5.18-2,6,5.59,6,23.94-4.39,31.52-10.38,16.36-10,14.76-5.18-6,15.56,5.59,9.17a60.4,60.4,0,0,0,18.35-16l15.16-25.93,3.6-10.38,8.77-8.38s-1.59-2.79-1.19-2S970.19,887.61,970.19,887.61Z" transform="translate(69.96 -325)" style="fill:#464d5f"/><path d="M969.18,759.3S954.81,774,934.23,779a186.74,186.74,0,0,1-39.76,5.08s-3.38-.85-3.1,2.25,8.46,6.49,14.38,3.95,4.23,2,4,2.25-4.51,2.54-5.08,3.67-1.41,4.23,4,4.23,16.92-3.1,22.27-7.33,11.56-7,10.43-3.67-4.23,11,4,6.49a42.67,42.67,0,0,0,13-11.28l10.71-18.33,2.54-7.32,6.2-5.93a14.52,14.52,0,0,0-.85-1.4C977.08,752.25,969.18,759.3,969.18,759.3Z" transform="translate(69.96 -325)" style="fill:#464d5f"/><path d="M992.44,735.68s14,14.25,34,19.19a181.72,181.72,0,0,0,38.64,4.93s3.29-.82,3,2.19-8.22,6.31-14,3.84-4.11,1.92-3.84,2.19,4.39,2.47,4.93,3.57,1.37,4.11-3.83,4.11-16.45-3-21.66-7.13-11.23-6.85-10.14-3.56,4.12,10.69-3.83,6.3a41.49,41.49,0,0,1-12.61-11l-10.41-17.82-2.47-7.12-6-5.76s1.1-1.92.82-1.37S992.44,735.68,992.44,735.68Z" transform="translate(69.96 -325)" style="fill:#363c49"/><path d="M970.59,723.1s-12,12.23-29.16,16.46a155.89,155.89,0,0,1-33.15,4.23s-2.82-.7-2.58,1.88,7,5.41,12,3.29,3.52,1.65,3.29,1.89-3.76,2.11-4.23,3-1.18,3.53,3.29,3.53,14.11-2.59,18.57-6.11,9.64-5.88,8.7-3.06-3.53,9.17,3.29,5.41a35.62,35.62,0,0,0,10.82-9.41L970.35,729l2.12-6.11,5.17-4.94s-.94-1.65-.7-1.17S970.59,723.1,970.59,723.1Z" transform="translate(69.96 -325)" style="fill:#464d5f"/><path d="M990.54,704.83s11.44,11.67,27.82,15.7a148.65,148.65,0,0,0,31.63,4s2.7-.67,2.47,1.8-6.73,5.16-11.44,3.14-3.37,1.57-3.14,1.79,3.59,2,4,2.92,1.12,3.37-3.14,3.37-13.47-2.47-17.73-5.84-9.2-5.61-8.3-2.91,3.37,8.75-3.14,5.16a33.93,33.93,0,0,1-10.32-9l-8.53-14.58-2-5.84-4.93-4.71s.9-1.57.67-1.12S990.54,704.83,990.54,704.83Z" transform="translate(69.96 -325)" style="fill:#363c49"/><path d="M973.07,692.06s-9.87,10.06-24,13.54a128.32,128.32,0,0,1-27.28,3.48s-2.32-.58-2.13,1.55,5.81,4.45,9.87,2.71,2.9,1.35,2.71,1.55-3.1,1.74-3.48,2.51-1,2.9,2.71,2.9,11.6-2.12,15.28-5,7.93-4.83,7.16-2.51-2.9,7.54,2.71,4.45a29.41,29.41,0,0,0,8.9-7.74l7.35-12.57,1.74-5,4.25-4.07a9.85,9.85,0,0,0-.58-1C978.49,687.22,973.07,692.06,973.07,692.06Z" transform="translate(69.96 -325)" style="fill:#464d5f"/><path d="M988.09,673s10.07,10.27,24.49,13.83a131,131,0,0,0,27.84,3.55s2.37-.59,2.18,1.58-5.93,4.54-10.08,2.76-3,1.39-2.76,1.58,3.16,1.78,3.55,2.57,1,3-2.76,3-11.85-2.17-15.6-5.13-8.1-4.94-7.31-2.57,3,7.7-2.77,4.54a30,30,0,0,1-9.08-7.9L988.29,678l-1.78-5.14-4.35-4.14s.79-1.39.6-1S988.09,673,988.09,673Z" transform="translate(69.96 -325)" style="fill:#363c49"/><polygon points="1054.08 337.23 1064.05 710.98 1033.88 712 1048.42 337 1054.08 337.23" style="fill:#464d5f"/><path d="M984.22,662c0,1.74,9.87,374,9.87,374-4.23.14-12.77,2.23-16-.77-4.48-4.16-2.38-16.57-.91-21.53a27.56,27.56,0,0,0,1.42-5.76,29,29,0,0,0-.71-6.34c-1.27-8.37.94-16.83,1.57-25.28a12.68,12.68,0,0,0-.34-5c-.49-1.44-1.42-2.7-2-4.12-2.51-6.78,4.9-13.88,3.47-21-.71-3.49-3.51-6.38-3.76-9.94-.23-3.24,1.71-6.23,2.28-9.43,1.44-8-5.66-15.42-5.09-23.52.43-6.21,5.23-11.19,7.25-17.08,3.83-11.14-2.7-23-3.46-34.75a76,76,0,0,1,.13-8.67c.65-12.52,1-25.05,1.28-37.58l.49-19.6,1.4-55.92a123.89,123.89,0,0,0-.36-17c-.77-6.89-2.69-14-.77-20.61,1.12-3.87,3.51-7.48,3.47-11.5-.05-5-3.65-9.21-3.74-14.09,0-2.24.06-3.4,2-4.35C982.13,661.94,984.22,662.19,984.22,662Z" transform="translate(69.96 -325)" style="fill:#363c49"/><path d="M974.9,669.12s-8.15,8.32-19.82,11.19a106,106,0,0,1-22.55,2.88s-1.92-.48-1.76,1.28,4.8,3.68,8.16,2.24,2.4,1.12,2.24,1.28-2.56,1.44-2.88,2.08-.8,2.39,2.24,2.39,9.59-1.75,12.63-4.15,6.55-4,5.91-2.08-2.4,6.23,2.24,3.68a24.14,24.14,0,0,0,7.35-6.4l6.08-10.39,1.44-4.16,3.52-3.35s-.64-1.12-.48-.8S974.9,669.12,974.9,669.12Z" transform="translate(69.96 -325)" style="fill:#464d5f"/><path d="M1086,860s9.28,9.46,22.56,12.74a120.87,120.87,0,0,0,25.66,3.27s2.19-.54,2,1.46-5.46,4.18-9.28,2.55-2.73,1.27-2.55,1.45,2.92,1.64,3.28,2.37.91,2.73-2.55,2.73-10.92-2-14.37-4.73-7.47-4.55-6.74-2.37,2.73,7.1-2.55,4.19a27.81,27.81,0,0,1-8.37-7.28l-6.91-11.83-1.64-4.73-4-3.83s.72-1.27.54-.91S1086,860,1086,860Z" transform="translate(69.96 -325)" style="fill:#363c49"/><path d="M1084.19,880.18S1095.73,892,1112.25,896a149.85,149.85,0,0,0,31.91,4.08s2.72-.68,2.49,1.81-6.79,5.2-11.54,3.16-3.39,1.59-3.17,1.82,3.62,2,4.08,2.94,1.13,3.39-3.17,3.39-13.58-2.49-17.88-5.88-9.28-5.66-8.37-2.94,3.39,8.82-3.17,5.2a34.35,34.35,0,0,1-10.41-9.05l-8.6-14.71-2-5.89-5-4.75s.91-1.58.68-1.13S1084.19,880.18,1084.19,880.18Z" transform="translate(69.96 -325)" style="fill:#363c49"/><path d="M1086.24,908.7s11.78,12,28.64,16.17a153.38,153.38,0,0,0,32.57,4.15s2.77-.69,2.54,1.85-6.93,5.31-11.78,3.24-3.47,1.61-3.24,1.84,3.7,2.08,4.16,3,1.16,3.46-3.23,3.46-13.86-2.54-18.25-6-9.47-5.78-8.55-3,3.47,9-3.23,5.32a35.11,35.11,0,0,1-10.63-9.24l-8.77-15-2.08-6-5.08-4.85s.92-1.62.69-1.16S1086.24,908.7,1086.24,908.7Z" transform="translate(69.96 -325)" style="fill:#363c49"/><path d="M1074.09,876.59s-9.29,9.46-22.57,12.74a120.87,120.87,0,0,1-25.66,3.27s-2.18-.54-2,1.46,5.46,4.18,9.28,2.55,2.73,1.27,2.55,1.45-2.91,1.64-3.28,2.37-.91,2.73,2.55,2.73,10.92-2,14.38-4.73,7.46-4.55,6.73-2.37-2.73,7.1,2.55,4.19A27.81,27.81,0,0,0,1067,893l6.91-11.83,1.64-4.73,4-3.83s-.72-1.27-.54-.91S1074.09,876.59,1074.09,876.59Z" transform="translate(69.96 -325)" style="fill:#464d5f"/><path d="M1075.85,899.53s-11.54,11.76-28.06,15.84a150.14,150.14,0,0,1-31.91,4.07s-2.72-.68-2.49,1.81,6.79,5.21,11.54,3.17,3.39,1.58,3.17,1.81-3.62,2-4.08,2.94-1.13,3.4,3.17,3.4,13.58-2.49,17.88-5.89,9.28-5.66,8.37-2.94-3.39,8.83,3.17,5.21a34.3,34.3,0,0,0,10.41-9.06l8.6-14.71,2-5.88,5-4.75s-.91-1.59-.68-1.14S1075.85,899.53,1075.85,899.53Z" transform="translate(69.96 -325)" style="fill:#464d5f"/><path d="M1073.81,927.52s-11.78,12-28.65,16.17a153,153,0,0,1-32.56,4.16s-2.78-.69-2.54,1.85,6.92,5.31,11.78,3.23,3.46,1.62,3.23,1.85-3.7,2.08-4.16,3-1.15,3.47,3.24,3.47,13.85-2.54,18.24-6,9.47-5.77,8.55-3-3.47,9,3.23,5.31a35,35,0,0,0,10.63-9.24l8.77-15,2.08-6,5.08-4.85s-.92-1.61-.69-1.15S1073.81,927.52,1073.81,927.52Z" transform="translate(69.96 -325)" style="fill:#464d5f"/><path d="M1073.22,853.24s-8.32,8.49-20.24,11.43a108.07,108.07,0,0,1-23,2.94s-2-.49-1.79,1.3,4.89,3.75,8.32,2.29,2.45,1.14,2.29,1.3-2.61,1.47-2.94,2.12-.82,2.45,2.28,2.45,9.8-1.79,12.9-4.24,6.69-4.08,6-2.12-2.44,6.36,2.29,3.75a24.79,24.79,0,0,0,7.51-6.53l6.2-10.61,1.47-4.24,3.59-3.43s-.66-1.14-.49-.81S1073.22,853.24,1073.22,853.24Z" transform="translate(69.96 -325)" style="fill:#464d5f"/><path d="M1086.68,839.57s8.1,8.25,19.68,11.11a105,105,0,0,0,22.37,2.86s1.9-.48,1.74,1.27-4.76,3.64-8.09,2.22-2.38,1.11-2.22,1.27,2.54,1.42,2.86,2.06.79,2.38-2.23,2.38-9.51-1.75-12.53-4.13-6.5-4-5.87-2.06,2.38,6.19-2.22,3.65a24.1,24.1,0,0,1-7.3-6.35l-6-10.31-1.42-4.12-3.49-3.34s.63-1.11.47-.79S1086.68,839.57,1086.68,839.57Z" transform="translate(69.96 -325)" style="fill:#363c49"/><path d="M1074,832.29a39.56,39.56,0,0,1-16.87,9.53,90.24,90.24,0,0,1-19.19,2.45s-1.64-.41-1.5,1.09,4.08,3.13,6.94,1.9,2,1,1.91,1.09-2.18,1.23-2.45,1.77-.68,2,1.9,2,8.17-1.49,10.75-3.54,5.58-3.4,5-1.76-2,5.3,1.91,3.13a20.74,20.74,0,0,0,6.26-5.45l5.17-8.84,1.22-3.54,3-2.86s-.55-.95-.41-.68S1074,832.29,1074,832.29Z" transform="translate(69.96 -325)" style="fill:#464d5f"/><path d="M1085.58,821.71a37.81,37.81,0,0,0,16.11,9.1,86.34,86.34,0,0,0,18.31,2.33s1.56-.39,1.43,1-3.9,3-6.62,1.82-2,.91-1.82,1,2.08,1.17,2.34,1.69.64,1.95-1.82,1.95-7.8-1.43-10.26-3.38-5.33-3.25-4.81-1.69,2,5.07-1.82,3a19.74,19.74,0,0,1-6-5.2l-4.94-8.44-1.17-3.38-2.85-2.72s.52-.91.39-.65S1085.58,821.71,1085.58,821.71Z" transform="translate(69.96 -325)" style="fill:#363c49"/><path d="M1075.47,814.32a32.48,32.48,0,0,1-13.89,7.84,74.05,74.05,0,0,1-15.79,2s-1.34-.34-1.23.89,3.36,2.58,5.71,1.57,1.68.79,1.57.9-1.79,1-2,1.45-.56,1.68,1.56,1.68,6.72-1.23,8.85-2.91,4.59-2.8,4.14-1.45-1.68,4.36,1.57,2.57a16.9,16.9,0,0,0,5.15-4.48l4.26-7.28,1-2.91,2.46-2.35s-.45-.79-.34-.56S1075.47,814.32,1075.47,814.32Z" transform="translate(69.96 -325)" style="fill:#464d5f"/><path d="M1084.16,803.31a33.35,33.35,0,0,0,14.18,8,75.74,75.74,0,0,0,16.12,2.06s1.37-.35,1.26.91-3.43,2.63-5.83,1.6-1.72.8-1.6.92,1.83,1,2,1.48.58,1.72-1.6,1.72-6.86-1.26-9-3-4.68-2.86-4.23-1.49,1.72,4.46-1.6,2.63a17.45,17.45,0,0,1-5.26-4.57l-4.34-7.43-1-3-2.52-2.4s.46-.8.35-.57S1084.16,803.31,1084.16,803.31Z" transform="translate(69.96 -325)" style="fill:#363c49"/><polygon points="1151.83 472.05 1157.6 688.41 1140.13 689 1148.55 471.92 1151.83 472.05" style="fill:#464d5f"/><path d="M1081.93,796.92c0,1,5.71,216.49,5.71,216.49-2.45.08-7.39,1.29-9.27-.45-2.6-2.4-1.38-9.59-.53-12.46a16.21,16.21,0,0,0,.82-3.33,16.92,16.92,0,0,0-.41-3.67c-.74-4.85.54-9.75.91-14.64a7.4,7.4,0,0,0-.2-2.89c-.28-.83-.82-1.56-1.13-2.38-1.45-3.93,2.84-8,2-12.14-.41-2-2-3.7-2.18-5.75-.13-1.88,1-3.61,1.33-5.46.83-4.63-3.28-8.93-3-13.62.25-3.59,3-6.47,4.2-9.88,2.21-6.45-1.57-13.32-2-20.12a44.26,44.26,0,0,1,.08-5c.37-7.25.55-14.5.74-21.75l.28-11.35.81-32.37a73.71,73.71,0,0,0-.2-9.86c-.45-4-1.56-8.07-.45-11.93.65-2.24,2-4.32,2-6.65,0-2.88-2.12-5.33-2.17-8.16,0-1.29,0-2,1.13-2.52C1080.71,796.89,1081.93,797,1081.93,796.92Z" transform="translate(69.96 -325)" style="fill:#363c49"/><path d="M1076.53,801.05a26.88,26.88,0,0,1-11.48,6.47,61.11,61.11,0,0,1-13,1.67s-1.12-.28-1,.74,2.77,2.13,4.72,1.3,1.39.64,1.29.74-1.48.83-1.66,1.2-.47,1.39,1.29,1.39a15.15,15.15,0,0,0,7.31-2.41c1.76-1.39,3.8-2.31,3.43-1.2s-1.39,3.61,1.29,2.13a13.92,13.92,0,0,0,4.26-3.71l3.52-6,.83-2.41,2-1.94s-.37-.65-.28-.46A21.86,21.86,0,0,1,1076.53,801.05Z" transform="translate(69.96 -325)" style="fill:#464d5f"/><path d="M848.94,790.42s11.6,11.83,28.21,15.93a151,151,0,0,0,32.08,4.09s2.73-.68,2.5,1.82-6.83,5.23-11.6,3.19-3.42,1.59-3.19,1.82,3.64,2,4.1,3,1.13,3.42-3.19,3.42-13.65-2.51-18-5.92-9.33-5.69-8.42-3,3.41,8.88-3.18,5.24a34.51,34.51,0,0,1-10.47-9.1l-8.64-14.79-2-5.91-5-4.78s.91-1.59.68-1.14S848.94,790.42,848.94,790.42Z" transform="translate(69.96 -325)" style="fill:#363c49"/><path d="M846.74,815.72s14.42,14.71,35.08,19.8a187.6,187.6,0,0,0,39.89,5.09s3.39-.85,3.11,2.26-8.49,6.51-14.43,4-4.24,2-4,2.26,4.53,2.54,5.09,3.68,1.42,4.24-4,4.24-17-3.11-22.35-7.36-11.6-7.07-10.47-3.67,4.25,11-4,6.5a42.84,42.84,0,0,1-13-11.31L847,822.79l-2.55-7.36-6.22-5.94a15.22,15.22,0,0,1,.85-1.41C838.81,808.64,846.74,815.72,846.74,815.72Z" transform="translate(69.96 -325)" style="fill:#363c49"/><path d="M849.29,851.36s14.73,15,35.8,20.22a191.71,191.71,0,0,0,40.72,5.19s3.46-.86,3.17,2.31-8.66,6.64-14.72,4-4.33,2-4,2.31,4.62,2.59,5.2,3.75,1.45,4.33-4,4.33-17.32-3.18-22.81-7.51-11.84-7.22-10.68-3.75,4.33,11.26-4,6.64a43.8,43.8,0,0,1-13.28-11.55l-11-18.77-2.6-7.5L840.63,845s1.15-2,.86-1.44S849.29,851.36,849.29,851.36Z" transform="translate(69.96 -325)" style="fill:#363c49"/><path d="M834.1,811.22s-11.6,11.83-28.21,15.93a151,151,0,0,1-32.07,4.09s-2.73-.68-2.51,1.82,6.83,5.24,11.61,3.19,3.41,1.59,3.18,1.82-3.64,2-4.09,3-1.14,3.41,3.18,3.41,13.65-2.5,18-5.92,9.33-5.68,8.42-2.95-3.41,8.87,3.18,5.23a34.51,34.51,0,0,0,10.47-9.1l8.64-14.79,2-5.91,5-4.78a12.18,12.18,0,0,0-.69-1.14C840.47,805.54,834.1,811.22,834.1,811.22Z" transform="translate(69.96 -325)" style="fill:#464d5f"/><path d="M836.31,839.9s-14.43,14.71-35.08,19.8a187.66,187.66,0,0,1-39.89,5.09s-3.4-.84-3.12,2.27,8.49,6.5,14.43,4,4.25,2,4,2.26-4.52,2.55-5.09,3.68-1.41,4.24,4,4.24,17-3.11,22.35-7.35,11.6-7.08,10.47-3.68-4.24,11,4,6.51a43,43,0,0,0,13-11.32L836,847l2.55-7.35,6.22-6s-1.13-2-.84-1.41S836.31,839.9,836.31,839.9Z" transform="translate(69.96 -325)" style="fill:#464d5f"/><path d="M833.75,874.9s-14.72,15-35.8,20.21a191.36,191.36,0,0,1-40.72,5.2s-3.46-.87-3.17,2.31,8.66,6.64,14.72,4,4.34,2,4.05,2.31-4.62,2.6-5.2,3.75-1.44,4.33,4,4.33,17.33-3.17,22.81-7.5,11.84-7.22,10.69-3.76-4.34,11.26,4,6.64a43.8,43.8,0,0,0,13.28-11.55l11-18.76,2.6-7.51,6.35-6.06s-1.15-2-.86-1.45S833.75,874.9,833.75,874.9Z" transform="translate(69.96 -325)" style="fill:#464d5f"/><path d="M833,782s-10.4,10.61-25.3,14.28A134.91,134.91,0,0,1,779,800s-2.45-.62-2.25,1.63,6.12,4.69,10.41,2.85,3.06,1.43,2.85,1.64-3.26,1.83-3.67,2.65-1,3.06,2.86,3.06,12.24-2.25,16.12-5.31,8.36-5.1,7.54-2.65-3.06,8,2.86,4.69a30.76,30.76,0,0,0,9.38-8.16l7.76-13.26,1.83-5.3,4.49-4.28s-.82-1.43-.61-1S833,782,833,782Z" transform="translate(69.96 -325)" style="fill:#464d5f"/><path d="M849.85,765s10.12,10.31,24.59,13.88a131.51,131.51,0,0,0,28,3.57s2.38-.6,2.18,1.58-6,4.57-10.12,2.78-3,1.39-2.77,1.59,3.17,1.78,3.57,2.58,1,3-2.78,3-11.9-2.18-15.67-5.16-8.13-5-7.33-2.57,3,7.73-2.78,4.56a30.12,30.12,0,0,1-9.12-7.94l-7.54-12.89-1.79-5.15-4.36-4.17s.79-1.39.6-1S849.85,765,849.85,765Z" transform="translate(69.96 -325)" style="fill:#363c49"/><path d="M834,755.85s-8.68,8.85-21.1,11.91a112.87,112.87,0,0,1-24,3.06s-2-.51-1.87,1.37,5.1,3.91,8.68,2.38,2.55,1.19,2.38,1.36-2.72,1.53-3.06,2.21-.85,2.55,2.38,2.55,10.21-1.87,13.44-4.42,7-4.25,6.29-2.21-2.55,6.63,2.39,3.91a25.73,25.73,0,0,0,7.82-6.81l6.47-11,1.53-4.43,3.74-3.57s-.68-1.19-.51-.85S834,755.85,834,755.85Z" transform="translate(69.96 -325)" style="fill:#464d5f"/><path d="M848.47,742.63s8.28,8.44,20.14,11.36a107.33,107.33,0,0,0,22.89,2.93s2-.49,1.78,1.29-4.87,3.74-8.28,2.28-2.43,1.13-2.27,1.3,2.6,1.46,2.92,2.11.82,2.43-2.27,2.43-9.74-1.78-12.83-4.22-6.65-4.06-6-2.11,2.43,6.33-2.28,3.73a24.55,24.55,0,0,1-7.46-6.49l-6.17-10.55-1.46-4.22-3.58-3.41a8.08,8.08,0,0,1,.49-.81C843.93,738.57,848.47,742.63,848.47,742.63Z" transform="translate(69.96 -325)" style="fill:#363c49"/><path d="M835.83,733.39a40.71,40.71,0,0,1-17.36,9.8,92.8,92.8,0,0,1-19.74,2.52s-1.68-.42-1.54,1.12,4.2,3.22,7.14,2,2.1,1,2,1.12-2.24,1.26-2.52,1.82-.7,2.1,2,2.1,8.4-1.54,11.06-3.64,5.74-3.5,5.18-1.82-2.1,5.46,2,3.22a21.23,21.23,0,0,0,6.44-5.6l5.32-9.1,1.26-3.64,3.08-2.94s-.56-1-.42-.7S835.83,733.39,835.83,733.39Z" transform="translate(69.96 -325)" style="fill:#464d5f"/><path d="M846.7,719.62a41.56,41.56,0,0,0,17.72,10,94.8,94.8,0,0,0,20.15,2.57s1.72-.42,1.57,1.15-4.28,3.28-7.28,2-2.15,1-2,1.14,2.28,1.29,2.57,1.86.71,2.14-2,2.14-8.58-1.57-11.29-3.71-5.86-3.58-5.29-1.86,2.14,5.57-2,3.29a21.69,21.69,0,0,1-6.58-5.72l-5.43-9.29-1.28-3.71-3.15-3s.58-1,.43-.71S846.7,719.62,846.7,719.62Z" transform="translate(69.96 -325)" style="fill:#363c49"/><polygon points="913.79 386.8 921 657.26 899.17 658 909.69 386.64 913.79 386.8" style="fill:#464d5f"/><path d="M843.9,711.64c0,1.26,7.14,270.62,7.14,270.62-3.06.1-9.24,1.62-11.59-.56-3.24-3-1.72-12-.66-15.58a19.47,19.47,0,0,0,1-4.16,21,21,0,0,0-.51-4.59c-.92-6.06.68-12.18,1.14-18.3a9.08,9.08,0,0,0-.26-3.6c-.34-1.05-1-2-1.41-3-1.81-4.91,3.55-10,2.51-15.17-.51-2.53-2.53-4.62-2.71-7.19-.17-2.35,1.23-4.51,1.65-6.83,1-5.78-4.1-11.16-3.69-17,.32-4.49,3.79-8.09,5.25-12.36,2.77-8.06-1.95-16.64-2.5-25.15a52.51,52.51,0,0,1,.09-6.27c.47-9.06.7-18.12.92-27.19l.36-14.18,1-40.47a90.41,90.41,0,0,0-.25-12.32c-.57-5-1.95-10.1-.56-14.92.8-2.8,2.53-5.4,2.5-8.32,0-3.59-2.64-6.66-2.7-10.19,0-1.62,0-2.46,1.41-3.15C842.39,711.59,843.9,711.77,843.9,711.64Z" transform="translate(69.96 -325)" style="fill:#363c49"/><path d="M837.16,716.79a33.61,33.61,0,0,1-14.35,8.1A76.72,76.72,0,0,1,806.5,727s-1.39-.35-1.27.93,3.47,2.66,5.9,1.62,1.73.81,1.62.92-1.85,1-2.09,1.51-.57,1.73,1.62,1.73,7-1.27,9.14-3,4.75-2.89,4.28-1.5-1.73,4.51,1.62,2.66a17.53,17.53,0,0,0,5.33-4.63l4.39-7.52,1-3,2.55-2.43a5.72,5.72,0,0,0-.35-.58C840.4,713.9,837.16,716.79,837.16,716.79Z" transform="translate(69.96 -325)" style="fill:#464d5f"/><path d="M737.94,799.42s11.6,11.83,28.21,15.93a151,151,0,0,0,32.08,4.09s2.73-.68,2.5,1.82-6.83,5.23-11.6,3.19-3.42,1.59-3.19,1.82,3.64,2,4.1,3,1.13,3.42-3.19,3.42-13.65-2.51-18-5.92-9.33-5.69-8.42-3,3.41,8.88-3.18,5.24a34.51,34.51,0,0,1-10.47-9.1l-8.64-14.79-2-5.91-5-4.78s.91-1.59.68-1.14S737.94,799.42,737.94,799.42Z" transform="translate(69.96 -325)" style="fill:#363c49"/><path d="M735.74,824.72s14.42,14.71,35.08,19.8a187.6,187.6,0,0,0,39.89,5.09s3.39-.85,3.11,2.26-8.49,6.51-14.43,4-4.24,2-4,2.26,4.53,2.54,5.09,3.68,1.42,4.24-4,4.24-17-3.11-22.35-7.36-11.6-7.07-10.47-3.67,4.25,11-4,6.5a42.84,42.84,0,0,1-13-11.31L736,831.79l-2.55-7.36-6.22-5.94a15.22,15.22,0,0,1,.85-1.41C727.81,817.64,735.74,824.72,735.74,824.72Z" transform="translate(69.96 -325)" style="fill:#363c49"/><path d="M738.29,860.36s14.73,15,35.8,20.22a191.71,191.71,0,0,0,40.72,5.19s3.46-.86,3.17,2.31-8.66,6.64-14.72,4-4.33,2-4,2.31,4.62,2.59,5.2,3.75,1.45,4.33-4,4.33-17.32-3.18-22.81-7.51-11.84-7.22-10.68-3.75,4.33,11.26-4,6.64a43.8,43.8,0,0,1-13.28-11.55l-11-18.77-2.6-7.5L729.63,854s1.15-2,.86-1.44S738.29,860.36,738.29,860.36Z" transform="translate(69.96 -325)" style="fill:#363c49"/><path d="M723.1,820.22s-11.6,11.83-28.21,15.93a151,151,0,0,1-32.07,4.09s-2.73-.68-2.51,1.82,6.83,5.24,11.61,3.19,3.41,1.59,3.18,1.82-3.64,2-4.09,3-1.14,3.41,3.18,3.41,13.65-2.5,18-5.92,9.33-5.68,8.42-2.95-3.41,8.87,3.18,5.23a34.51,34.51,0,0,0,10.47-9.1l8.64-14.79,2-5.91,5-4.78a12.18,12.18,0,0,0-.69-1.14C729.47,814.54,723.1,820.22,723.1,820.22Z" transform="translate(69.96 -325)" style="fill:#464d5f"/><path d="M725.31,848.9s-14.43,14.71-35.08,19.8a187.66,187.66,0,0,1-39.89,5.09s-3.4-.84-3.12,2.27,8.49,6.5,14.43,4,4.25,2,4,2.26-4.52,2.55-5.09,3.68-1.41,4.24,4,4.24,17-3.11,22.35-7.35,11.6-7.08,10.47-3.68-4.24,11,4,6.51a43,43,0,0,0,13-11.32L725,856l2.55-7.35,6.22-6s-1.13-2-.84-1.41S725.31,848.9,725.31,848.9Z" transform="translate(69.96 -325)" style="fill:#464d5f"/><path d="M722.75,883.9s-14.72,15-35.8,20.21a191.36,191.36,0,0,1-40.72,5.2s-3.46-.87-3.17,2.31,8.66,6.64,14.72,4,4.34,2,4.05,2.31-4.62,2.6-5.2,3.75-1.44,4.33,4,4.33,17.33-3.17,22.81-7.5,11.84-7.22,10.69-3.76-4.34,11.26,4,6.64a43.8,43.8,0,0,0,13.28-11.55l11-18.76,2.6-7.51,6.35-6.06s-1.15-2-.86-1.45S722.75,883.9,722.75,883.9Z" transform="translate(69.96 -325)" style="fill:#464d5f"/><path d="M722,791s-10.4,10.61-25.3,14.28A134.91,134.91,0,0,1,668,809s-2.45-.62-2.25,1.63,6.12,4.69,10.41,2.85,3.06,1.43,2.85,1.64-3.26,1.83-3.67,2.65-1,3.06,2.86,3.06,12.24-2.25,16.12-5.31,8.36-5.1,7.54-2.65-3.06,8,2.86,4.69a30.76,30.76,0,0,0,9.38-8.16l7.76-13.26,1.83-5.3,4.49-4.28s-.82-1.43-.61-1S722,791,722,791Z" transform="translate(69.96 -325)" style="fill:#464d5f"/><path d="M738.85,774s10.12,10.31,24.59,13.88a131.51,131.51,0,0,0,28,3.57s2.38-.6,2.18,1.58-6,4.57-10.12,2.78-3,1.39-2.77,1.59,3.17,1.78,3.57,2.58,1,3-2.78,3-11.9-2.18-15.67-5.16-8.13-5-7.33-2.57,3,7.73-2.78,4.56a30.12,30.12,0,0,1-9.12-7.94l-7.54-12.89-1.79-5.15-4.36-4.17s.79-1.39.6-1S738.85,774,738.85,774Z" transform="translate(69.96 -325)" style="fill:#363c49"/><path d="M723,764.85s-8.68,8.85-21.1,11.91a112.87,112.87,0,0,1-24,3.06s-2-.51-1.87,1.37,5.1,3.91,8.68,2.38,2.55,1.19,2.38,1.36-2.72,1.53-3.06,2.21-.85,2.55,2.38,2.55,10.21-1.87,13.44-4.42,7-4.25,6.29-2.21-2.55,6.63,2.39,3.91a25.73,25.73,0,0,0,7.82-6.81l6.47-11,1.53-4.43,3.74-3.57s-.68-1.19-.51-.85S723,764.85,723,764.85Z" transform="translate(69.96 -325)" style="fill:#464d5f"/><path d="M737.47,751.63s8.28,8.44,20.14,11.36a107.33,107.33,0,0,0,22.89,2.93s2-.49,1.78,1.29-4.87,3.74-8.28,2.28-2.43,1.13-2.27,1.3,2.6,1.46,2.92,2.11.82,2.43-2.27,2.43-9.74-1.78-12.83-4.22-6.65-4.06-6-2.11,2.43,6.33-2.28,3.73a24.55,24.55,0,0,1-7.46-6.49l-6.17-10.55-1.46-4.22-3.58-3.41a8.08,8.08,0,0,1,.49-.81C732.93,747.57,737.47,751.63,737.47,751.63Z" transform="translate(69.96 -325)" style="fill:#363c49"/><path d="M724.83,742.39a40.71,40.71,0,0,1-17.36,9.8,92.8,92.8,0,0,1-19.74,2.52s-1.68-.42-1.54,1.12,4.2,3.22,7.14,2,2.1,1,2,1.12-2.24,1.26-2.52,1.82-.7,2.1,2,2.1,8.4-1.54,11.06-3.64,5.74-3.5,5.18-1.82-2.1,5.46,2,3.22a21.23,21.23,0,0,0,6.44-5.6l5.32-9.1,1.26-3.64,3.08-2.94s-.56-1-.42-.7S724.83,742.39,724.83,742.39Z" transform="translate(69.96 -325)" style="fill:#464d5f"/><path d="M735.7,728.62a41.56,41.56,0,0,0,17.72,10,94.8,94.8,0,0,0,20.15,2.57s1.72-.42,1.57,1.15-4.28,3.28-7.28,2-2.15,1-2,1.14,2.28,1.29,2.57,1.86.71,2.14-2,2.14-8.58-1.57-11.29-3.71-5.86-3.58-5.29-1.86,2.14,5.57-2,3.29a21.69,21.69,0,0,1-6.58-5.72l-5.43-9.29-1.28-3.71-3.15-3s.58-1,.43-.71S735.7,728.62,735.7,728.62Z" transform="translate(69.96 -325)" style="fill:#363c49"/><polygon points="802.79 395.8 810 666.26 788.17 667 798.69 395.64 802.79 395.8" style="fill:#464d5f"/><path d="M732.9,720.64c0,1.26,7.14,270.62,7.14,270.62-3.06.1-9.24,1.62-11.59-.56-3.24-3-1.72-12-.66-15.58a19.47,19.47,0,0,0,1-4.16,21,21,0,0,0-.51-4.59c-.92-6.06.68-12.18,1.14-18.3a9.08,9.08,0,0,0-.26-3.6c-.34-1.05-1-2-1.41-3-1.81-4.91,3.55-10,2.51-15.17-.51-2.53-2.53-4.62-2.71-7.19-.17-2.35,1.23-4.51,1.65-6.83,1-5.78-4.1-11.16-3.69-17,.32-4.49,3.79-8.09,5.25-12.36,2.77-8.06-1.95-16.64-2.5-25.15a52.51,52.51,0,0,1,.09-6.27c.47-9.06.7-18.12.92-27.19l.36-14.18,1-40.47a90.41,90.41,0,0,0-.25-12.32c-.57-5-1.95-10.1-.56-14.92.8-2.8,2.53-5.4,2.5-8.32,0-3.59-2.64-6.66-2.7-10.19,0-1.62,0-2.46,1.41-3.15C731.39,720.59,732.9,720.77,732.9,720.64Z" transform="translate(69.96 -325)" style="fill:#363c49"/><path d="M726.16,725.79a33.61,33.61,0,0,1-14.35,8.1A76.72,76.72,0,0,1,695.5,736s-1.39-.35-1.27.93,3.47,2.66,5.9,1.62,1.73.81,1.62.92-1.85,1-2.09,1.51-.57,1.73,1.62,1.73,7-1.27,9.14-3,4.75-2.89,4.28-1.5-1.73,4.51,1.62,2.66a17.53,17.53,0,0,0,5.33-4.63l4.39-7.52,1-3,2.55-2.43a5.72,5.72,0,0,0-.35-.58C729.4,722.9,726.16,725.79,726.16,725.79Z" transform="translate(69.96 -325)" style="fill:#464d5f"/><path d="M1202.92,761.32a43.9,43.9,0,0,0,18.7,10.56,100.17,100.17,0,0,0,21.27,2.71s1.81-.45,1.66,1.21-4.53,3.47-7.69,2.11-2.27,1.06-2.12,1.21,2.42,1.35,2.72,2,.75,2.26-2.11,2.26-9-1.66-11.92-3.92-6.18-3.77-5.58-2,2.26,5.88-2.11,3.47a23,23,0,0,1-6.94-6l-5.73-9.8-1.36-3.92-3.32-3.17s.61-1.06.46-.75S1202.92,761.32,1202.92,761.32Z" transform="translate(69.96 -325)" style="fill:#363c49"/><path d="M1201.46,778.09s9.56,9.75,23.26,13.13a124.5,124.5,0,0,0,26.44,3.37s2.25-.56,2.07,1.5-5.63,4.32-9.57,2.63-2.81,1.31-2.63,1.5,3,1.69,3.38,2.44.94,2.81-2.62,2.81-11.26-2.06-14.82-4.87-7.69-4.69-6.94-2.44,2.81,7.31-2.63,4.31a28.45,28.45,0,0,1-8.63-7.5l-7.13-12.19L1200,777.9l-4.13-3.94s.75-1.31.56-.94S1201.46,778.09,1201.46,778.09Z" transform="translate(69.96 -325)" style="fill:#363c49"/><path d="M1203.15,801.72s9.76,10,23.74,13.4a126.71,126.71,0,0,0,27,3.45s2.3-.57,2.11,1.53-5.74,4.4-9.76,2.68-2.88,1.34-2.68,1.53,3.06,1.73,3.44,2.49,1,2.87-2.68,2.87-11.49-2.1-15.12-5-7.85-4.79-7.09-2.49,2.88,7.46-2.68,4.4a28.92,28.92,0,0,1-8.8-7.66l-7.28-12.44-1.72-5-4.21-4s.76-1.34.57-1S1203.15,801.72,1203.15,801.72Z" transform="translate(69.96 -325)" style="fill:#363c49"/><path d="M1193.08,775.11a43.9,43.9,0,0,1-18.7,10.56,100.17,100.17,0,0,1-21.27,2.71s-1.81-.45-1.66,1.21,4.53,3.47,7.69,2.11,2.27,1.06,2.12,1.21-2.42,1.36-2.72,2-.75,2.26,2.11,2.26,9-1.66,11.92-3.92,6.18-3.77,5.58-2-2.26,5.88,2.11,3.47a23,23,0,0,0,6.94-6l5.73-9.8,1.36-3.92,3.32-3.17a8.19,8.19,0,0,0-.46-.75C1197.3,771.34,1193.08,775.11,1193.08,775.11Z" transform="translate(69.96 -325)" style="fill:#464d5f"/><path d="M1194.54,794.12s-9.56,9.76-23.26,13.13a124.14,124.14,0,0,1-26.44,3.38s-2.25-.57-2.07,1.5,5.63,4.31,9.57,2.62,2.81,1.32,2.63,1.5-3,1.69-3.38,2.44-.94,2.82,2.62,2.82,11.26-2.07,14.82-4.88,7.69-4.69,6.94-2.44-2.81,7.32,2.63,4.32a28.55,28.55,0,0,0,8.63-7.51l7.13-12.19,1.68-4.88,4.13-3.94a10.81,10.81,0,0,0-.56-.93C1199.79,789.43,1194.54,794.12,1194.54,794.12Z" transform="translate(69.96 -325)" style="fill:#464d5f"/><path d="M1192.85,817.33s-9.76,9.95-23.74,13.4a127.06,127.06,0,0,1-27,3.44s-2.3-.57-2.11,1.53,5.74,4.41,9.76,2.68,2.88,1.35,2.68,1.54-3.06,1.72-3.44,2.49-1,2.87,2.68,2.87,11.49-2.11,15.12-5,7.85-4.79,7.09-2.49-2.88,7.47,2.68,4.4a29,29,0,0,0,8.8-7.65l7.28-12.45,1.72-5,4.21-4a9.92,9.92,0,0,0-.57-1C1198.21,812.54,1192.85,817.33,1192.85,817.33Z" transform="translate(69.96 -325)" style="fill:#464d5f"/><path d="M1192.36,755.76a39.21,39.21,0,0,1-16.77,9.47,89.44,89.44,0,0,1-19.07,2.44s-1.62-.41-1.49,1.08,4.06,3.11,6.9,1.89,2,1,1.89,1.08-2.16,1.22-2.43,1.76-.68,2,1.89,2S1171.4,774,1174,772s5.54-3.38,5-1.75-2,5.27,1.9,3.11a20.61,20.61,0,0,0,6.22-5.41l5.14-8.8,1.22-3.51,3-2.84s-.54-.95-.4-.68S1192.36,755.76,1192.36,755.76Z" transform="translate(69.96 -325)" style="fill:#464d5f"/><path d="M1203.52,744.43a38.28,38.28,0,0,0,16.31,9.21,87.41,87.41,0,0,0,18.54,2.36s1.58-.39,1.45,1.06-4,3-6.71,1.84-2,.92-1.84,1.05,2.1,1.18,2.37,1.71.65,2-1.85,2-7.89-1.45-10.38-3.42-5.4-3.29-4.87-1.71,2,5.13-1.84,3a20.09,20.09,0,0,1-6-5.26l-5-8.55-1.18-3.42-2.89-2.76s.52-.92.39-.66S1203.52,744.43,1203.52,744.43Z" transform="translate(69.96 -325)" style="fill:#363c49"/><path d="M1193,738.4a32.88,32.88,0,0,1-14,7.89,74.73,74.73,0,0,1-15.9,2s-1.36-.33-1.25.91,3.39,2.59,5.76,1.58,1.69.79,1.58.9-1.81,1-2,1.46-.57,1.7,1.58,1.7,6.76-1.24,8.91-2.94,4.62-2.82,4.17-1.46-1.69,4.4,1.58,2.59a17.07,17.07,0,0,0,5.19-4.51l4.28-7.33,1-2.94,2.48-2.36s-.45-.79-.34-.57S1193,738.4,1193,738.4Z" transform="translate(69.96 -325)" style="fill:#464d5f"/><path d="M1202.61,729.63a31.31,31.31,0,0,0,13.35,7.54,71.65,71.65,0,0,0,15.18,1.93s1.29-.32,1.18.86-3.23,2.48-5.49,1.51-1.61.75-1.51.86,1.73,1,1.94,1.4.54,1.62-1.51,1.62a17.75,17.75,0,0,1-8.5-2.8c-2-1.62-4.41-2.69-4-1.4s1.61,4.2-1.51,2.47a16.32,16.32,0,0,1-5-4.3l-4.09-7-1-2.8-2.37-2.26s.43-.75.32-.54S1202.61,729.63,1202.61,729.63Z" transform="translate(69.96 -325)" style="fill:#363c49"/><path d="M1194.23,723.5a26.94,26.94,0,0,1-11.51,6.5,61.6,61.6,0,0,1-13.09,1.67s-1.11-.28-1,.74,2.79,2.14,4.73,1.3,1.4.65,1.3.75-1.48.83-1.67,1.2-.46,1.4,1.3,1.4a15.3,15.3,0,0,0,7.34-2.42c1.76-1.39,3.8-2.32,3.43-1.2s-1.39,3.62,1.3,2.13a14.19,14.19,0,0,0,4.27-3.71l3.53-6,.83-2.41,2-1.95s-.37-.65-.27-.46A21.93,21.93,0,0,1,1194.23,723.5Z" transform="translate(69.96 -325)" style="fill:#464d5f"/><path d="M1201.43,714.37a27.64,27.64,0,0,0,11.75,6.64,63,63,0,0,0,13.36,1.7s1.14-.28,1,.76-2.85,2.18-4.84,1.33-1.42.66-1.32.75,1.51.86,1.7,1.24.48,1.42-1.32,1.42a15.49,15.49,0,0,1-7.49-2.47c-1.8-1.42-3.88-2.36-3.51-1.23s1.43,3.7-1.32,2.18a14.26,14.26,0,0,1-4.36-3.79l-3.6-6.16-.85-2.46-2.09-2s.38-.66.29-.47A21.17,21.17,0,0,0,1201.43,714.37Z" transform="translate(69.96 -325)" style="fill:#363c49"/><polygon points="1269.49 384.19 1274.27 563.51 1259.8 564 1266.78 384.08 1269.49 384.19" style="fill:#464d5f"/><path d="M1199.58,709.08c0,.84,4.73,179.43,4.73,179.43-2,.07-6.12,1.07-7.68-.37-2.15-2-1.14-7.95-.44-10.33a12.66,12.66,0,0,0,.68-2.76,13.62,13.62,0,0,0-.34-3c-.61-4,.45-8.08.76-12.13a6.24,6.24,0,0,0-.17-2.4c-.23-.69-.68-1.29-.93-2-1.21-3.25,2.35-6.65,1.66-10-.34-1.68-1.68-3.07-1.8-4.77s.82-3,1.09-4.53c.69-3.83-2.71-7.4-2.44-11.28.21-3,2.51-5.37,3.48-8.2,1.84-5.34-1.3-11-1.66-16.67a36.09,36.09,0,0,1,.06-4.16c.31-6,.46-12,.61-18l.24-9.4.67-26.83a58.6,58.6,0,0,0-.17-8.17c-.37-3.3-1.29-6.69-.37-9.89.54-1.86,1.68-3.58,1.66-5.52,0-2.38-1.75-4.41-1.79-6.76,0-1.07,0-1.62.94-2.08C1198.57,709.05,1199.58,709.17,1199.58,709.08Z" transform="translate(69.96 -325)" style="fill:#363c49"/><path d="M1195.11,712.5a22.28,22.28,0,0,1-9.51,5.37,50.9,50.9,0,0,1-10.82,1.38s-.92-.23-.84.61,2.3,1.77,3.91,1.08,1.15.53,1.07.61-1.22.69-1.38,1-.38,1.15,1.08,1.15a12.65,12.65,0,0,0,6.06-2c1.45-1.15,3.14-1.91,2.83-1s-1.15,3,1.08,1.76a11.75,11.75,0,0,0,3.53-3.07l2.91-5,.69-2,1.69-1.61a4.15,4.15,0,0,0-.23-.38A18.39,18.39,0,0,1,1195.11,712.5Z" transform="translate(69.96 -325)" style="fill:#464d5f"/><path d="M1693.76,587.62s12.31,12.55,29.94,16.9a160.2,160.2,0,0,0,34,4.34s2.9-.72,2.66,1.93-7.25,5.56-12.32,3.38-3.62,1.69-3.38,1.94,3.87,2.17,4.35,3.14,1.21,3.62-3.38,3.62-14.49-2.66-19.08-6.28-9.89-6-8.93-3.14,3.62,9.42-3.38,5.55a36.66,36.66,0,0,1-11.11-9.65l-9.17-15.7-2.17-6.27-5.31-5.08a12.91,12.91,0,0,1,.72-1.2C1687,581.58,1693.76,587.62,1693.76,587.62Z" transform="translate(69.96 -325)" style="fill:#363c49"/><path d="M1691.42,614.46s15.31,15.61,37.23,21a199.17,199.17,0,0,0,42.33,5.4s3.61-.9,3.31,2.4-9,6.91-15.32,4.21-4.5,2.1-4.2,2.4,4.8,2.7,5.41,3.9,1.5,4.51-4.21,4.51-18-3.31-23.72-7.81-12.31-7.51-11.11-3.9,4.51,11.71-4.2,6.9a45.4,45.4,0,0,1-13.81-12L1691.72,622l-2.7-7.81-6.61-6.31s1.2-2.1.9-1.5S1691.42,614.46,1691.42,614.46Z" transform="translate(69.96 -325)" style="fill:#363c49"/><path d="M1694.13,652.29s15.63,15.94,38,21.46a203.35,203.35,0,0,0,43.21,5.51s3.67-.92,3.37,2.45-9.2,7-15.63,4.29-4.6,2.15-4.29,2.45,4.9,2.76,5.51,4,1.54,4.6-4.29,4.6-18.38-3.38-24.2-8-12.57-7.66-11.34-4,4.59,12-4.29,7a46.4,46.4,0,0,1-14.1-12.26L1694.44,660l-2.76-8-6.74-6.44a17.07,17.07,0,0,1,.92-1.53C1685.55,644.63,1694.13,652.29,1694.13,652.29Z" transform="translate(69.96 -325)" style="fill:#363c49"/><path d="M1678,609.69s-12.31,12.56-29.94,16.9a159.85,159.85,0,0,1-34,4.35s-2.9-.72-2.66,1.93,7.24,5.55,12.32,3.38,3.62,1.69,3.38,1.93-3.87,2.18-4.35,3.14-1.21,3.62,3.38,3.62,14.49-2.65,19.07-6.27,9.9-6,8.94-3.14-3.63,9.41,3.38,5.55a36.5,36.5,0,0,0,11.1-9.66l9.18-15.69,2.17-6.28,5.31-5.07s-1-1.69-.72-1.21S1678,609.69,1678,609.69Z" transform="translate(69.96 -325)" style="fill:#464d5f"/><path d="M1680.35,640.13s-15.31,15.61-37.23,21a198.87,198.87,0,0,1-42.34,5.41s-3.6-.9-3.3,2.4,9,6.91,15.31,4.2,4.51,2.1,4.21,2.4-4.81,2.71-5.41,3.91-1.5,4.5,4.21,4.5,18-3.3,23.72-7.8,12.31-7.51,11.11-3.91-4.51,11.71,4.2,6.91a45.55,45.55,0,0,0,13.81-12l11.41-19.52,2.7-7.81,6.61-6.3s-1.2-2.1-.9-1.5S1680.35,640.13,1680.35,640.13Z" transform="translate(69.96 -325)" style="fill:#464d5f"/><path d="M1677.64,677.27s-15.63,15.94-38,21.45a203,203,0,0,1-43.21,5.52s-3.68-.92-3.37,2.45,9.19,7,15.63,4.29,4.59,2.14,4.29,2.45-4.9,2.76-5.52,4-1.53,4.6,4.29,4.6,18.39-3.37,24.21-8,12.57-7.66,11.34-4-4.6,12,4.29,7.05a46.55,46.55,0,0,0,14.1-12.26l11.64-19.92,2.76-8,6.74-6.43a15.63,15.63,0,0,0-.92-1.53C1686.22,669.61,1677.64,677.27,1677.64,677.27Z" transform="translate(69.96 -325)" style="fill:#464d5f"/><path d="M1676.86,578.72s-11,11.26-26.85,15.16a143.34,143.34,0,0,1-30.52,3.9s-2.6-.65-2.39,1.73,6.5,5,11.05,3,3.24,1.52,3,1.73-3.47,2-3.9,2.82-1.08,3.24,3,3.24,13-2.38,17.11-5.62,8.87-5.42,8-2.82-3.25,8.44,3,5a32.75,32.75,0,0,0,10-8.66l8.23-14.07,1.94-5.63,4.77-4.55s-.87-1.51-.65-1.08S1676.86,578.72,1676.86,578.72Z" transform="translate(69.96 -325)" style="fill:#464d5f"/><path d="M1694.72,560.59s10.74,10.94,26.1,14.73a139.52,139.52,0,0,0,29.68,3.79s2.53-.63,2.32,1.68-6.32,4.85-10.74,3-3.15,1.47-2.94,1.69,3.36,1.89,3.79,2.73,1,3.16-3,3.16-12.63-2.32-16.63-5.47-8.63-5.27-7.79-2.74,3.16,8.21-2.94,4.84a31.94,31.94,0,0,1-9.69-8.42l-8-13.68-1.9-5.47-4.63-4.42s.84-1.48.63-1.06S1694.72,560.59,1694.72,560.59Z" transform="translate(69.96 -325)" style="fill:#363c49"/><path d="M1677.94,550.93s-9.21,9.39-22.39,12.64a119.69,119.69,0,0,1-25.46,3.25s-2.17-.54-2,1.44,5.42,4.15,9.21,2.53,2.71,1.26,2.53,1.44-2.89,1.63-3.25,2.35-.9,2.71,2.53,2.71,10.83-2,14.26-4.7,7.41-4.51,6.68-2.34-2.7,7,2.53,4.15a27.39,27.39,0,0,0,8.31-7.22l6.86-11.74,1.63-4.69,4-3.8s-.72-1.26-.54-.9S1677.94,550.93,1677.94,550.93Z" transform="translate(69.96 -325)" style="fill:#464d5f"/><path d="M1693.26,536.89s8.79,9,21.37,12.06a114,114,0,0,0,24.3,3.11s2.06-.52,1.89,1.37-5.17,4-8.79,2.42-2.58,1.2-2.41,1.38,2.76,1.55,3.1,2.24.86,2.58-2.41,2.58-10.34-1.9-13.61-4.48-7.07-4.31-6.38-2.24,2.59,6.72-2.41,4a26,26,0,0,1-7.93-6.89l-6.54-11.2-1.55-4.48-3.8-3.62s.69-1.2.52-.86S1693.26,536.89,1693.26,536.89Z" transform="translate(69.96 -325)" style="fill:#363c49"/><path d="M1679.85,527.09a43.29,43.29,0,0,1-18.43,10.4,98.61,98.61,0,0,1-21,2.67s-1.78-.45-1.63,1.19,4.46,3.42,7.58,2.08,2.23,1,2.08,1.19-2.38,1.33-2.68,1.93-.74,2.23,2.08,2.23,8.92-1.64,11.74-3.87,6.09-3.71,5.5-1.93-2.23,5.8,2.08,3.42a22.51,22.51,0,0,0,6.83-5.94l5.65-9.66,1.34-3.86,3.26-3.12s-.59-1-.44-.75S1679.85,527.09,1679.85,527.09Z" transform="translate(69.96 -325)" style="fill:#464d5f"/><path d="M1691.38,512.47a44.13,44.13,0,0,0,18.81,10.62,100.5,100.5,0,0,0,21.38,2.73s1.82-.46,1.67,1.21-4.55,3.49-7.73,2.13-2.28,1.06-2.13,1.21,2.43,1.36,2.73,2,.76,2.28-2.12,2.28-9.1-1.67-12-4-6.22-3.79-5.61-2,2.27,5.92-2.13,3.49a23.08,23.08,0,0,1-7-6.07l-5.77-9.86-1.36-3.94-3.34-3.19s.61-1.06.46-.75S1691.38,512.47,1691.38,512.47Z" transform="translate(69.96 -325)" style="fill:#363c49"/><polygon points="1758.29 179.17 1765.95 466.21 1742.78 467 1753.95 179 1758.29 179.17" style="fill:#464d5f"/><path d="M1688.41,504c0,1.34,7.58,287.21,7.58,287.21-3.25.11-9.81,1.72-12.3-.59-3.45-3.19-1.83-12.72-.7-16.53a21.31,21.31,0,0,0,1.09-4.42,22.31,22.31,0,0,0-.55-4.87c-1-6.43.73-12.93,1.21-19.42a9.86,9.86,0,0,0-.26-3.83c-.37-1.11-1.1-2.07-1.5-3.17-1.93-5.2,3.76-10.66,2.66-16.1-.54-2.68-2.69-4.9-2.88-7.63-.18-2.49,1.31-4.78,1.75-7.24,1.11-6.14-4.34-11.85-3.91-18.07.33-4.77,4-8.59,5.57-13.11,2.94-8.56-2.08-17.67-2.66-26.7a59,59,0,0,1,.1-6.65c.5-9.62.74-19.24,1-28.86l.38-15,1.07-43a95.12,95.12,0,0,0-.27-13.08c-.59-5.29-2.06-10.71-.59-15.83.86-3,2.69-5.73,2.66-8.83,0-3.81-2.8-7.07-2.87-10.82,0-1.71,0-2.61,1.5-3.34C1686.8,504,1688.41,504.15,1688.41,504Z" transform="translate(69.96 -325)" style="fill:#363c49"/><path d="M1681.25,509.47a35.67,35.67,0,0,1-15.22,8.6,81.42,81.42,0,0,1-17.31,2.21s-1.48-.37-1.36,1,3.69,2.82,6.27,1.72,1.84.86,1.72,1-2,1.1-2.21,1.6-.62,1.84,1.71,1.84,7.37-1.35,9.7-3.2,5-3.06,4.55-1.59-1.84,4.79,1.72,2.82a18.47,18.47,0,0,0,5.64-4.91l4.67-8,1.11-3.19,2.7-2.58s-.49-.86-.37-.61S1681.25,509.47,1681.25,509.47Z" transform="translate(69.96 -325)" style="fill:#464d5f"/></svg>