<svg xmlns="http://www.w3.org/2000/svg" xmlns:xlink="http://www.w3.org/1999/xlink"><defs><style>
    .sprite-symbol-usage {display: none;}
    .sprite-symbol-usage:target {display: inline;}
  </style><symbol viewBox="0 0 17 10" id="arrow">
    <path fill="#FFFFFF" class="cls-1" d="M6.22,8.75,3.37,5.89H17V4.12H3.37L6.22,1.25,5,0,0,5l5,5Z" />
</symbol><symbol viewBox="0 0 482 482" id="education"><title>education</title><circle cx="241" cy="241" r="241" style="fill:#1376a9" /><path d="M240,384.56c-62.95,0-114.17-31.78-114.17-70.84V242.78l-66.61-33.3a16.68,16.68,0,0,1,0-29.84L232.55,93a16.73,16.73,0,0,1,14.9,0l173.33,86.67a16.68,16.68,0,0,1,0,29.84l-12.45,6.22V298l2.49,1.44a16.44,16.44,0,0,1,8.35,14.33,16.67,16.67,0,0,1-33.34,0,16.47,16.47,0,0,1,8.35-14.34l2.49-1.45V221.52l-42.5,21.25v71C354.17,352.78,303,384.56,240,384.56Zm-91.67-70.84c0,25.3,43.69,48.34,91.67,48.34s91.67-23,91.67-48.34V254l-84.22,42.12a16.73,16.73,0,0,1-14.9,0L148.33,254ZM79.69,194.56,240,274.71l160.31-80.15L240,114.4Z" transform="translate(0 -1)" style="fill:#fff" /></symbol><symbol viewBox="0 0 438.549 438.549" id="github">
<path fill="#FFFFFF" d="M409.132,114.573c-19.608-33.596-46.205-60.194-79.798-79.8C295.736,15.166,259.057,5.365,219.271,5.365
	c-39.781,0-76.472,9.804-110.063,29.408c-33.596,19.605-60.192,46.204-79.8,79.8C9.803,148.168,0,184.854,0,224.63
	c0,47.78,13.94,90.745,41.827,128.906c27.884,38.164,63.906,64.572,108.063,79.227c5.14,0.954,8.945,0.283,11.419-1.996
	c2.475-2.282,3.711-5.14,3.711-8.562c0-0.571-0.049-5.708-0.144-15.417c-0.098-9.709-0.144-18.179-0.144-25.406l-6.567,1.136
	c-4.187,0.767-9.469,1.092-15.846,1c-6.374-0.089-12.991-0.757-19.842-1.999c-6.854-1.231-13.229-4.086-19.13-8.559
	c-5.898-4.473-10.085-10.328-12.56-17.556l-2.855-6.57c-1.903-4.374-4.899-9.233-8.992-14.559
	c-4.093-5.331-8.232-8.945-12.419-10.848l-1.999-1.431c-1.332-0.951-2.568-2.098-3.711-3.429c-1.142-1.331-1.997-2.663-2.568-3.997
	c-0.572-1.335-0.098-2.43,1.427-3.289c1.525-0.859,4.281-1.276,8.28-1.276l5.708,0.853c3.807,0.763,8.516,3.042,14.133,6.851
	c5.614,3.806,10.229,8.754,13.846,14.842c4.38,7.806,9.657,13.754,15.846,17.847c6.184,4.093,12.419,6.136,18.699,6.136
	c6.28,0,11.704-0.476,16.274-1.423c4.565-0.952,8.848-2.383,12.847-4.285c1.713-12.758,6.377-22.559,13.988-29.41
	c-10.848-1.14-20.601-2.857-29.264-5.14c-8.658-2.286-17.605-5.996-26.835-11.14c-9.235-5.137-16.896-11.516-22.985-19.126
	c-6.09-7.614-11.088-17.61-14.987-29.979c-3.901-12.374-5.852-26.648-5.852-42.826c0-23.035,7.52-42.637,22.557-58.817
	c-7.044-17.318-6.379-36.732,1.997-58.24c5.52-1.715,13.706-0.428,24.554,3.853c10.85,4.283,18.794,7.952,23.84,10.994
	c5.046,3.041,9.089,5.618,12.135,7.708c17.705-4.947,35.976-7.421,54.818-7.421s37.117,2.474,54.823,7.421l10.849-6.849
	c7.419-4.57,16.18-8.758,26.262-12.565c10.088-3.805,17.802-4.853,23.134-3.138c8.562,21.509,9.325,40.922,2.279,58.24
	c15.036,16.18,22.559,35.787,22.559,58.817c0,16.178-1.958,30.497-5.853,42.966c-3.9,12.471-8.941,22.457-15.125,29.979
	c-6.191,7.521-13.901,13.85-23.131,18.986c-9.232,5.14-18.182,8.85-26.84,11.136c-8.662,2.286-18.415,4.004-29.263,5.146
	c9.894,8.562,14.842,22.077,14.842,40.539v60.237c0,3.422,1.19,6.279,3.572,8.562c2.379,2.279,6.136,2.95,11.276,1.995
	c44.163-14.653,80.185-41.062,108.068-79.226c27.88-38.161,41.825-81.126,41.825-128.906
	C438.536,184.851,428.728,148.168,409.132,114.573z" />
</symbol><symbol viewBox="0 0 482 482" id="person"><title>person</title><circle cx="241" cy="241" r="241" style="fill:#1376a9" /><path d="M236.6,254H239c22-.37,39.72-8.09,52.83-22.86,28.86-32.52,24.06-88.28,23.54-93.6-1.88-39.94-20.76-59-36.35-68C267.4,62.9,253.84,59.3,238.7,59h-1.28c-8.31,0-24.65,1.35-40.32,10.27s-34.92,28-36.79,68.27c-.53,5.32-5.32,61.08,23.53,93.6C196.88,245.91,214.64,253.63,236.6,254ZM180.32,139.41c0-.22.07-.45.07-.6,2.48-53.73,40.62-59.5,57-59.5h.9c20.23.45,54.63,8.69,57,59.5a1.55,1.55,0,0,0,.07.6c.08.53,5.32,51.49-18.51,78.32-9.44,10.64-22,15.89-38.6,16h-.75c-16.48-.15-29.15-5.4-38.52-16C175.15,191.05,180.24,139.86,180.32,139.41Z" transform="translate(0 -1)" style="fill:#fff" /><path d="M391.81,346.48v-.22c0-.6-.08-1.2-.08-1.88-.45-14.84-1.42-49.53-34-60.63l-.75-.22c-33.8-8.62-61.9-28.1-62.2-28.33a10.12,10.12,0,0,0-11.62,16.56c1.28.9,31.11,21.66,68.43,31.25,17.46,6.22,19.41,24.89,19.93,42a14.17,14.17,0,0,0,.08,1.88c.07,6.74-.38,17.16-1.58,23.15-12.14,6.9-59.73,30.73-132.12,30.73-72.1,0-120-23.91-132.2-30.8-1.2-6-1.72-16.41-1.57-23.16,0-.6.07-1.2.07-1.87.53-17.09,2.47-35.75,19.94-42,37.32-9.59,67.14-30.43,68.42-31.25A10.12,10.12,0,0,0,181,255.13c-.3.22-28.25,19.71-62.2,28.32-.3.08-.53.15-.75.23-32.53,11.17-33.5,45.86-33.95,60.63a16.09,16.09,0,0,1-.07,1.87v.23c-.08,3.89-.15,23.9,3.82,33.95a9.68,9.68,0,0,0,3.9,4.72C94,386.58,147.87,420.9,238,420.9s144-34.4,146.29-35.82a10.07,10.07,0,0,0,3.9-4.72C392,370.39,391.88,350.38,391.81,346.48Z" transform="translate(0 -1)" style="fill:#fff" /></symbol><symbol viewBox="0 0 482 482" id="puzzle"><title>puzzle</title><circle cx="241" cy="241" r="241" style="fill:#1376a9" /><path d="M179,317.37a26.67,26.67,0,0,1-17.7,7.15,9.52,9.52,0,0,0-6.77,16l55.83,59.86a9.54,9.54,0,0,0,13.46.47l47.9-44.67A45.81,45.81,0,1,0,335.19,297l47.88-44.65a9.54,9.54,0,0,0,.47-13.46L338.88,191a45.83,45.83,0,1,0-50.17-75.26,45.62,45.62,0,0,0-9.06,11.76L235,79.61a9.54,9.54,0,0,0-13.46-.47L161.69,135l0,0a9.52,9.52,0,0,0,6.16,16.48,26.79,26.79,0,1,1-29.66,27.16,9.53,9.53,0,0,0-16-6.78L62.28,227.68a9.52,9.52,0,0,0-.47,13.46L117.64,301a9.53,9.53,0,0,0,16.45-5.65,26.76,26.76,0,1,1,44.9,22Zm-49.53-53.1A45.44,45.44,0,0,0,120.39,276L82.24,235.12,123.16,197a45.83,45.83,0,1,0,63.5-59.22l40.91-38.16,49.33,52.89a9.53,9.53,0,0,0,16.45-5.63A26.78,26.78,0,1,1,320.54,176a9.53,9.53,0,0,0-6.77,16l49.34,52.9-52.88,49.32a9.53,9.53,0,0,0,5.64,16.45,26.78,26.78,0,1,1-29.16,27.21,9.52,9.52,0,0,0-16-6.78l-52.91,49.34-38.16-40.91a45.82,45.82,0,1,0-50.16-75.26Z" transform="translate(0 -1)" style="fill:#fff" /></symbol><symbol viewBox="0 0 482 482" id="suitecase"><title>suitecase</title><circle cx="241" cy="241" r="241" style="fill:#1376a9" /><path d="M131.74,380.6c-26.14,0-47.41-21.92-47.41-48.85v-92.5l.1-5v-60c0-26.69,20.74-47.6,47.21-47.6h32.24l.56-4.37c1.89-14.65,7.6-26.92,16.52-35.49A40.7,40.7,0,0,1,209.1,75h56a40.68,40.68,0,0,1,28.2,11.78c8.88,8.54,14.56,20.81,16.45,35.49l.56,4.37h38.31c26.59,0,47.41,20.91,47.41,47.6V331.75c0,26.93-21.27,48.85-47.41,48.85ZM98.13,331.94c0,19.28,15.07,35,33.61,35H348.59a32.64,32.64,0,0,0,23.4-9.78A35.35,35.35,0,0,0,382,332V253.22l-8.4,7.82c-11,10.24-43.08,34.88-102.71,42.34l-3.71.46-.6,3.69a27.87,27.87,0,0,1-27.44,23.65H236a27.92,27.92,0,0,1-27.43-23.66l-.61-3.69-3.72-.45c-54.14-6.64-84.44-28.3-97.68-40.61L98.13,255Zm137.65-76.29a14.56,14.56,0,0,0-14.54,14.54v32.56a14.56,14.56,0,0,0,14.54,14.54h2.8a14.55,14.55,0,0,0,14.53-14.54V270.19a14.55,14.55,0,0,0-14.53-14.54Zm-104-115.22c-19.05,0-33.5,14.48-33.61,33.68v58.34l.8,1.24c8.82,13.66,36.51,46.43,102.83,55.61l5.69.79V270.48A28.65,28.65,0,0,1,236,241.76h3.18c15.57,0,27.76,12.61,27.76,28.72V289.9l5.68-.79c32.06-4.44,60-15.07,83.06-31.62,10.57-7.68,23-18.26,26.09-25l.47-1V174.24a33.36,33.36,0,0,0-33.62-33.81ZM209,88.8c-14.56,0-26.46,12.5-30.34,31.86l-1.19,6h119l-1.19-6C291.44,101.3,279.53,88.8,265,88.8Z" transform="translate(0 -1)" style="fill:#fff" /></symbol><symbol viewBox="0 0 400 400" id="twitter">
<style type="text/css">
	#twitter .st0{fill:#FFFFFF;}
</style>
<path class="st0" d="M400,200c0,110.5-89.5,200-200,200S0,310.5,0,200S89.5,0,200,0S400,89.5,400,200z M163.4,305.5
	c88.7,0,137.2-73.5,137.2-137.2c0-2.1,0-4.2-0.1-6.2c9.4-6.8,17.6-15.3,24.1-25c-8.6,3.8-17.9,6.4-27.7,7.6
	c10-6,17.6-15.4,21.2-26.7c-9.3,5.5-19.6,9.5-30.6,11.7c-8.8-9.4-21.3-15.2-35.2-15.2c-26.6,0-48.2,21.6-48.2,48.2
	c0,3.8,0.4,7.5,1.3,11c-40.1-2-75.6-21.2-99.4-50.4c-4.1,7.1-6.5,15.4-6.5,24.2c0,16.7,8.5,31.5,21.5,40.1c-7.9-0.2-15.3-2.4-21.8-6
	c0,0.2,0,0.4,0,0.6c0,23.4,16.6,42.8,38.7,47.3c-4,1.1-8.3,1.7-12.7,1.7c-3.1,0-6.1-0.3-9.1-0.9c6.1,19.2,23.9,33.1,45,33.5
	c-16.5,12.9-37.3,20.6-59.9,20.6c-3.9,0-7.7-0.2-11.5-0.7C110.8,297.5,136.2,305.5,163.4,305.5" />
</symbol></defs><use id="arrow-usage" xlink:href="#arrow" class="sprite-symbol-usage" /><use id="education-usage" xlink:href="#education" class="sprite-symbol-usage" /><use id="github-usage" xlink:href="#github" class="sprite-symbol-usage" /><use id="person-usage" xlink:href="#person" class="sprite-symbol-usage" /><use id="puzzle-usage" xlink:href="#puzzle" class="sprite-symbol-usage" /><use id="suitecase-usage" xlink:href="#suitecase" class="sprite-symbol-usage" /><use id="twitter-usage" xlink:href="#twitter" class="sprite-symbol-usage" /></svg>