<svg id="Layer_8" data-name="Layer 8" xmlns="http://www.w3.org/2000/svg" viewBox="0 0 1919 994"><title>desert_sun</title><g id="Layer_9" data-name="Layer 9"><ellipse cx="517.5" cy="498.5" rx="142.5" ry="16.5" style="fill:#ffd37f"/><ellipse cx="1457.5" cy="505.5" rx="174.5" ry="18.5" style="fill:#ffd37f"/><ellipse cx="1335" cy="445.5" rx="109" ry="15.5" style="fill:#ffd37f"/><ellipse cx="1100.5" cy="338" rx="252.5" ry="13" style="fill:#ffd37f"/><ellipse cx="425" cy="388.5" rx="96" ry="16.5" style="fill:#ffd37f"/><ellipse cx="365.5" cy="302" rx="157.5" ry="25" style="fill:#ffd37f"/><ellipse cx="529.5" cy="172" rx="290.5" ry="33" style="fill:#ffd37f"/><ellipse cx="735.5" cy="195.5" rx="232.5" ry="25.5" style="fill:#ffd37f"/><ellipse cx="1338" cy="201" rx="342" ry="34" style="fill:#ffd37f"/><ellipse cx="1201.5" cy="54" rx="254.5" ry="28" style="fill:#ffd37f"/><ellipse cx="1537.5" cy="79.5" rx="229.5" ry="29.5" style="fill:#ffd37f"/><ellipse cx="814.5" cy="278" rx="138.5" ry="12" style="fill:#ffd37f"/><ellipse cx="1347" cy="277.5" rx="76" ry="18.5" style="fill:#ffd37f"/><ellipse cx="326.5" cy="607.5" rx="138.5" ry="22.5" style="fill:#ffd37f"/><path d="M116,515c-45.39,0-86.45,2.16-116,5.65v26.7C29.55,550.84,70.61,553,116,553c90,0,163-8.51,163-19S206,515,116,515Z" transform="translate(0 -52)" style="fill:#ffd37f"/><path d="M31.5,250c-10.76,0-21.29.13-31.5.38v44.24c10.21.25,20.74.38,31.5.38,95.27,0,172.5-10.07,172.5-22.5S126.77,250,31.5,250Z" transform="translate(0 -52)" style="fill:#ffd37f"/><path d="M224,52C139.71,52,62,54.46,0,58.61v50.78C62,113.54,139.71,116,224,116c203.24,0,368-14.33,368-32S427.24,52,224,52Z" transform="translate(0 -52)" style="fill:#ffd37f"/><ellipse cx="1708.5" cy="374.5" rx="137.5" ry="23.5" style="fill:#ffd37f"/><path d="M1919,368.15c-16.28-.75-33.57-1.15-51.5-1.15-96.37,0-174.5,11.64-174.5,26s78.13,26,174.5,26c17.93,0,35.22-.4,51.5-1.15Z" transform="translate(0 -52)" style="fill:#ffd37f"/><path d="M1919,185.24c-51.81,3.06-89,11.42-89,21.26s37.19,18.2,89,21.26Z" transform="translate(0 -52)" style="fill:#ffd37f"/></g><g id="Layer_10" data-name="Layer 10"><path d="M953,709.5c0-7.71,134.46-14,304.15-14.47-32.21-117.6-139.83-204-267.65-204-97.42,0-183.09,50.21-232.61,126.14,13.91-.09,28.14-.14,42.61-.14,161,0,291.5,6,291.5,13.5S960.49,644,799.5,644c-19.83,0-39.2-.09-57.92-.27A276.37,276.37,0,0,0,712,768.5C712,921.76,836.24,1046,989.5,1046S1267,921.76,1267,768.5a279.07,279.07,0,0,0-3.57-44.51C1090.79,723.67,953,717.3,953,709.5Z" transform="translate(0 -52)" style="fill:#fff3c1"/></g></svg>