<svg id="Layer_8" data-name="Layer 8" xmlns="http://www.w3.org/2000/svg" viewBox="0 0 1919 435.7"><title>desert_back_1</title><g id="Layer_7" data-name="Layer 7"><path d="M1824,1094c-15-43-26.19-141.85-21.58-183.65,1.51-13.65,3.61-27.66-.15-40.92s-15.17-25.72-29.7-26.34c-3.14-.13-6.5.24-9.21-1.26s-4.12-4.7-5.19-7.62a437.53,437.53,0,0,1-26.12-129.42,10.27,10.27,0,0,0-13.34-.31l-1.77,63.91c-13.44-15.94-17.39-38.57-10.09-57.74L1682,721.71c5.82-6,1.46-16.57-6.17-20.43s-16.84-3-25.44-2.1l-34.33,3.7q-5.48,19.25-10.94,38.47l-11.68-1.4a44.73,44.73,0,0,1-2.93-27.37,16.19,16.19,0,0,0-12.84-4.11l.45-27.17c-13.14.3-24.36,10-29.78,21.29s-6.16,24-6.83,36.39q-1.92,35.52-3.83,71.06a1514.24,1514.24,0,0,1-136.13,76.24c-14.92,7.38-30.06,14.54-46.1,19.38-20.88,6.28-42.86,8.48-64.67,10.42-98.84,8.78-198.08,12.81-297.26,16.84l-213.69,8.67c-10.25-6.36-25.62-3.49-38.73-4-15.17-.57-29.43-6.58-43.25-12.49l-96.39-41.22c-6.7-2.87-13.76-6-17.86-11.77s-4.51-12.92-4.84-19.76l-3.48-71.9c-4.34-5.35-11.69,3.5-12.45,10.19q-2.91,25.71-5.81,51.43c-16.06-7.73-21.5-26.84-22.37-43.84s.94-34.94-7.14-50.15c-28,3.87-50.79-19.48-76-31.63-40.33-19.45-88.82-10-132.87,0l-67.47,15.19C237,734.82,222.57,738,208,737.72a76.29,76.29,0,0,1-16.23-2c-20.79-5-38.43-19.91-59.82-21.62-19.42-1.55-37.59,8.07-56.12,13.78-24.3,7.49-50.18,8.34-75.83,8.4V1097" transform="translate(0 -681.3)" style="fill:#f5b249"/></g><g id="Layer_5" data-name="Layer 5"><path d="M1,963l408-59s46-11,70-27,47-16,47-16l29-1s50-22,52-28,7-12,7-18-6-21-6-27-1-57-1-57l5-8h4l8,2,12-7h4s5,6,4,10,2,10,4,12,1,48,1,48,2,39,5,44,6-2,6-2l-2-64,3-3-1-11-1-7,9-2,1-11,13-4,12,6,26,1-2,50s8,59,36,76,68,15,68,15l452-14s58-9,73-22l-1-52,9-11V731l11-8,4-32,34-5,12,2,23-1h8s-2,17,6,20,9-1,9-1l8,132s54,26,95,29,256,7,256,7l97,4,1,239L0,1109Z" transform="translate(0 -681.3)" style="fill:#c97a37"/></g></svg>