<svg id="Layer_13" data-name="Layer 13" xmlns="http://www.w3.org/2000/svg" viewBox="0 0 1921.76 1067.99"><title>jungle_trees</title><g id="front_trees" data-name="front trees"><g id="Layer_11" data-name="Layer 11"><path d="M1593,342.7c1.85-.88,4.22.26,6-.69,2.47-1.28,1.86-5,.46-7.42s-3.32-5.09-2.34-7.69c1.4-3.67,7.23-3.56,9.12-7,1.33-2.4-.09-5.66-2.51-7s-5.43-1-8,.1c-7,3-11.63,11.23-19.22,11.69-1.68.11-3.5-.17-5,.67s-2,2.38-2.62,3.86l-10.66,27.21c-5.19,13.24-10.47,27-9.31,41.21a47.39,47.39,0,0,0,13.3,29.08l-1.67-1.94c2.71,1.23,6-.78,7.28-3.45s1.23-5.77,1.35-8.74a57.59,57.59,0,0,1,12.15-32.79c2.53-3.23,5.62-7.16,4.09-11-1-2.5-3.87-4.38-3.55-7.05.47-3.8,6.45-3.94,8.4-7.23C1592.62,350.92,1589.17,344.54,1593,342.7Z" transform="translate(1.62 -120.99)" style="fill:none"/><path d="M1544.87,344a36.83,36.83,0,0,1,12.45-24,33.47,33.47,0,0,1-17.52-1.29,41.31,41.31,0,0,1,5.14,22.19Z" transform="translate(1.62 -120.99)" style="fill:none"/><path d="M1630.2,419c5.46.94,10.78,3,16.31,2.88,6.08-.16,11.74-3,17.15-5.79l52-26.74a37.89,37.89,0,0,0,5.61-3.57l-2.48,0c-4.91.05-11.66-1.81-11-6.69a8.74,8.74,0,0,1,2.42-4.29c1.37-1.62,2.75-3.23,4.12-4.84l-1.93-.63a46.84,46.84,0,0,1-11.57-5.33q-45.91,4.1-92,6.43a104.64,104.64,0,0,0-16.18,62.8A40.33,40.33,0,0,1,1630.2,419Z" transform="translate(1.62 -120.99)" style="fill:none"/><path d="M1779.46,433.57c-5-1.64-10.47-6.87-7.46-11.14.94-1.34,2.61-2.2,3-3.78.51-1.81-.84-3.58-2.1-5q-5.33-5.93-10.64-11.84a78.72,78.72,0,0,0-12.9,6.42c-17.68,11-31.57,29-51.73,34.28-16.26,4.22-33.29-.81-50-2s-36.61,3.74-42.94,19.3c-5.69,14,2.19,29.47,9.84,42.48-1.44-2.45,25.88-12.25,49.49-20.05,3.57-2.94,8.5-3.92,12.85-4.92,1.79-.41,3.63-.73,5.51-1,7.53-2.35,13-4,14.43-4.26,9-1.86,18.22-3.14,27-6,9-2.94,17.3-7.49,25.57-12L1781,436.79c-.48-.2-1-.41-1.45-.59l2.1-2C1781,434,1780.2,433.82,1779.46,433.57Z" transform="translate(1.62 -120.99)" style="fill:none"/><path d="M1913.34,404.22c-2.08-4.87-4.6-9.69-8.45-13.33a27.06,27.06,0,0,0-9.11-5.57l12.29-1.5c4.43-17.92-32.45-28.32-24.93-45.18,1.44-3.23,4.41-5.61,5.82-8.86,5-11.48-11-20.22-23.29-22.62a18.42,18.42,0,0,0-1.44-12.3c-3.12-.15-6.23-.19-9.35-.15-5.63-4.3-14.36-2.07-21.68-.62-8,1.57-19.09-.79-19.3-8.89a106.87,106.87,0,0,1-42.65,21c-5.21,1.22-10.54,2.07-15.84,2.95a14.16,14.16,0,0,1,1.66-1,24.51,24.51,0,0,1-12.38-15.79l12.51-7.16q-5.58-8.52-11.17-17a17.75,17.75,0,0,0,8.7-14c-10.13,3-20.29-7.21-21.35-17.73s4-20.57,9-29.91l-13.55-4.19c7.81-2.68,8.66-14.67,2.9-20.58s-15.06-6.72-23.21-5.33l4.38-19.3c-14.58,3.46-22.7-24.9-37-20.57-4.65,1.41-7.51,6-11.44,8.81a17.35,17.35,0,0,1-24.1-24.4l-38.4,1.39c8.1,6.78,8.55,20.77.91,28.05l-17.57-5.27c6.81-3.94,1.88-16-5.94-16.88s-14.7,5.19-19.19,11.66-8,14-14.37,18.54-17.2,4.33-20.44-2.84q4.39-9,8.78-17.91c-6.62-9.49-21.84-1.67-28.18,8s-12.74,22.46-24.31,22.5q-.88-6.36-1.78-12.71c-8.24.73-12.32,10-16.29,17.23s-13.4,14.24-19.66,8.84c7-3.47,4.52-15.7-2.92-18.1s-15.61,3-19,10-3.22,15.22-2.85,23a14.64,14.64,0,0,1-13.15-.23q-3.93,9.15-7.87,18.3l15.74,7.75q-3.63,9.74-7.24,19.48c-13.21-4.11-28.77,1.2-36.71,12.51L1385.45,265a25.12,25.12,0,0,1-16.79,5.11l7.58,8.73c-2,6.05-11.39,7.72-15.31,2.72-5.33,5-.07,15.89,7.14,14.82a31.88,31.88,0,0,1-27,10.51c15.57,17.48,43.87,8.84,67.05,12.1,20.67,2.91,38.4,16.13,58.47,21.85s47.3-.74,51.44-21.2c13.35,3.28,19.55,19.22,19,33s-5.53,27.09-5.32,40.83c.2,12.65,4.8,24.74,9,36.68,30.67,87.83,40.79,181.66,41.8,274.68.68,62,29.32,340.14,9,398.51,1.86,11.3,4.47,22.45,9.8,32.5,7.21,13.59,20.51,25,35.89,25.56,18.08.64,33.92-14,40.21-31s5-35.7,3-53.67c-11.13-97.19-75-409-60.69-505.76,2.51-16.93,6.74-34.31,17.57-47.56,18.9-23.12,51.5-27.22,79.11-39.41l5.43-1.56c13-3.76,26.06-7.54,38.88-11.91q1.15-.39,2.31-.81a261.85,261.85,0,0,0,40.79-17.73,16.61,16.61,0,0,1,4.34,9.48c10.36-.52,21.64-.78,30,5.33s10.33,21.26,1.07,25.94c8,4.16,17.14,7.28,25.91,5.24s16.36-11,14.15-19.67c16.37,2.09,32.21-10.33,37.83-25.85S1919.84,419.38,1913.34,404.22ZM1539.8,318.65a33.47,33.47,0,0,0,17.52,1.29,36.83,36.83,0,0,0-12.45,24l.07-3.13A41.31,41.31,0,0,0,1539.8,318.65Zm50.64,35.94c-2,3.29-7.93,3.43-8.4,7.23-.32,2.67,2.55,4.55,3.55,7.05,1.53,3.81-1.56,7.74-4.09,11a57.59,57.59,0,0,0-12.15,32.79c-.12,3,0,6.07-1.35,8.74s-4.57,4.68-7.28,3.45l1.67,1.94a47.39,47.39,0,0,1-13.3-29.08c-1.16-14.16,4.12-28,9.31-41.21l10.66-27.21c.58-1.48,1.25-3.06,2.62-3.86s3.27-.56,5-.67c7.59-.46,12.22-8.7,19.22-11.69,2.52-1.08,5.54-1.4,8-.1s3.84,4.56,2.51,7c-1.89,3.44-7.72,3.33-9.12,7-1,2.6.94,5.29,2.34,7.69s2,6.14-.46,7.42c-1.82.95-4.19-.19-6,.69C1589.17,344.54,1592.62,350.92,1590.44,354.59Zm2.25,78.63a104.64,104.64,0,0,1,16.18-62.8q46-2.31,92-6.43a46.84,46.84,0,0,0,11.57,5.33l1.93.63c-1.37,1.61-2.75,3.22-4.12,4.84a8.74,8.74,0,0,0-2.42,4.29c-.61,4.88,6.14,6.74,11,6.69l2.48,0a37.89,37.89,0,0,1-5.61,3.57c-17.35,8.91-7.72,18.45-25.07,27.37-5.42,2.78-38,5-44.12,5.16-5.53.15-10.85-1.94-16.31-2.88A40.33,40.33,0,0,0,1592.69,433.22ZM1781,436.79l-31.67,17.29c-8.27,4.52-16.61,9.07-25.57,12-8.76,2.88-18,4.16-27,6-1.41.29-6.9,1.91-14.43,4.26-1.88.26-3.72.58-5.51,1-4.35,1-9.28,2-12.85,4.92-23.61,7.8-50.93,17.6-49.49,20.05-7.65-13-15.53-28.5-9.84-42.48,6.33-15.56,26.18-20.46,42.94-19.3s33.78,6.2,50,2c20.16-5.24,34-23.27,51.73-34.28a78.72,78.72,0,0,1,12.9-6.42q5.31,5.93,10.64,11.84c1.26,1.4,2.61,3.17,2.1,5-.44,1.58-2.11,2.44-3,3.78-3,4.27,2.5,9.5,7.46,11.14.74.25,1.49.46,2.23.67l-2.1,2C1780.08,436.38,1780.56,436.59,1781,436.79Z" transform="translate(1.62 -120.99)" style="fill:#314337"/><path d="M1591.58,1103.28" transform="translate(1.62 -120.99)" style="fill:#314337"/></g><g id="Layer_14" data-name="Layer 14"><path d="M708.73,537.72c-5.94-17.18-22.33-30.11-40.34-32.14-7.61-.86-18.55-8.21-12.09-12.33l-35.4-7.91,22.9-11.25A24.3,24.3,0,0,0,619.61,465a12.48,12.48,0,0,1,10.46-7,19.08,19.08,0,0,1-9.86-8.29c6.66-1.09,11.34-8.84,9.21-15.25a88.18,88.18,0,0,1-52.25,10.07C556.24,442,537,432.14,518.31,422.41c.6,8.33-6.3,16.48-14.61,17.28-3.32-3.6-21.52,2.9-24.84-.69-4.1-4.45,6.68-19,2.58-23.43a23.88,23.88,0,0,1,20.16,6.33c3.24-6.94-2.49-16.29-10.14-16.56L501.94,396a43.57,43.57,0,0,0-30.68,2.7c-6-7.42-25.86-2.85-31.89-10.27-5.18-6.35,3.42-24.7-1.75-31.05,6.56-9.72,20.58-20.08,27.93-10.95l16-11.29-.75,31L493,356a17.18,17.18,0,0,1,.67,12.08,12.82,12.82,0,0,0,10-14c7.67-1.11,15.54,5.49,15.77,13.24a13.59,13.59,0,0,1,6.39-10.19l13.29,5.31c5.61-7.61-.48-18.74-8.51-23.74s-17.87-6.89-25.22-12.85S495,306.73,503,301.68l-44.32-26.23a14.28,14.28,0,0,1,17.82-.53c5.95-6.68-1.95-17.33-10.54-19.79S447.51,253.84,440,249c-10.88-7-12.61-24-24.26-29.66-9.89-4.82-23.95.25-31.31-7.93-6.35-7-3.12-19.75-10.28-26-13-11.28-33.63,15.63-48.16,6.4,3.59-6.9,2.08-16.29-4-21.18s-16.13-4.06-20.79,2.18c2.54-9.28-12.44-14-20.45-8.65s-12.24,15.06-20.27,20.34c-3.55,2.34-7.81,3.8-10.52,7.07s-2.54,9.42,1.52,10.66c-5,4.49-13.1.46-17.46-4.68s-8-11.76-14.57-13.43c-5.9-1.5-11.89,1.69-17,4.93a286.32,286.32,0,0,0-33.62,24.72c-6.84-5.55-14.25-11.35-23-12.06s-18.67,6.35-17.33,15.05c.57,3.71,3,7.24,2.24,10.91-1.29,6-10.25,8-11.13,14.1-.56,3.91,2.59,7.26,4.08,10.92,3.31,8.13-1.74,17-3,25.7s6.81,20.13,14.11,15.27a42.63,42.63,0,0,1-2.63,25.92l18.67,8.21c-4.91,4.66,1.57,13,8.26,14.1s14-1,20,2.13c3.47,1.77,6.08,5.09,9.77,6.36,9.5,3.28,18.87-8.53,28.7-6.42a11.68,11.68,0,0,1,2.57.9l-19,56.24c-3,8.71-5.91,17.48-7.22,26.58-1.27,8.84-.94,17.83-1.7,26.73-.27,3.16-.68,6.3-1.18,9.43a29.33,29.33,0,0,0-4.3,5.14c-2.59,4-3.81,8.74-5,13.37-14.35,56.54-27.48,113.76-50.64,167.3S73.66,753.55,25.14,785.92c-8.67,5.78-17.73,11-26.76,16.16V952.85c84.13-101,166.1-207.38,204.87-332.63,3.45-11.14,6.76-22.81,14.51-31.53,21-23.6,59.76-13.05,87.4,2.24s59.61,34.17,88.56,21.53c19.53-8.52,31.26-29.49,50.46-38.73,4.1-2,8.93-3.36,13.13-1.62s6.6,7.81,3.4,11l15.67-7.47c3.71,21.36,19.95,40.19,40.91,46.29a10.39,10.39,0,0,0,13-7.13c4.24-16.51-39.31-17.3-22.6-36l17.28-.81c2.74,2.21,6.91,2.82,9.86.8,4.31-3,4.34-10.36,0-13.34,6.53-7.35,19-8.26,26.57-1.95s8.79,18.81,2.69,26.51c-6.1,2.45-8.79,10.93-5.23,16.45s12.4,6.57,17.15,2q1.77-5.66,3.55-11.31a14.2,14.2,0,0,0,15.72,3.15,22.68,22.68,0,0,0-12-18.25A12.14,12.14,0,0,0,596,579.6c-4.66-2.18-5-9.22-1.89-13.33s8.24-6,13.09-7.7q.53,5.67,1,11.33c7,0,12.3-8.9,9-15.09l11-3.33c-3,1.42,1.63,7.74,5.4,6,4-1.92,5.6-7,9.25-9.56,6.74-4.79,15.62.86,23.35,3.81s20.33-2.3,16.48-9.63c7.89,7.06,23.3,12.39,26.33,2.26A10.87,10.87,0,0,0,708.73,537.72ZM307.23,423.87c14.48,2.4,21.06,25.53,35.55,23.17a21.69,21.69,0,0,1-4.47,11.83,10.67,10.67,0,0,0,7.71-5.29c1.33-2.38,1.87-5.45,7.18-4.43a7.75,7.75,0,0,1,3.63,1.94c2.62,2.32,8.45,4.13,10.06.59-5.48-4.47-3.73-16.1,6.83-15a7.72,7.72,0,0,1,4.45,1.91c4.45,4.08,3.43,11.12,2.09,17q-1.36,5.91-2.72,11.83c4-4.28,11.69-2.34,15.27,2.29s4.18,10.85,4.64,16.68c.14,1.81.24,3.8-.85,5.25-1.5,2-4.64,2.15-6.15,4.14-1.12,1.49-1,3.66-2.23,5.1-1.05,1.28-2.8,1.66-4.42,2L356.93,508c-.48,1.27-2.62.28-2.72-1.07s.83-2.55,1.17-3.86c1-4-3.66-7.47-7.77-7.18s-7.65,2.86-11.31,4.75a37.3,37.3,0,0,1-36.56-1.78c-7.46-4.82-13-12.23-20.52-16.93-10.43-6.5-23.33-7.05-35.46-9-4.14-.67-8.63-1.83-11.84-4.29-.6,1.45-1.16,2.92-1.69,4.39l-1.73-8.61a10.86,10.86,0,0,0,3.42,4.22,107.64,107.64,0,0,1,47.71-53.34c-2,5.39,4.73,10.27,10.49,10.24S301.55,422.93,307.23,423.87Zm-99.42,32.36c0-.08,0-.17-.05-.26-.18.7-.37,1.41-.53,2.12l7.93-53.65-.59,4.16A106.75,106.75,0,0,1,220,398.33c10.36-17.33,12.33-36.72,26.64-51C247,350.49,260,358.74,262.27,361a5.34,5.34,0,0,0,4.92,1.52c2.45-.59,3.11-2.78,4-4.68a17.48,17.48,0,0,1,18.88-9.18c5.12,1.12,9.9,5.14,10.18,10.52a8.51,8.51,0,0,1-2.2,5.9c-6.12,7.09-11.85-2.07-17.38,1.35a6,6,0,0,0-2.49,3.4c-1.56,5.33,2.15,10.36,1.45,15.57a8.86,8.86,0,0,0-12.12,2.45c-1.05,1.69-1.5,3.73-2.69,5.34-3,4.07-9.14,3.65-14.14,2.82,2.67,5.23.2,11.81-3.91,16s-9.56,6.72-14.47,9.94A59.44,59.44,0,0,0,208,455.26ZM360.25,596.72c-18.52-4.33-34.55-15.52-50.55-25.79s-33.31-20.09-52.3-21.1c-10.63-.57-21.19,1.67-31.82,2.17a6.9,6.9,0,0,1-4.22-.73l0,0,.53,4.41a40.89,40.89,0,0,1-4.33-18.85,126.34,126.34,0,0,1-.59-22l1.55,12.89c2.67-13,10.76-25,22.68-31,5.07-2.55,10.84-4.11,16.46-3.22,19.71,3.15,29.09,33.69,48.88,31,7.37-1,13.27-6.7,20.44-8.68s17.29,3.9,14.22,10.67l37.32-7.69c3.75-.78,8.14-1.39,11,1.16s.6,9-3,7.53L398.41,537a32.87,32.87,0,0,1-16,15.24c9.11,2.06,15.4,12.42,13,21.44a16.76,16.76,0,0,1,16.13,7.42C400.81,596.75,378.76,601.06,360.25,596.72Z" transform="translate(1.62 -120.99)" style="fill:#314337"/></g></g><g id="Layer_6" data-name="Layer 6"><path d="M691.57,1113.44c-2.42-10-10.88-2-13.41-7.32l-5.79,2.76-14.22-15.42c-5.88-8.8-15.95-12.93-24.89-10.19-2.66.81-5.27,2.18-8,2.07-4.71-.19-8.49-4.62-12.61-7.46s-10.43-3.37-12.52,1.88q-15-11.58-30.85-21.57c-8.88-9.86-7.74-30.17,2.16-38.4l33.65,1.51a159.3,159.3,0,0,1,17.44,1.42c15,2.34,29.3,8.94,43.46,15.48l18.56,8.57,3.69,8.5c7.77-11,.69-31.7-11.06-32.4l-.17-6.77c-15.67-6.07-29.72-18.42-39.53-34.75-3-5-5.73-10.49-9.9-14-8-6.64-20.17-5.16-25.54-15,7.07-4.32,10.37-16.21,6.94-25-1-2.51-2.43-4.83-2.75-7.59-1.16-9.94,10.8-12.42,16.81-19.14,11.82,17,33.06,18.75,46.58,33.73,14.32,15.88,20.64,46.53,39.76,48.8-.65,4.57-1.28,9.43.12,13.73s5.69,7.49,9,5.28a11,11,0,0,0,3.16-4.25,85.92,85.92,0,0,0,8.93-38.07c-8.65,3.53-17.54-11.51-12.25-20.71-2.49,4.55-8.91,3.55-11-1.27s-.14-11.4,3.68-14.18c-13.78-6.28-25.27-19.92-31-36.74-.89-10.94-7.29-20.88-15.69-24.36a164.83,164.83,0,0,1,9.42-43A63.63,63.63,0,0,0,707.8,832c-.64,7.9,3.8,14.87,7.84,21a469.81,469.81,0,0,1,49,98.16c2.28,6.3,5.42,13.59,11,14.27q5.76-36.74,11.53-73.48c1.66-10.56,3.2-22.16-1-31.56-2.8-6.26-8.12-12.89-5.47-19.24,1-2.38,3-4,4-6.34,1.24-2.93.78-6.46.51-9.75-1.61-19,4.13-38.69,15.13-52,7.22-8.75,20.52-13.84,26.45-3.69,3.08,5.26,2.64,12.37,2.84,18.87.74,24,11.7,45.55,16.09,68.93,2.42,12.89,2.82,26.21,3.21,39.44.58,19.74-.3,43.18-13.66,53.89-2.78,2.23-6,3.74-8.35,6.61-4.6,5.55-4.59,15.9,0,21.44,3.34,4.28,9.1,4.22,13.36,1.48s7.35-7.56,10.32-12.23q17.69-27.94,35.39-55.88c11.58-18.28,23.24-36.68,37.33-52,10.09-11,21.3-20.24,32.47-29.47,7.17-5.92,14.86-12.05,23.47-12.2s17.86,8.53,16.72,19.12a29.82,29.82,0,0,1-2.27,7.89c-7,17.29-17.06,32.66-29.29,44.65-3.76,3.69-7.9,7.33-9.83,12.79s-.36,13.3,4.29,14.76c-15.69,8.78-32.85,19.43-38.92,39.43-1.16,3.82-2.06,8.21-4.84,10.39s-6.3,1.34-9.45,2.23c-8.82,2.49-11.75,16.58-19.22,22.89-4.19,3.53-9.7,4.49-13.3,8.91s-2.21,14.74,2.8,13.82c8.66-13.79,24.55-19.8,37.93-14.35,2.15.88,4.37,2,6.59,1.52,2.7-.63,4.6-3.5,6.8-5.55,3.47-3.23,7.88-4.48,12.19-5.17,11.39-1.82,23.41-.38,33.91-6.15,8.07-4.43,14.34-12.65,21.8-18.48s17.65-8.94,24.83-2.59c2.28,2,4.15,4.92,6.81,6,3.88,1.65,8-1,11.91-2.43,13.4-5,29.28,5.39,33.49,22a210.31,210.31,0,0,1-50.24,23.53c-3.21,1-6.48,1.94-9.36,4-3.35,2.32-6,5.94-9.18,8.57-5.77,4.78-12.92,6-19.8,7.19L935,1041.29c-14.53,2.41-30.46,5.76-39.81,19.77l27.61,3.19c12.57,1.44,25.24,2.89,37.79,1.28,7.94-1,16.22-3.21,23.7.26,2.8,1.3,5.45,3.38,8.43,3.59,4.52.32,8.73-3.71,13.22-3.14,12,1.52,9.56,29.11,21,33.73-11.53,6.46-24.08,9.51-36.5,12.5-23.8,5.73-48.15,11.49-72.12,7.08-10.24-1.89-20.31-5.62-30.65-5.83-13.11-.27-26.34,5.12-39.17,1.78,11.24.12,22.34,6.62,29.56,17.33,3.21,4.77,5.81,10.45,10.09,13.69,4.92,3.73,11.39,3.65,16,8,7.59,7.25,5.17,23.8-2.86,30.28s-18.87,4.71-27.42-.65-15.54-13.78-23.19-20.93c-30.93-28.93-74.24-36-110.14-18-10.15,5.1-20.22,12.16-31.16,11.81-3-.1-6-.73-8.81.46-5.46,2.33-8,10.73-13.48,13.16-2.6,1.16-5.47.76-8.21.28-11-1.91-23-4.61-32.44,2.54-6.2,4.7-11,13.46-18.3,13.86-12.11.67-17.56-21.78-29.54-24l27-26.45c3-2.94,6.09-5.94,9.7-7.55,3-1.33,6.18-1.67,9.2-2.85,3.78-1.49,7.14-4.26,10.66-6.55a47.78,47.78,0,0,1,36.4-6.47" transform="translate(1.62 -120.99)" style="fill:#314337"/><path d="M667.12,1050.17c3.89,2.37,7.83,4.79,12.1,5.76a18.83,18.83,0,0,0,11-.82c-.26-.6-.53-1.2-.8-1.8a15,15,0,0,1-1.18,2l-3.69-8.5L666,1038.2c-14.16-6.54-28.47-13.14-43.46-15.48-1.84-.29-3.69-.5-5.54-.68,1.15.48,2.28,1.06,3.38,1.64Q644,1036.13,667.12,1050.17Z" transform="translate(1.62 -120.99)" style="fill:#3e513a"/><path d="M719,1001.73a5.43,5.43,0,0,1-.53.42c-3.28,2.21-7.57-1-9-5.28s-.77-9.16-.12-13.73c-19.12-2.27-25.44-32.92-39.76-48.8-8-8.8-18.56-13-28.36-18.46,20.25,16.45,37.65,38.33,50.54,63.77,2.18,4.29,4.27,8.76,7.29,12.19,5.72,6.51,14.13,8.59,19.52,15.53A44.93,44.93,0,0,0,719,1001.73Z" transform="translate(1.62 -120.99)" style="fill:#3e513a"/><path d="M627.15,905.59h0Z" transform="translate(1.62 -120.99)" style="fill:#3e513a"/><path d="M754.75,963a31.75,31.75,0,0,0,13.91,2.18,4.31,4.31,0,0,0,3.2-1.26.1.1,0,0,0,0,0c-3.35-2.62-5.55-7.93-7.27-12.67a469.81,469.81,0,0,0-49-98.16c-4-6.14-8.48-13.11-7.84-21a62.29,62.29,0,0,1-27.57-8.21,25.92,25.92,0,0,0,7.09,10.82c4.58,4,10.8,6.26,12.88,12.7,1.16,3.59.68,7.69,1.45,11.44s2.58,6.69,4.38,9.67l43.47,72C753.49,947,757.67,955.55,754.75,963Z" transform="translate(1.62 -120.99)" style="fill:#3e513a"/><path d="M817.49,986.64a12.55,12.55,0,0,0,8.33-1.2,25.62,25.62,0,0,0,5.77-3.78,8.61,8.61,0,0,1-4.72-3.1c-4.62-5.54-4.63-15.89,0-21.44,2.38-2.87,5.57-4.38,8.35-6.61,13.36-10.71,14.24-34.15,13.66-53.89-.39-13.23-.79-26.55-3.21-39.44-4.39-23.38-15.35-44.93-16.09-68.93-.2-6.5.24-13.61-2.84-18.87a10.57,10.57,0,0,0-9.92-5.6,18.31,18.31,0,0,1-1.58,7.71c-2.42,4.8-8.4,8.51-6.65,13.74.65,1.91,2.21,3,3.32,4.6,3.91,5.45,1.51,13.85.2,21-4,21.62,4.54,43.39,12.18,63.43,1.24,3.26,2.5,6.94,1.59,10.37-.72,2.74-2.68,4.68-3.83,7.19-1.95,4.27-1.36,9.55-2,14.4-1.38,10.33-8.31,18.11-11.39,27.86-2,6.48-2.33,13.59-2.58,20.55-.24,6.38-.45,12.93,1.11,19S812.44,985.35,817.49,986.64Z" transform="translate(1.62 -120.99)" style="fill:#3e513a"/><path d="M862.21,1009.76c2.74,2,6,1.93,9.13.81-.62-3.07-.1-7,1.76-9.25,3.6-4.42,9.11-5.38,13.3-8.91,7.47-6.31,10.4-20.4,19.22-22.89,3.15-.89,6.71-.08,9.45-2.23s3.68-6.57,4.84-10.39c6.07-20,23.23-30.65,38.92-39.43-4.65-1.46-6.21-9.31-4.29-14.76s6.07-9.1,9.83-12.79c12.23-12,22.3-27.36,29.29-44.65a29.82,29.82,0,0,0,2.27-7.89,17.56,17.56,0,0,0-7.37-15.94A419.4,419.4,0,0,0,934,872.93c-8.7,9.79-17.81,23.55-14,37.34C913.41,908,908.35,917,902.86,922c-2.94,2.69-6.42,4.35-9.46,6.87-5.13,4.25-8.75,10.7-12.26,17q-8.58,15.42-17.17,30.85c-2.86,5.14-5.79,10.48-6.74,16.61S857.84,1006.66,862.21,1009.76Z" transform="translate(1.62 -120.99)" style="fill:#3e513a"/><path d="M895.19,1061.06c9.35-14,25.28-17.36,39.81-19.77l48.58-8.09c6.88-1.14,14-2.41,19.8-7.19,3.19-2.63,5.83-6.25,9.18-8.57,2.88-2,6.15-3,9.36-4A210.31,210.31,0,0,0,1072.16,990c-4.21-16.59-20.09-27-33.49-22-3,1.13-6.1,2.91-9.12,3-.86.5-1.73,1-2.61,1.46-12,6.25-25.81,7.13-36.43,16.38-5.7,5-10.7,12.41-17.63,13.17.36-2-2-2.69-3.64-2.46-11.24,1.63-22.88,3.43-32.52,10.8-5.25,4-10.07,9.76-16.2,10.61-2.78.39-5.58-.29-8.38-.41-8-.35-15.71,3.93-23,8.11a38.43,38.43,0,0,0-8.3,5.8c-5.52,5.48-8.33,15.12-6.34,23.54,4.39-.93,8.75,1.36,13.07,2.7,6.12,1.88,12.5,1.86,18.8,1.71Z" transform="translate(1.62 -120.99)" style="fill:#3e513a"/><path d="M904.14,1154.54c-4.58-4.37-11-4.29-16-8-3.7-2.8-6.15-7.43-8.82-11.72a29.61,29.61,0,0,1-4.73-1.8c.1,2.55.21,5.1.31,7.65a65.08,65.08,0,0,0-26.28-2.86c-1.42.14-2.94.3-4.19-.56s-1.77-2.19-2.54-3.43c-4.28-6.83-12-8.28-19-8.78a173.28,173.28,0,0,0-32.68.76c-14.43-3-29.24-4.13-43.48-.24a135.09,135.09,0,0,0-15.7,5.74l-68.39,28.2c-9.51,3.92-19.15,7.93-27.44,14.91a49.79,49.79,0,0,0-10.65,12.48,9.41,9.41,0,0,0,3.53.49c7.26-.4,12.1-9.16,18.3-13.86,9.46-7.15,21.48-4.45,32.44-2.54,2.74.48,5.61.88,8.21-.28,5.44-2.43,8-10.83,13.48-13.16,2.8-1.19,5.85-.56,8.81-.46,10.94.35,21-6.71,31.16-11.81,35.9-18,79.21-10.94,110.14,18,7.65,7.15,14.64,15.58,23.19,20.93s19.4,7.13,27.42.65S911.73,1161.79,904.14,1154.54Z" transform="translate(1.62 -120.99)" style="fill:#3e513a"/><path d="M1027,1100c-8.63-3.48-9.39-20-14.35-28.58l-30.37,10.28c-10.63,3.6-22.21,7.14-32.38,1.9.64,1.76-.8,3.62-2.19,4.5-10.54,6.64-22.87-5.13-34.65-3.82-8,.89-14.92,7.75-22.9,8.51-2.29,4.36-7,5.52-11.21,5.25s-8.4-1.57-12.5-.56-8.14,5.49-7.46,10.62c.5,3.7,3.18,6.24,5.85,8.09,7.6-.85,15.26-2.6,22.89-2.44,10.34.21,20.41,3.94,30.65,5.83,24,4.41,48.32-1.35,72.12-7.08C1002.88,1109.48,1015.43,1106.43,1027,1100Z" transform="translate(1.62 -120.99)" style="fill:#3e513a"/></g><g id="leaves_1" data-name="leaves 1"><path d="M382.75,1068.48c-3.65-.56-28.29-28.62-38.67-46.09,0,0,13.19-.78,23.43-6.67,0,0-47.23-51.15-54.39-65.32l24.13-35.51s43.51,32.83,57.19,34.93c0,0-23.09-38.09-40.85-50.16,0,0,14.66-28.56,32.83-43.51,0,0,46.39,32.34,63.87,34.09,0,0-34-39.78-52.22-49.11l27.64-21.9s46.39,20.2,55.37,22.51c0,0-27.23-29.39-40.21-36,0,0,17-25.41,26.16-30.53,0,0,19.86,10.52,31.65,18.87,0,0,2.31-21.13-12.21-29.89,0,0,19.29-34.39,42.51-45.76,0,0,26.46,40.48,19.45,61.81,0,0-29.32,32.85-32.27,39.87,0,0,51.57-1.42,58.38-3.17,0,0,1.62,19.85,4.71,24.06,0,0-52.7,8.71-65.33,18,0,0,64.91-3.1,76.28,8,0,0,.92,60.84-4,68.49,0,0-61.4-44-77.54-36.19s71.79,61.45,71.79,61.45l-16.55,47s-61.19-39.28-68.21-42.23S519.36,1012,530.59,1024c0,0-29.26,26.32-34.24,28.36,0,0-28.91-18.45-42.11-29.81,0,0-12.13,24.28-1.82,36.13,0,0-29.32,8.57-43.5,15.73S382.75,1068.48,382.75,1068.48Z" transform="translate(1.62 -120.99)" style="fill:#314337"/><path d="M1445.32,1044.3c-2,2.43-33.53,8-51,7.87,0,0,5.29-10,5.52-20.13,0,0-58.45,11.89-72,10.84l-15.31-33.45s43.38-17.3,51-26.39c0,0-38.17,0-54.89,7.65,0,0-14.42-23.43-17.31-43.38,0,0,44.3-19.63,53.34-31.65,0,0-44.26,7.27-59.17,16.45l-3.77-30s35.4-25,41.09-30.57c0,0-33.63,6.9-44.28,13.45,0,0-11.08-23.72-10.75-32.73,0,0,16.53-9.88,27.88-14.81,0,0-14.45-11.08-27.32-4.33,0,0-16.63-29.4-14.65-51.47,0,0,41.41-1.41,53.93,13.2,0,0,11,36.08,14.88,41.35,0,0,21.86-38.42,23.6-44.18,0,0,15.27,7.63,19.73,7.24,0,0-17,42.48-15.84,55.85,0,0,26.55-48.94,39.72-52.35,0,0,45,26.34,48.41,33.34,0,0-59.5,25.46-61,40.74s76.92-25.31,76.92-25.31l27,33s-56,27.39-61.24,31.22,44.64,3.36,58.42.46c0,0,6.29,33.13,5.57,37.68,0,0-26.36,13-40.54,17.61,0,0,12.4,19.68,25.67,17.38,0,0-6.75,25.3-7.8,38.86S1445.32,1044.3,1445.32,1044.3Z" transform="translate(1.62 -120.99)" style="fill:#314337"/><path d="M1479.13,1021.18c-3.11.62-31.21-14.66-44.73-25.64,0,0,10.38-4.52,16.87-12.29,0,0-53.11-27.16-63-36.44l8.9-35.69s44.7,13.53,56.33,11.18c0,0-29.84-23.81-47.69-28.26,0,0,3.35-27.31,13.54-44.7,0,0,46.87,12.29,61.44,8.53,0,0-39.14-21.92-56.52-24L1440,808s43.27,2.53,51.18,1.74c0,0-30.59-15.59-43-17.11,0,0,6.14-25.45,12-32.29,0,0,19.08,2.59,31,5.82,0,0-4.39-17.67-18.66-20.43,0,0,5.34-33.35,20.66-49.36,0,0,33.25,24.73,33.91,44,0,0-13.87,35.08-14.16,41.59,0,0,41.06-16.38,46-19.81,0,0,7.17,15.49,10.9,18,0,0-39.8,22.58-47.22,33.77,0,0,51.28-21.69,63.7-16.14,0,0,18.73,48.65,17.05,56.26,0,0-62.39-17.22-73.06-6.18s75.9,28.19,75.9,28.19l.57,42.65s-60.82-13.5-67.34-13.79,32.8,30.47,45.38,36.8c0,0-15.74,29.81-19.15,32.92,0,0-28.71-6.29-42.68-11.52,0,0-2.57,23.11,9.23,29.59,0,0-21,15.57-30.34,25.51S1479.13,1021.18,1479.13,1021.18Z" transform="translate(1.62 -120.99)" style="fill:#314337"/><path d="M1831.14,705.68c.53,3.36-17.2,32.86-29.62,46.89,0,0-4.38-11.37-12.43-18.71,0,0-31.66,55.82-42.1,66.08l-37.94-11.22s16.62-47.42,14.63-60c0,0-27,31-32.59,49.93,0,0-29.19-4.86-47.42-16.62,0,0,15.39-49.8,12-65.63,0,0-25.38,41-28.47,59.62l-27-18.13s4.72-46.39,4.24-54.93c0,0-18.18,32.16-20.39,45.43,0,0-27.06-7.78-34.14-14.42,0,0,3.67-20.38,7.69-33.08,0,0-19.19,3.9-22.82,19.11,0,0-35.6-7.29-52.1-24.49,0,0,28.12-34.59,48.82-34.42,0,0,37.06,16.54,44,17.15,0,0-15.71-44.88-19.16-50.37,0,0,17-7,19.81-10.88,0,0,22.43,43.83,34.11,52.31,0,0-20.93-56.12-14.38-69.21,0,0,53.15-17.87,61.25-15.71,0,0-21.4,66.26-10,78.24S1681,562.32,1681,562.32l45.87,1.37s-17.33,64.75-18,71.73,34.27-33.83,41.66-47.06c0,0,31.31,18.3,34.5,22.11,0,0-8.09,30.56-14.37,45.33,0,0,24.72,3.85,32.24-8.54,0,0,15.75,23.35,26,33.79S1831.14,705.68,1831.14,705.68Z" transform="translate(1.62 -120.99)" style="fill:#314337"/><path d="M119.28,1081.29c-4-.61-30.73-30.65-42-49.34,0,0,14.29-.8,25.38-7.07,0,0-51.32-54.76-59.12-69.92l26.07-37.89s47.25,35.19,62.09,37.47c0,0-25.13-40.76-44.41-53.7,0,0,15.82-30.48,35.49-46.41,0,0,50.36,34.67,69.31,36.58,0,0-37-42.59-56.73-52.6l29.91-23.33s50.34,21.7,60.08,24.19c0,0-29.59-31.47-43.68-38.62,0,0,18.34-27.11,28.29-32.56,0,0,21.55,11.29,34.35,20.24,0,0,2.46-22.56-13.31-32,0,0,20.83-36.69,46-48.78,0,0,28.79,43.31,21.24,66.09,0,0-31.71,35-34.89,42.51,0,0,55.91-1.38,63.28-3.24,0,0,1.8,21.22,5.16,25.73,0,0-57.1,9.18-70.77,19,0,0,70.36-3.15,82.71,8.72,0,0,1.15,65-4.16,73.17,0,0-66.67-47.15-84.14-38.86s78,65.83,78,65.83l-17.82,50.13s-66.44-42.13-74-45.29,25.76,49.83,38,62.68c0,0-31.65,28.05-37,30.21,0,0-31.39-19.78-45.72-32,0,0-13.1,25.92-1.88,38.61,0,0-31.78,9.08-47.12,16.7S119.28,1081.29,119.28,1081.29Z" transform="translate(1.62 -120.99)" style="fill:#314337"/><path d="M92.67,529.91c14.86-4.95,67.69,2.9,67.69,2.9-1.65-4.95,2.9-24.35,2.9-24.35-7-.41-56.55-14.87-56.55-14.87,5-5.78,42.93-28.06,42.93-28.06,13.22-18.16.43-64.8.43-64.8-25.59,3.71-54.49,30.53-54.49,30.53,11.14,12.8,2.47,32.2,2.47,32.2C89.39,451.9,73.7,435.8,73.7,435.8c-10.32,2.06-34.26,21-34.26,21,10.32,10.32,27.23,46.65,27.23,46.65-7.84-5-45.8-38.39-45.8-38.39l-22.48,8.42v18.26C10.5,511.55,22.5,540.22,22.5,540.22c-6.3-2.75-15.39-11.33-24.11-20.74V685.42c9,11.94,18.31,23.2,18.31,23.2C22.06,708.2,58,692.11,58,692.11c-7-14.86-21-71.41-15.26-66.45s52,61.09,52,61.09l30.14-39.61s-67.27-78-49.52-80.5,62.73,58.21,62.73,58.21c7-5.78,24.77-64,24.77-64C155.41,546.84,92.67,529.91,92.67,529.91Z" transform="translate(1.62 -120.99)" style="fill:#314337"/><path d="M1918.26,664.22a64.76,64.76,0,0,1-14-13.51c4-1.65,9-4,14-6.53V588.09c-22,2.64-49.52,3.95-45.45.53,3.44-2.89,27-17,45.45-27.77V524.23l-11.42-12.07s-86.66,53-86.23,35.29,66.66-51.71,66.66-51.71c-4.5-7.75-58.27-34.33-58.27-34.33-14.84,5-41.35,63.3-41.35,63.3-2.44-15.25,13.65-65.39,13.65-65.39-5.08.82-23.22-6.71-23.22-6.71-1.53,6.76-23.51,52.63-23.51,52.63-4.83-5.74-20.43-46.25-20.43-46.25-15.55-15.76-63-10.78-63-10.78-.49,25.49,21,57.89,21,57.89,14.23-8.79,31.71,2.75,31.71,2.75-12.63,6.58-30.8,19.26-30.8,19.26.35,10.37,15,36.7,15,36.7,11.69-8.39,49.73-19,49.73-19-6.07,6.84-44.67,38.43-44.67,38.43l6.76,34.1c16.36-11.74,66.58-23.68,66.58-23.68-9.41,14.53-58.66,40.65-58.66,40.65,4.93,22.67,23.38,48.39,23.38,48.39,18.58-10.14,62.39-13.24,62.39-13.24-8,11.06-56.39,34.43-56.39,34.43L1777.46,742c15.65.1,81.77-18.3,81.77-18.3.56,11.64-4.7,23.56-4.7,23.56,20-1.24,55.7-10.21,57.84-13.16a27.92,27.92,0,0,0,5.89-2.61Z" transform="translate(1.62 -120.99)" style="fill:#314337"/></g></svg>