<svg id="Back_Layer" data-name="Back Layer" xmlns="http://www.w3.org/2000/svg" xmlns:xlink="http://www.w3.org/1999/xlink" viewBox="0 0 1925 791"><defs><linearGradient id="linear-gradient" x1="243" y1="494.5" x2="1622" y2="494.5" gradientUnits="userSpaceOnUse"><stop offset="0" stop-color="#79abca"/><stop offset="1" stop-color="#adcce3"/></linearGradient><linearGradient id="linear-gradient-2" x1="1003.5" y1="429.5" x2="1003.5" y2="259.5" gradientUnits="userSpaceOnUse"><stop offset="0" stop-color="#99bfdd"/><stop offset="1" stop-color="#a2c6df"/></linearGradient><clipPath id="clip-path" transform="translate(1 -289)"><path d="M136,533,397,419l112,51,61-28,28,11,191-87,24,11,157-72,291,129,25-12,67,31,82-34,81,38,35-18,79,50s118-39,117-38,174-3,174-3l-1,170L0,638V541Z" style="fill:none"/></clipPath><linearGradient id="linear-gradient-3" x1="960.5" y1="638" x2="960.5" y2="305" gradientUnits="userSpaceOnUse"><stop offset="0" stop-color="#b9daee"/><stop offset="1" stop-color="#b9d8ee"/></linearGradient><linearGradient id="linear-gradient-4" x1="393.98" y1="428.47" x2="269.78" y2="532.13" gradientUnits="userSpaceOnUse"><stop offset="0" stop-color="#fbead2"/><stop offset="1" stop-color="#c4dae2"/></linearGradient><linearGradient id="linear-gradient-5" x1="884.16" y1="238.02" x2="645.26" y2="662.47" gradientUnits="userSpaceOnUse"><stop offset="0.05" stop-color="#fbead2"/><stop offset="0.72" stop-color="#c4dae2"/></linearGradient><linearGradient id="linear-gradient-6" x1="1292.2" y1="123.71" x2="1219.83" y2="252.29" gradientUnits="userSpaceOnUse"><stop offset="0.05" stop-color="#fbead2"/><stop offset="0.96" stop-color="#c4dae2"/></linearGradient><linearGradient id="linear-gradient-7" x1="1453.2" y1="413.08" x2="1385.47" y2="529.87" gradientUnits="userSpaceOnUse"><stop offset="0" stop-color="#fbead2"/><stop offset="0.66" stop-color="#ccdce0"/><stop offset="0.68" stop-color="#c4dae2"/></linearGradient></defs><title>mountains_2</title><g id="Layer_9" data-name="Layer 9"><polygon points="917 208 487 292 243 489 401 791 1239 789 1526 789 1622 466 1377 291 1121 198 917 208" style="fill:url(#linear-gradient)"/><path d="M508.5,855.5c4-5,291-141,289-138s51,23,51,23l26-41-32-15-143-1-262,30-6,105Z" transform="translate(1 -289)" style="fill:#7eb0cb"/><polygon points="1096.5 419.5 1258.5 492.5 1306.5 470.5 1371.5 507.5 1697 663 1614 395 1096.5 419.5" style="fill:#7eb0cb"/><polygon points="653.5 395.5 845.5 411.5 883.5 390.5 977.5 429.5 1070.5 385.5 1135.5 413.5 1353.5 385.5 1286.5 293.5 1158.5 259.5 1071.5 284.5 1017.5 279.5 940.5 288.5 808.5 320.5 694.5 318.5 653.5 395.5" style="fill:url(#linear-gradient-2)"/><g id="Layer_10" data-name="Layer 10"><polygon points="1024 326 842 403 737 398 600 347 758 303 1024 326" style="fill:#90bcda"/><polygon points="1004 357 1161 423 1256 359 1171 328 1004 357" style="fill:#90bcda"/></g></g><g id="Layer_8" data-name="Layer 8"><g style="clip-path:url(#clip-path)"><path d="M136,533,397,419l112,51,61-28,28,11,191-87,24,11,157-72,291,129,25-12,67,31,82-34,81,38,35-18,79,50s118-39,117-38,174-3,174-3l-1,170-806.29,8.4L1206,562l-321,2-65,43L0,638V541Z" transform="translate(1 -289)" style="fill:url(#linear-gradient-3)"/><path d="M233,480l160-66s4,10,0,18-17,12-13,30,9,36,2,52-33,36-45,40-96,1-96,1Z" transform="translate(1 -289)" style="fill:url(#linear-gradient-4)"/><path d="M810,442s-41,28-56,34-119,50-119,50L507,468l1-27,205-86,77,6,67,38-18-52,140-58-49,88,42-2-9,79,48,24L823,532l-84,8s67.36-43.39,74-60C819,465,820,456,810,442Z" transform="translate(1 -289)" style="fill:url(#linear-gradient-5)"/><polygon points="1254 143 1298 162 1286 120 1254 143" style="fill:url(#linear-gradient-6)"/><path d="M1350,451s132,66,133,65-39-86-48-96a133.16,133.16,0,0,0-17-16l-67,31Z" transform="translate(1 -289)" style="fill:url(#linear-gradient-7)"/></g></g><g id="Layer_7" data-name="Layer 7"><path d="M0,397l80-36L357,486l29-12,115,55,130-57,74,34,20-12,135,66,39-21,66,28,64-29,41,18,138-62,27,15,64-29,27,11,148-65,21,8,45-18,86,38,298-133-5,217-270,78-461-26s-58-11-68-8-40,12-49,12-48-13-66-12-64,7-78,7-63,26-63,26L0,616Z" transform="translate(1 -289)" style="fill:#94bada"/></g><g id="Layer_6" data-name="Layer 6"><path d="M1919,399,1662,514l-45-18-138,62-52-23-39,18-73-35-53,26-21-9L997,642a85.43,85.43,0,0,0,48,13c28-1,25-5,48-5s44,5,88,20,219,18,219,18,318,5,318,7,200,3,200,3Z" transform="translate(1 -289)" style="fill:#7eb0cb"/><path d="M1,444l156,69,69-30s113,59,112,59,153-74,153-74l111,50,26-12,83,38,82-38,235,105a43.57,43.57,0,0,1-29,11c-18,0-22,5-22,5s-34,9-55,9-46,2-56,5-61,4-83-1-81-7-105,2-155,27-155,27l-340,5S0,666,1,668,1,444,1,444Z" transform="translate(1 -289)" style="fill:#7eb0cb"/></g><g id="Mount_2" data-name="Mount 2"><path d="M1,534l38,18,30-14,50,22,178-80,155,69,21-11L795,683l54-25,25,41H698s-38,4-47,8-30,1-30,1-30,4-40,17-33,6-33,6-14,2-22,8-25,7-25,7-16,7-27,28-83,69-83,69L-1,826Z" transform="translate(1 -289)" style="fill:#62a1ba"/><path d="M1920,521l-35,15-34-13-82,35-81-36s-195,87-197,88-53-21-53-21l-138,61-44-18-168,75s18,6,22,8,151,2,151,2,46,3,53,6,33,2,33,2,35-5,60,11,133,39,133,39l379,19Z" transform="translate(1 -289)" style="fill:#62a1ba"/></g></svg>