<svg id="Front_Layer" data-name="Front Layer" xmlns="http://www.w3.org/2000/svg" viewBox="0 0 1921.5 449"><title>mountains_1</title><g id="Mount_1" data-name="Mount 1"><path d="M1919,653l-25-12-17,8-47-18-153,68-31-12-10,6-45-21-111,49-21-11-126,59s21,9,23,22,13,21,18,24,30,21,23,46-18,44-33,49-63,6-83,20-111,18-136,7-185,30-219,53-244,12-276-30-94-39-98-56c-3.59-15.24.07-44.93,11.66-58.12L600,822,421,740l-17,8L264,685l-17,9-53-23s-30,13-31,14-31-15-31-15L0,731c2,2-1,348-1,348h.59c12.15,0,206.41,0,206.41,1a15.18,15.18,0,0,0,1.69-1H1918Z" transform="translate(1 -631)" style="fill:#4290ab"/></g><g id="Trees_Second" data-name="Trees Second"><path d="M0,696l23-49,23,49,12-21,22,41,9-19,10,21,18-35,22,47,15-27,18,37,14-31,17,35,5-10s12,28,12,27,6-17,6-17l14,34,21-46,22,46,10-22,10,18,7-17,5,8,2-3,12,24,10-24,22,45,15-29,17,37,11-21,11,20,23-47,21,43,14-24,21,41,12-20,20,38,10-20,11,22,16-35,28,61,12-22,14,30,14-30,8,18,6-18,16,30,9-19,7,13,2-4,9,17,12-27,9,21,11-21,10,22,8-15,8,19,13-26,12,29,7-14,6,13,5-11,6,11,7-14,11,25,13-26,12,31,7-14,7,11,9-28s11,28,11,27,12-34,12-34l14,30,10-15,10,15,14-26,11,26,4-6,7,15,13-26,13,25,9-15,6,10,12-20,14,24,11-19,9,10,16-28,8,19,5-7,3,4,3-7,12,23,14-30,8,18,4-8,7,13,10-22,8,17,5-11,8,16,8-17,9,18,6-17,12,24,11-25,12,27,14-33,13,28,10-22,7,13,13-31,13,31,12-27,12,22,11-24,19,39,18-41,11,24,21-41,16,33,10-22,8,13,15-26s5,4,5,5,13-20,13-20l8,23,10-18,10,18,11-20,15,22,25-50,11,27,8-17,7,13,21-45,18,41,13-28,17,32,10-25,10,19,22-38,11,20,11-19,7,12,16-27,16,32,11-19,7,15,13-29,4,6,25-43,14,25,15-21,14,21,24-41,8,16,20-43,20,39,8-16,9,18v357L1,1079Z" transform="translate(1 -631)" style="fill:#307592"/></g><g id="Trees_First" data-name="Trees First"><path d="M-.5,772.5l61,28,18-40,18,36,12-19,5,8,11-23-11-1,20-42h-10l23-49,24,50h-10l19,41h-14l16,26,8-20h-8l21-44,21,42s-10-2-10,0,18,38,18,38h-9l5,12s58,9,72,18l11-21,12,27,19-34,15,30,12-28,4,5,13-25h-11l24-49,23,48-9,1,19,42h-12l10,21,12,3,23-48-11-1,29-64,30,65h-13l24,52-14,1,5,18s55,26.63,63.91,31.38a12.27,12.27,0,0,1,1.09.62c3,2,7-16,7-16l14,23,12-22,21,41,12-24,9,18,12-27,17,35,17-36,11,26s57-29,108-32,63-21,109-24,71-12,152,28c0,0,64,26,67,26l11-22,17,35,32,9,10-26,14,26,15-32,14,25,9-19,9,17s11-17,53-17h79s31-4,36-10l22-43,13,29s15,3,24-27l6,11,15-32,14,26,93-43,20-43,13,26,20-43,10,21,11-23-13-1,29-62,30,62h-12l10,24,8-14,10,20,25-53-18-1,41-87,42,87h-19l18,37,16-35,20,44,13-2,12-3,1,294H.5Z" transform="translate(1 -631)" style="fill:#1d5b77"/></g></svg>