<svg id="Buildings" xmlns="http://www.w3.org/2000/svg" viewBox="0 0 1920.9 588.43">
    <title>skyline_1</title>
    <g id="Layer_9" data-name="Layer 9">
        <g id="Layer_12" data-name="Layer 12">
            <path d="M1920.18,1163.79c0-11.32-.63-163.94-.63-163.94l-5.11-.29V997l-4.55-.29V993.6l-4.26.28-.28,2.84h-3.69V999h-3.41l-.28-2h-3.69l.28,2.27-3.69-.28-.29-2.28-4.54-.28-.28-2.27-5.11.28.28,2.27h-4.83l.29,2.28h-4.83c-.57-6-6.81-5.4-6.81-5.4l-.29-4h-3.12v-2l-5.4-.29v2.28h-7.66l.28,6.53-6,.28-13.92-10.79-.28-3.12h-5.11l.28,3.12-13.06,11.07-2.27-.28v-2.27l-11.92-.57v3.12l-6-.28-6-3.69-6.82,3.69h-5.11V993.6l-11.35.28.28,2.28-4.83.28.29-5.68-22.43-13.63-21.58,13.92-.29,5.39-3.69-.28c-.28-10.51-9.09-10.23-9.09-10.23v-3.12h-2l.28-40.32h-8.8v6.82l-2.56-.29.29-6.24-15,.28-.29,6-6.81-.28-.28-15-6.82.28v4.55l-3.69-.29.28-3.41-9.37.29-.28-2.56-6.53-.28.28,5.68-2.55.28-.29-8.23h-7.38l.28,3.12-2.27-.28.29-3.13h-7.67l.28-3.4h-5.39v2h-6l-.29,13.07H1601l.29-2.28-8-.28V932l-2-.29-.29,6.82h-4V932l-2-.29v6l-7.1-.28v-3.69h-11.35l-.29-7.1-30.1-.28-.28-20.73-2.84-.57-.28,21.86-1.42-.28.28-21.3-2.84-.28-1.14,53.38c-4.82-16.75-32.65-16.47-32.65-17l-.37,2.23-.54-52.21h-7.67l.57-72.69-2.27-.28.28-26.69s.29-8-6.81-7.39V750.55h-9.66s-3.69,0-4,4.82.57,28.4.57,28.4l-1.71-.29-.28-50-9.09-26.69-2.32-42.22-.17-9.46h-1.77l-.17,9.46-2.32,42.22-9.09,26.69-.28,50-1.7.29s.85-23.57.56-28.4-4-4.82-4-4.82h-9.66v33.78c-7.09-.56-6.81,7.39-6.81,7.39l.28,26.69-2.27.28.57,72.69h-7.67l-.85,82.06,0,.53h-4.71c0-.7-.06-1.38-.09-2.09-3-65.18-8.73-169.21-14.68-224.33-5.71-53-14-81.76-39.06-172.1h0v-.11h-1.42a1100.38,1100.38,0,0,0-52.81,324.27l-3.41-.29V815.85l-29,.29-.86-5.11-9.08.56v-5.11l-6.25-.57.57-11.07h-32.09l-.28,11.07h-19.59l-.57,18.46h-4.54c0-3.12-5.4-3.12-5.4-3.12l.29,147.36-28.4-.28v-5.39h-23.85c0-9.09-5.11-8.81-5.11-8.81h-29l.56-151h-9.93l.85-53.39h-2.84l.28,12.78c-78.65-.57-74.67,90.58-74.67,90.58s-5,.49-5.38-.14c.22,4.14-.59,100.37-.59,100.37H999v3.12l-2.27-.28.29,5.4h-3.13l.29,37.48h-9.37s-.57-37.77,0-38.62c4.25-6.38-4.26-9.09-4.26-9.09H959l.28,2.56h-3.12l.28,6-2.84.29v15l-1.7.29c-.29-7.95-6-8.52-6-8.52H931.14l-.28-4.26-6.82-.28v-6.25h-7.66l-.29-7.67-3.41-.28L912.4,955l-5.68.29-.28-6.53-1.71-2.56h-2.27L901,949.31l.29,6.24-11.08.29-.28,7.95H879.75L880,984h-5.39v5.68l-15.34.28-.28-5.4h-2.56l-.28-3.12-4-.28-.28,4.82-9.94.29-.85-37.2h-31v-2.84l-8.52.29-.28-8.24-13.06.29.28-9.09-3.41-3.12-2.84,2.84v9.37l-8.51.56.28,2.56,2,.57v5.39l-31-.28v-2.56l-11.93-.57v11.08l-5.11.28v6.25H717.9l-.29-8.52-10.78-1.13v8l-11.93.28.28-5.4-8.51.29-.29,17-9.65-.29c-.29-4.83-2.84-9.94-6.25-10.22s-5.68,10.79-5.68,10.79h-9.94l-.56-22.15-29.62-.25v-.87h-3.46l.56-24.42s-2.27-6.82-9.08-7.1l-.29-39.47,1.14-3.69,2.27-.57v-2.55H614.4v-5.12L610.14,865V844l3.41-4.54.28-4-1.42-3.12-3.4.29.28-5.68h-2v-5.68l2.27-.85-.56-5.68,3.12-.29-.28-7.1-4,.29-1.7-1.42.28-7.38s4.26-9.09-1.7-14.49l-1.14-9.93-.07,16.41-.07-16.41-1.14,9.93c-6,5.4-1.7,14.49-1.7,14.49l.28,7.38-1.7,1.42-4-.29-.29,7.1,3.12.29-.56,5.68,2.27.85v5.68h-2l.28,5.68-3.4-.29-1.42,3.12.28,4,3.41,4.54v21l-4.26,1.42v5.12h-1.42v2.55l2.27.57,1.14,3.69-.29,39.47c-6.81.28-9.08,7.1-9.08,7.1l.57,24.42h-5.58l.75-.87V926.59s1.7-26.41-29.53-26.41-32.94,26.13-32.94,26.13l-.27,23H508V921.2l-5.11-5.68h-4.82l-.29-46.29,3.13-3.12V857l-3.7-2.27V826.07l2.84-.28v-4l-1.13-1.42v-5.68l-1.42-.29v4h-1.14l.29-19,2-1.7-1.42-6.81h-4.82v-2l-1.14-.57.29-9.37,1.7-4-.28-4.54-3.13-6.81-.24-9v-1.78H487.3v1.77l-.24,9-3.12,6.81-.28,4.54,1.7,4,.28,9.37-1.13.57v2h-4.83l-1.42,6.81,2,1.7.28,19h-1.13v-4l-1.42.29v5.68l-1.14,1.42v4l2.84.28v28.68L476,857v9.09l3.12,3.12-.28,46.29H474l-5.11,5.68v29.24L431.4,951l.28,30.67h-6v7.66l-9.08-.57.28-7.95H410.1l.57,14.77h-8.23l.28-4.54H397v4.25H382v-7.09h-5.67V995L351,995.3V963.79l-20.44.28-.57-6.81L307.88,957l-.28,5.11H292.27l-20.73,4.83v31.8l-10.79.29-.57-16.19h-4.82l-.29-15.9h-6.53l-.28-3.12H244l.28-5.68h-1.42l-.28-4.83-6-.57v5.68h-2.56v3.69l-17,.86.29,6.81-2.27-.28.28,10.22-1.42.28-.57,8.52-3.69.28.28-14.76-3.69-.29v-6.53h-4.54v-6.53l-7.1.29v2.84h-6.53l.28-2-2.83-.57-.29,11.36-3.12-.28-.29-5.4h-1.7V954.7l-5.39-.28.28-6.25-18.46-.28-3.12,2,.28,4.55-5.39.85v11.92l-2.84.29.28-26.69h-3.4l-.29,19L114,958.68l.57,5.67H103.73l.57,3.7-7.1.28-.28-5.39-2.56-.29.28,5.4-1.7.56.28-6-2.55.29v5.67h-7.1l-.28,2.84-4.55.29-.57-10.51H70.51l.57-1.13H66.82l.28,2-6.53.29.28,3.4h-2v-3.12l-6-.28-.28,6.53-1.42.28.28-6.53-4.82-.28-.57,6H40.41v-3.69l-2-.29L37.85,970l-8-2.84v11.93l-6.81.28.28-5.11-12.77-.57-.57,6-2.56-.29v-5.68L.09,974l.11,26.44H-.72v1.83L.56,1163.79ZM488.45,1000.12l.09.33h-.17Z"
                  transform="translate(0.72 -575.35)" style="fill:#3d3d4c"/>
        </g>
    </g>
</svg>
