<svg id="Capa_1" data-name="Capa 1" xmlns="http://www.w3.org/2000/svg" viewBox="0 0 482 482"><title>education</title><circle cx="241" cy="241" r="241" style="fill:#1376a9"/><path d="M240,384.56c-62.95,0-114.17-31.78-114.17-70.84V242.78l-66.61-33.3a16.68,16.68,0,0,1,0-29.84L232.55,93a16.73,16.73,0,0,1,14.9,0l173.33,86.67a16.68,16.68,0,0,1,0,29.84l-12.45,6.22V298l2.49,1.44a16.44,16.44,0,0,1,8.35,14.33,16.67,16.67,0,0,1-33.34,0,16.47,16.47,0,0,1,8.35-14.34l2.49-1.45V221.52l-42.5,21.25v71C354.17,352.78,303,384.56,240,384.56Zm-91.67-70.84c0,25.3,43.69,48.34,91.67,48.34s91.67-23,91.67-48.34V254l-84.22,42.12a16.73,16.73,0,0,1-14.9,0L148.33,254ZM79.69,194.56,240,274.71l160.31-80.15L240,114.4Z" transform="translate(0 -1)" style="fill:#fff"/></svg>