<svg id="Capa_1" data-name="Capa 1" xmlns="http://www.w3.org/2000/svg" viewBox="0 0 482 482"><title>person</title><circle cx="241" cy="241" r="241" style="fill:#1376a9"/><path d="M236.6,254H239c22-.37,39.72-8.09,52.83-22.86,28.86-32.52,24.06-88.28,23.54-93.6-1.88-39.94-20.76-59-36.35-68C267.4,62.9,253.84,59.3,238.7,59h-1.28c-8.31,0-24.65,1.35-40.32,10.27s-34.92,28-36.79,68.27c-.53,5.32-5.32,61.08,23.53,93.6C196.88,245.91,214.64,253.63,236.6,254ZM180.32,139.41c0-.22.07-.45.07-.6,2.48-53.73,40.62-59.5,57-59.5h.9c20.23.45,54.63,8.69,57,59.5a1.55,1.55,0,0,0,.07.6c.08.53,5.32,51.49-18.51,78.32-9.44,10.64-22,15.89-38.6,16h-.75c-16.48-.15-29.15-5.4-38.52-16C175.15,191.05,180.24,139.86,180.32,139.41Z" transform="translate(0 -1)" style="fill:#fff"/><path d="M391.81,346.48v-.22c0-.6-.08-1.2-.08-1.88-.45-14.84-1.42-49.53-34-60.63l-.75-.22c-33.8-8.62-61.9-28.1-62.2-28.33a10.12,10.12,0,0,0-11.62,16.56c1.28.9,31.11,21.66,68.43,31.25,17.46,6.22,19.41,24.89,19.93,42a14.17,14.17,0,0,0,.08,1.88c.07,6.74-.38,17.16-1.58,23.15-12.14,6.9-59.73,30.73-132.12,30.73-72.1,0-120-23.91-132.2-30.8-1.2-6-1.72-16.41-1.57-23.16,0-.6.07-1.2.07-1.87.53-17.09,2.47-35.75,19.94-42,37.32-9.59,67.14-30.43,68.42-31.25A10.12,10.12,0,0,0,181,255.13c-.3.22-28.25,19.71-62.2,28.32-.3.08-.53.15-.75.23-32.53,11.17-33.5,45.86-33.95,60.63a16.09,16.09,0,0,1-.07,1.87v.23c-.08,3.89-.15,23.9,3.82,33.95a9.68,9.68,0,0,0,3.9,4.72C94,386.58,147.87,420.9,238,420.9s144-34.4,146.29-35.82a10.07,10.07,0,0,0,3.9-4.72C392,370.39,391.88,350.38,391.81,346.48Z" transform="translate(0 -1)" style="fill:#fff"/></svg>