<svg id="Capa_1" data-name="Capa 1" xmlns="http://www.w3.org/2000/svg" viewBox="0 0 482 482"><title>puzzle</title><circle cx="241" cy="241" r="241" style="fill:#1376a9"/><path d="M179,317.37a26.67,26.67,0,0,1-17.7,7.15,9.52,9.52,0,0,0-6.77,16l55.83,59.86a9.54,9.54,0,0,0,13.46.47l47.9-44.67A45.81,45.81,0,1,0,335.19,297l47.88-44.65a9.54,9.54,0,0,0,.47-13.46L338.88,191a45.83,45.83,0,1,0-50.17-75.26,45.62,45.62,0,0,0-9.06,11.76L235,79.61a9.54,9.54,0,0,0-13.46-.47L161.69,135l0,0a9.52,9.52,0,0,0,6.16,16.48,26.79,26.79,0,1,1-29.66,27.16,9.53,9.53,0,0,0-16-6.78L62.28,227.68a9.52,9.52,0,0,0-.47,13.46L117.64,301a9.53,9.53,0,0,0,16.45-5.65,26.76,26.76,0,1,1,44.9,22Zm-49.53-53.1A45.44,45.44,0,0,0,120.39,276L82.24,235.12,123.16,197a45.83,45.83,0,1,0,63.5-59.22l40.91-38.16,49.33,52.89a9.53,9.53,0,0,0,16.45-5.63A26.78,26.78,0,1,1,320.54,176a9.53,9.53,0,0,0-6.77,16l49.34,52.9-52.88,49.32a9.53,9.53,0,0,0,5.64,16.45,26.78,26.78,0,1,1-29.16,27.21,9.52,9.52,0,0,0-16-6.78l-52.91,49.34-38.16-40.91a45.82,45.82,0,1,0-50.16-75.26Z" transform="translate(0 -1)" style="fill:#fff"/></svg>