<svg id="Capa_1" data-name="Capa 1" xmlns="http://www.w3.org/2000/svg" viewBox="0 0 482 482"><title>suitecase</title><circle cx="241" cy="241" r="241" style="fill:#1376a9"/><path d="M131.74,380.6c-26.14,0-47.41-21.92-47.41-48.85v-92.5l.1-5v-60c0-26.69,20.74-47.6,47.21-47.6h32.24l.56-4.37c1.89-14.65,7.6-26.92,16.52-35.49A40.7,40.7,0,0,1,209.1,75h56a40.68,40.68,0,0,1,28.2,11.78c8.88,8.54,14.56,20.81,16.45,35.49l.56,4.37h38.31c26.59,0,47.41,20.91,47.41,47.6V331.75c0,26.93-21.27,48.85-47.41,48.85ZM98.13,331.94c0,19.28,15.07,35,33.61,35H348.59a32.64,32.64,0,0,0,23.4-9.78A35.35,35.35,0,0,0,382,332V253.22l-8.4,7.82c-11,10.24-43.08,34.88-102.71,42.34l-3.71.46-.6,3.69a27.87,27.87,0,0,1-27.44,23.65H236a27.92,27.92,0,0,1-27.43-23.66l-.61-3.69-3.72-.45c-54.14-6.64-84.44-28.3-97.68-40.61L98.13,255Zm137.65-76.29a14.56,14.56,0,0,0-14.54,14.54v32.56a14.56,14.56,0,0,0,14.54,14.54h2.8a14.55,14.55,0,0,0,14.53-14.54V270.19a14.55,14.55,0,0,0-14.53-14.54Zm-104-115.22c-19.05,0-33.5,14.48-33.61,33.68v58.34l.8,1.24c8.82,13.66,36.51,46.43,102.83,55.61l5.69.79V270.48A28.65,28.65,0,0,1,236,241.76h3.18c15.57,0,27.76,12.61,27.76,28.72V289.9l5.68-.79c32.06-4.44,60-15.07,83.06-31.62,10.57-7.68,23-18.26,26.09-25l.47-1V174.24a33.36,33.36,0,0,0-33.62-33.81ZM209,88.8c-14.56,0-26.46,12.5-30.34,31.86l-1.19,6h119l-1.19-6C291.44,101.3,279.53,88.8,265,88.8Z" transform="translate(0 -1)" style="fill:#fff"/></svg>